  0
SECTION
  2
HEADER
  9
$ACADVER
  1
AC1021
  9
$ACADMAINTVER
 70
    25
  9
$DWGCODEPAGE
  3
ANSI_936
  9
$LASTSAVEDBY
  1
DXF
  9
$INSBASE
 10
0.0
 20
0.0
 30
0.0
  9
$EXTMIN
 10
0.0
 20
0.0
 30
0.0
  9
$EXTMAX
 10
420.0
 20
297.0
 30
0.0
  9
$LIMMIN
 10
0.0
 20
0.0
  9
$LIMMAX
 10
420.0
 20
297.0
  9
$ORTHOMODE
 70
     0
  9
$REGENMODE
 70
     1
  9
$FILLMODE
 70
     1
  9
$QTEXTMODE
 70
     0
  9
$MIRRTEXT
 70
     1
  9
$LTSCALE
 40
1.0
  9
$ATTMODE
 70
     1
  9
$TEXTSIZE
 40
3.5
  9
$TRACEWID
 40
1.0
  9
$TEXTSTYLE
  7
STANDARD
  9
$CLAYER
  8
0
  9
$CELTYPE
  6
ByLayer
  9
$CECOLOR
 62
   256
  9
$CELTSCALE
 40
1.0
  9
$DISPSILH
 70
     0
  9
$DIMSCALE
 40
1.0
  9
$DIMASZ
 40
3.5
  9
$DIMEXO
 40
0.0
  9
$DIMDLI
 40
3.75
  9
$DIMRND
 40
0.0
  9
$DIMDLE
 40
0.0
  9
$DIMEXE
 40
2.0
  9
$DIMTP
 40
0.0
  9
$DIMTM
 40
0.0
  9
$DIMTXT
 40
3.5
  9
$DIMCEN
 40
2.5
  9
$DIMTSZ
 40
0.0
  9
$DIMTOL
 70
     0
  9
$DIMLIM
 70
     0
  9
$DIMTIH
 70
     1
  9
$DIMTOH
 70
     1
  9
$DIMSE1
 70
     0
  9
$DIMSE2
 70
     0
  9
$DIMTAD
 70
     1
  9
$DIMZIN
 70
     0
  9
$DIMBLK
  1

  9
$DIMASO
 70
     1
  9
$DIMSHO
 70
     1
  9
$DIMPOST
  1

  9
$DIMAPOST
  1

  9
$DIMALT
 70
     0
  9
$DIMALTD
 70
     3
  9
$DIMALTF
 40
0.0393700787
  9
$DIMLFAC
 40
1.0
  9
$DIMTOFL
 70
     1
  9
$DIMTVP
 40
0.0
  9
$DIMTIX
 70
     0
  9
$DIMSOXD
 70
     0
  9
$DIMSAH
 70
     0
  9
$DIMBLK1
  1

  9
$DIMBLK2
  1

  9
$DIMSTYLE
  2
ISO-25
  9
$DIMCLRD
 70
     0
  9
$DIMCLRE
 70
     0
  9
$DIMCLRT
 70
     0
  9
$DIMTFAC
 40
1.0
  9
$DIMGAP
 40
1.524
  9
$DIMJUST
 70
     0
  9
$DIMSD1
 70
     0
  9
$DIMSD2
 70
     0
  9
$DIMTOLJ
 70
     0
  9
$DIMTZIN
 70
     0
  9
$DIMALTZ
 70
     0
  9
$DIMALTTZ
 70
     0
  9
$DIMUPT
 70
     0
  9
$DIMDEC
 70
     2
  9
$DIMTDEC
 70
     2
  9
$DIMALTU
 70
     2
  9
$DIMALTTD
 70
     3
  9
$DIMTXSTY
  7
STANDARD
  9
$DIMAUNIT
 70
     0
  9
$DIMADEC
 70
     1
  9
$DIMALTRND
 40
0.0
  9
$DIMAZIN
 70
     0
  9
$DIMDSEP
 70
    44
  9
$DIMATFIT
 70
     3
  9
$DIMFRAC
 70
     0
  9
$DIMLDRBLK
  1

  9
$DIMLUNIT
 70
     2
  9
$DIMLWD
 70
    -2
  9
$DIMLWE
 70
    -2
  9
$DIMTMOVE
 70
     0
  9
$DIMFXL
 40
1.0
  9
$DIMFXLON
 70
     0
  9
$DIMJOGANG
 40
0.7853981634
  9
$DIMTFILL
 70
     0
  9
$DIMTFILLCLR
 70
     0
  9
$DIMARCSYM
 70
     0
  9
$DIMLTYPE
  6

  9
$DIMLTEX1
  6

  9
$DIMLTEX2
  6

  9
$LUNITS
 70
     2
  9
$LUPREC
 70
     1
  9
$SKETCHINC
 40
1.0
  9
$FILLETRAD
 40
0.0
  9
$AUNITS
 70
     0
  9
$AUPREC
 70
     1
  9
$MENU
  1
.
  9
$ELEVATION
 40
0.0
  9
$PELEVATION
 40
0.0
  9
$THICKNESS
 40
0.0
  9
$LIMCHECK
 70
     0
  9
$CHAMFERA
 40
0.0
  9
$CHAMFERB
 40
0.0
  9
$CHAMFERC
 40
0.0
  9
$CHAMFERD
 40
0.0
  9
$SKPOLY
 70
     0
  9
$TDCREATE
 40
2461152.734155891
  9
$TDUCREATE
 40
2461152.400822558
  9
$TDUPDATE
 40
2461152.734164989
  9
$TDUUPDATE
 40
2461152.400831655
  9
$TDINDWG
 40
0.0000000116
  9
$TDUSRTIMER
 40
0.0000000116
  9
$USRTIMER
 70
     1
  9
$ANGBASE
 50
0.0
  9
$ANGDIR
 70
     0
  9
$PDMODE
 70
     0
  9
$PDSIZE
 40
-1.0
  9
$PLINEWID
 40
0.0
  9
$SPLFRAME
 70
     0
  9
$SPLINETYPE
 70
     6
  9
$SPLINESEGS
 70
     8
  9
$HANDSEED
  5
2FB
  9
$SURFTAB1
 70
     6
  9
$SURFTAB2
 70
     6
  9
$SURFTYPE
 70
     6
  9
$SURFU
 70
     6
  9
$SURFV
 70
     6
  9
$UCSBASE
  2

  9
$UCSNAME
  2

  9
$UCSORG
 10
0.0
 20
0.0
 30
0.0
  9
$UCSXDIR
 10
1.0
 20
0.0
 30
0.0
  9
$UCSYDIR
 10
0.0
 20
1.0
 30
0.0
  9
$UCSORTHOREF
  2

  9
$UCSORTHOVIEW
 70
     0
  9
$UCSORGTOP
 10
0.0
 20
0.0
 30
0.0
  9
$UCSORGBOTTOM
 10
0.0
 20
0.0
 30
0.0
  9
$UCSORGLEFT
 10
0.0
 20
0.0
 30
0.0
  9
$UCSORGRIGHT
 10
0.0
 20
0.0
 30
0.0
  9
$UCSORGFRONT
 10
0.0
 20
0.0
 30
0.0
  9
$UCSORGBACK
 10
0.0
 20
0.0
 30
0.0
  9
$PUCSBASE
  2

  9
$PUCSNAME
  2

  9
$PUCSORG
 10
0.0
 20
0.0
 30
0.0
  9
$PUCSXDIR
 10
1.0
 20
0.0
 30
0.0
  9
$PUCSYDIR
 10
0.0
 20
1.0
 30
0.0
  9
$PUCSORTHOREF
  2

  9
$PUCSORTHOVIEW
 70
     0
  9
$PUCSORGTOP
 10
0.0
 20
0.0
 30
0.0
  9
$PUCSORGBOTTOM
 10
0.0
 20
0.0
 30
0.0
  9
$PUCSORGLEFT
 10
0.0
 20
0.0
 30
0.0
  9
$PUCSORGRIGHT
 10
0.0
 20
0.0
 30
0.0
  9
$PUCSORGFRONT
 10
0.0
 20
0.0
 30
0.0
  9
$PUCSORGBACK
 10
0.0
 20
0.0
 30
0.0
  9
$USERI1
 70
     0
  9
$USERI2
 70
     0
  9
$USERI3
 70
     0
  9
$USERI4
 70
     0
  9
$USERI5
 70
     0
  9
$USERR1
 40
0.0
  9
$USERR2
 40
0.0
  9
$USERR3
 40
0.0
  9
$USERR4
 40
0.0
  9
$USERR5
 40
0.0
  9
$WORLDVIEW
 70
     1
  9
$SHADEDGE
 70
     3
  9
$SHADEDIF
 70
    70
  9
$TILEMODE
 70
     1
  9
$MAXACTVP
 70
    64
  9
$PINSBASE
 10
0.0
 20
0.0
 30
0.0
  9
$PLIMCHECK
 70
     0
  9
$PEXTMIN
 10
1.0000000000E+20
 20
1.0000000000E+20
 30
1.0000000000E+20
  9
$PEXTMAX
 10
-1.0000000000E+20
 20
-1.0000000000E+20
 30
-1.0000000000E+20
  9
$PLIMMIN
 10
0.0
 20
0.0
  9
$PLIMMAX
 10
420.0
 20
297.0
  9
$UNITMODE
 70
     0
  9
$VISRETAIN
 70
     1
  9
$PLINEGEN
 70
     0
  9
$PSLTSCALE
 70
     1
  9
$TREEDEPTH
 70
  3020
  9
$CMLSTYLE
  2
Standard
  9
$CMLJUST
 70
     0
  9
$CMLSCALE
 40
20.0
  9
$PROXYGRAPHICS
 70
     1
  9
$MEASUREMENT
 70
     1
  9
$CELWEIGHT
370
    -1
  9
$ENDCAPS
280
     0
  9
$JOINSTYLE
280
     0
  9
$LWDISPLAY
290
     1
  9
$INSUNITS
 70
     4
  9
$HYPERLINKBASE
  1

  9
$STYLESHEET
  1

  9
$XEDIT
290
     1
  9
$CEPSNTYPE
380
     0
  9
$PSTYLEMODE
290
     1
  9
$FINGERPRINTGUID
  2
{03b1f85f-d7de-4857-b225-094abfc38f57}
  9
$VERSIONGUID
  2
{FAEB1C32-E019-11D5-929B-00C0DF256EC4}
  9
$EXTNAMES
290
     1
  9
$PSVPSCALE
 40
0.0
  9
$OLESTARTUP
290
     0
  9
$SORTENTS
280
   127
  9
$INDEXCTL
280
     0
  9
$HIDETEXT
280
     1
  9
$XCLIPFRAME
290
     0
  9
$HALOGAP
280
     0
  9
$OBSCOLOR
 70
   257
  9
$OBSLTYPE
280
     0
  9
$INTERSECTIONDISPLAY
280
     0
  9
$INTERSECTIONCOLOR
 70
   257
  9
$DIMASSOC
280
     2
  9
$PROJECTNAME
  1

  9
$CAMERADISPLAY
290
     0
  9
$LENSLENGTH
 40
50.0
  9
$CAMERAHEIGHT
 40
0.0
  9
$STEPSPERSEC
 40
2.0
  9
$STEPSIZE
 40
6.0
  9
$3DDWFPREC
 40
2.0
  9
$PSOLWIDTH
 40
5.0
  9
$PSOLHEIGHT
 40
80.0
  9
$LOFTANG1
 40
1.5707963268
  9
$LOFTANG2
 40
1.5707963268
  9
$LOFTMAG1
 40
0.0
  9
$LOFTMAG2
 40
0.0
  9
$LOFTPARAM
 70
     7
  9
$LOFTNORMALS
280
     1
  9
$LATITUDE
 40
37.795
  9
$LONGITUDE
 40
-122.394
  9
$NORTHDIRECTION
 40
0.0
  9
$TIMEZONE
 70
 -8000
  9
$LIGHTGLYPHDISPLAY
280
     1
  9
$TILEMODELIGHTSYNCH
280
     1
  9
$CMATERIAL
347
44
  9
$SOLIDHIST
280
     0
  9
$SHOWHIST
280
     1
  9
$DWFFRAME
280
     2
  9
$DGNFRAME
280
     2
  9
$REALWORLDSCALE
290
     1
  9
$INTERFERECOLOR
 62
   256
  9
$CSHADOW
280
     0
  9
$SHADOWPLANELOCATION
 40
0.0
  0
ENDSEC
  0
SECTION
  2
CLASSES
  0
CLASS
  1
ACDBDICTIONARYWDFLT
  2
AcDbDictionaryWithDefault
  3
ObjectDBX Classes
 90
        0
 91
        3
280
     0
281
     0
  0
CLASS
  1
VISUALSTYLE
  2
AcDbVisualStyle
  3
ObjectDBX Classes
 90
     4095
 91
        3
280
     0
281
     0
  0
CLASS
  1
MATERIAL
  2
AcDbMaterial
  3
ObjectDBX Classes
 90
     1153
 91
        3
280
     0
281
     0
  0
CLASS
  1
SCALE
  2
AcDbScale
  3
ObjectDBX Classes
 90
     1153
 91
        3
280
     0
281
     0
  0
CLASS
  1
TABLESTYLE
  2
AcDbTableStyle
  3
ObjectDBX Classes
 90
     4095
 91
        3
280
     0
281
     0
  0
CLASS
  1
MLEADERSTYLE
  2
AcDbMLeaderStyle
  3
ACDB_MLEADERSTYLE_CLASS
 90
     4095
 91
        3
280
     0
281
     0
  0
CLASS
  1
SUN
  2
AcDbSun
  3
SCENEOE
 90
     1153
 91
        3
280
     0
281
     0
  0
CLASS
  1
DICTIONARYVAR
  2
AcDbDictionaryVar
  3
ObjectDBX Classes
 90
        0
 91
        3
280
     0
281
     0
  0
CLASS
  1
CELLSTYLEMAP
  2
AcDbCellStyleMap
  3
ObjectDBX Classes
 90
     1152
 91
        3
280
     0
281
     0
  0
ENDSEC
  0
SECTION
  2
TABLES
  0
TABLE
  2
VPORT
  5
8
330
0
100
AcDbSymbolTable
 70
     1
  0
VPORT
  5
29
330
8
100
AcDbSymbolTableRecord
100
AcDbViewportTableRecord
  2
*Active
 70
     0
 10
0.0
 20
0.0
 11
1.0
 21
1.0
 12
210.0
 22
148.5
 13
0.0
 23
0.0
 14
10.0
 24
10.0
 15
10.0
 25
10.0
 16
0.0
 26
0.0
 36
1.0
 17
0.0
 27
0.0
 37
0.0
 40
297.0
 41
1.4141414141
 42
50.0
 43
0.0
 44
0.0
 50
0.0
 51
0.0
 71
     0
 72
  2000
 73
     1
 74
     3
 75
     0
 76
     0
 77
     0
 78
     0
281
     0
 65
     1
110
0.0
120
0.0
130
0.0
111
1.0
121
0.0
131
0.0
112
0.0
122
1.0
132
0.0
 79
     0
146
0.0
348
2F
 60
     3
 61
     5
292
     1
282
     1
141
0.0
142
0.0
 63
   250
361
5D
  0
ENDTAB
  0
TABLE
  2
LTYPE
  5
5
330
0
100
AcDbSymbolTable
 70
     6
  0
LTYPE
  5
14
330
5
100
AcDbSymbolTableRecord
100
AcDbLinetypeTableRecord
  2
ByBlock
 70
     0
  3

 72
    65
 73
     0
 40
0.0
  0
LTYPE
  5
15
330
5
100
AcDbSymbolTableRecord
100
AcDbLinetypeTableRecord
  2
ByLayer
 70
     0
  3

 72
    65
 73
     0
 40
0.0
  0
LTYPE
  5
16
330
5
100
AcDbSymbolTableRecord
100
AcDbLinetypeTableRecord
  2
Continuous
 70
     0
  3
Solid line
 72
    65
 73
     0
 40
0.0
  0
LTYPE
  5
5E
330
5
100
AcDbSymbolTableRecord
100
AcDbLinetypeTableRecord
  2
HIDDEN
 70
     0
  3
Hidden __ __ __ __ __ __ __ __ __ __ __ __ __ __
 72
    65
 73
     2
 40
1.905
 49
1.27
 74
     0
 49
-0.635
 74
     0
  0
LTYPE
  5
5F
330
5
100
AcDbSymbolTableRecord
100
AcDbLinetypeTableRecord
  2
PHANTOM
 70
     0
  3
Phantom ______  __  __  ______  __  __  ______
 72
    65
 73
     6
 40
12.7
 49
6.35
 74
     0
 49
-1.27
 74
     0
 49
1.27
 74
     0
 49
-1.27
 74
     0
 49
1.27
 74
     0
 49
-1.27
 74
     0
  0
LTYPE
  5
60
330
5
100
AcDbSymbolTableRecord
100
AcDbLinetypeTableRecord
  2
CENTER
 70
     0
  3
Center ____ _ ____ _ ____ _ ____ _ ____ _ ____
 72
    65
 73
     4
 40
10.16
 49
6.35
 74
     0
 49
-1.27
 74
     0
 49
1.27
 74
     0
 49
-1.27
 74
     0
  0
LTYPE
  5
61
330
5
100
AcDbSymbolTableRecord
100
AcDbLinetypeTableRecord
  2
CENTERX2
 70
     0
  3
Center (2x) ________  __  ________  __  _____
 72
    65
 73
     4
 40
20.32
 49
12.7
 74
     0
 49
-2.54
 74
     0
 49
2.54
 74
     0
 49
-2.54
 74
     0
  0
LTYPE
  5
62
330
5
100
AcDbSymbolTableRecord
100
AcDbLinetypeTableRecord
  2
DOT2
 70
     0
  3
Dot (.5x) ........................................
 72
    65
 73
     2
 40
0.635
 49
0.0
 74
     0
 49
-0.635
 74
     0
  0
ENDTAB
  0
TABLE
  2
LAYER
  5
2
330
0
100
AcDbSymbolTable
 70
    11
  0
LAYER
  5
10
330
2
100
AcDbSymbolTableRecord
100
AcDbLayerTableRecord
  2
0
 70
     0
 62
     7
  6
Continuous
370
    -3
390
F
347
46
  0
LAYER
  5
63
330
2
100
AcDbSymbolTableRecord
100
AcDbLayerTableRecord
  2
剖面线
 70
     0
 62
     4
  6
Continuous
370
    -3
390
F
347
46
  0
LAYER
  5
64
330
2
100
AcDbSymbolTableRecord
100
AcDbLayerTableRecord
  2
双点化线
 70
     0
 62
     2
  6
PHANTOM
370
    -3
390
F
347
46
  0
LAYER
  5
65
330
2
100
AcDbSymbolTableRecord
100
AcDbLayerTableRecord
  2
文字层
 70
     0
 62
     6
  6
Continuous
370
    -3
390
F
347
46
  0
LAYER
  5
66
330
2
100
AcDbSymbolTableRecord
100
AcDbLayerTableRecord
  2
虚线
 70
     0
 62
     6
  6
HIDDEN
370
    -3
390
F
347
46
  0
LAYER
  5
67
330
2
100
AcDbSymbolTableRecord
100
AcDbLayerTableRecord
  2
可见边线
 70
     0
 62
   168
  6
Continuous
370
    -3
390
F
347
46
  0
LAYER
  5
68
330
2
100
AcDbSymbolTableRecord
100
AcDbLayerTableRecord
  2
细实线
 70
     0
 62
   168
  6
Continuous
370
    50
390
F
347
46
  0
LAYER
  5
69
330
2
100
AcDbSymbolTableRecord
100
AcDbLayerTableRecord
  2
文本
 70
     0
 62
     6
  6
Continuous
370
    -1
390
F
347
46
  0
LAYER
  5
6A
330
2
100
AcDbSymbolTableRecord
100
AcDbLayerTableRecord
  2
标注层
 70
     0
 62
     7
  6
Continuous
370
    -1
390
F
347
46
  0
LAYER
  5
6B
330
2
100
AcDbSymbolTableRecord
100
AcDbLayerTableRecord
  2
中心线
 70
     0
 62
     7
  6
Continuous
370
    -1
390
F
347
46
  0
LAYER
  5
6C
330
2
100
AcDbSymbolTableRecord
100
AcDbLayerTableRecord
  2
中心线2
 70
     0
 62
     1
  6
CENTERX2
370
    -3
390
F
347
46
  0
ENDTAB
  0
TABLE
  2
STYLE
  5
3
330
0
100
AcDbSymbolTable
 70
    24
  0
STYLE
  5
11
330
3
100
AcDbSymbolTableRecord
100
AcDbTextStyleTableRecord
  2
STANDARD
 70
     0
 40
0.0
 41
1.0
 50
0.0
 71
     0
 42
3.5
  3
仿宋_GB2312
  4

1001
ACAD
1000
FANGSONG_GB2312
1071
      256
  0
STYLE
  5
181
330
3
100
AcDbSymbolTableRecord
100
AcDbTextStyleTableRecord
  2
SLDTEXTSTYLE0
 70
     0
 40
0.0
 41
1.0
 50
0.0
 71
     0
 42
3.5
  3
仿宋_GB2312
  4
bigfont
1001
ACAD
1000
FANGSONG_GB2312
1071
      256
  0
STYLE
  5
1C9
330
3
100
AcDbSymbolTableRecord
100
AcDbTextStyleTableRecord
  2
SLDTEXTSTYLE1
 70
     0
 40
0.0
 41
0.913
 50
0.0
 71
     0
 42
3.5
  3
GOTHIC.TTF
  4

1001
ACAD
1000
Century Gothic
1071
      290
  0
STYLE
  5
1D3
330
3
100
AcDbSymbolTableRecord
100
AcDbTextStyleTableRecord
  2
SLDTEXTSTYLE2
 70
     0
 40
0.0
 41
1.0
 50
0.0
 71
     0
 42
3.5
  3
SIMSUN.TTC
  4
bigfont
1001
ACAD
1000
宋体
1071
      258
  0
STYLE
  5
1E5
330
3
100
AcDbSymbolTableRecord
100
AcDbTextStyleTableRecord
  2
SLDTEXTSTYLE3
 70
     0
 40
0.0
 41
1.1949954794
 50
0.0
 71
     0
 42
3.5
  3
仿宋_GB2312
  4
bigfont
1001
ACAD
1000
FANGSONG_GB2312
1071
      256
  0
STYLE
  5
1E8
330
3
100
AcDbSymbolTableRecord
100
AcDbTextStyleTableRecord
  2
SLDTEXTSTYLE4
 70
     0
 40
0.0
 41
1.0
 50
0.0
 71
     0
 42
3.5
  3
仿宋_GB2312
  4

1001
ACAD
1000
FANGSONG_GB2312
1071
      256
  0
STYLE
  5
1ED
330
3
100
AcDbSymbolTableRecord
100
AcDbTextStyleTableRecord
  2
SLDTEXTSTYLE5
 70
     0
 40
0.0
 41
1.0
 50
0.0
 71
     0
 42
3.5
  3
SIMSUN.TTC
  4
bigfont
1001
ACAD
1000
新宋体
1071
      305
  0
STYLE
  5
1F2
330
3
100
AcDbSymbolTableRecord
100
AcDbTextStyleTableRecord
  2
SLDTEXTSTYLE6
 70
     0
 40
0.0
 41
0.7245966917
 50
0.0
 71
     0
 42
3.5
  3
SIMSUN.TTC
  4
bigfont
1001
ACAD
1000
宋体
1071
      258
  0
STYLE
  5
1F4
330
3
100
AcDbSymbolTableRecord
100
AcDbTextStyleTableRecord
  2
SLDTEXTSTYLE7
 70
     0
 40
0.0
 41
0.9505280066
 50
0.0
 71
     0
 42
3.5
  3
SIMSUN.TTC
  4
bigfont
1001
ACAD
1000
宋体
1071
      258
  0
STYLE
  5
1F8
330
3
100
AcDbSymbolTableRecord
100
AcDbTextStyleTableRecord
  2
SLDTEXTSTYLE8
 70
     0
 40
0.0
 41
1.0
 50
0.0
 71
     0
 42
3.5
  3
SIMSUN.TTC
  4

1001
ACAD
1000
宋体
1071
      258
  0
STYLE
  5
1FD
330
3
100
AcDbSymbolTableRecord
100
AcDbTextStyleTableRecord
  2
SLDTEXTSTYLE9
 70
     0
 40
0.0
 41
0.839520919
 50
0.0
 71
     0
 42
3.5
  3
SIMSUN.TTC
  4
bigfont
1001
ACAD
1000
新宋体
1071
      305
  0
STYLE
  5
20C
330
3
100
AcDbSymbolTableRecord
100
AcDbTextStyleTableRecord
  2
SLDTEXTSTYLE10
 70
     0
 40
0.0
 41
0.6476932033
 50
0.0
 71
     0
 42
3.5
  3
SIMSUN.TTC
  4
bigfont
1001
ACAD
1000
宋体
1071
      258
  0
STYLE
  5
213
330
3
100
AcDbSymbolTableRecord
100
AcDbTextStyleTableRecord
  2
SLDTEXTSTYLE11
 70
     0
 40
0.0
 41
0.6476932033
 50
0.0
 71
     0
 42
3.5
  3
SIMSUN.TTC
  4

1001
ACAD
1000
宋体
1071
      258
  0
STYLE
  5
21A
330
3
100
AcDbSymbolTableRecord
100
AcDbTextStyleTableRecord
  2
SLDTEXTSTYLE12
 70
     0
 40
0.0
 41
1.0
 50
0.0
 71
     0
 42
3.5
  3
SIMFANG.TTF
  4

1001
ACAD
1000
@仿宋
1071
      305
  0
STYLE
  5
266
330
3
100
AcDbSymbolTableRecord
100
AcDbTextStyleTableRecord
  2
SLDTEXTSTYLE13
 70
     0
 40
0.0
 41
1.0
 50
0.0
 71
     0
 42
3.5
  3
SIMFANG.TTF
  4
bigfont
1001
ACAD
1000
@仿宋
1071
      305
  0
STYLE
  5
26C
330
3
100
AcDbSymbolTableRecord
100
AcDbTextStyleTableRecord
  2
SLDTEXTSTYLE14
 70
     0
 40
0.0
 41
0.7483775379
 50
0.0
 71
     0
 42
3.5
  3
HYSWLONGFANGSONG.TTF
  4
bigfont
1001
ACAD
1000
汉仪长仿宋体
1071
      258
  0
STYLE
  5
271
330
3
100
AcDbSymbolTableRecord
100
AcDbTextStyleTableRecord
  2
SLDTEXTSTYLE15
 70
     0
 40
0.0
 41
0.5621381039
 50
0.0
 71
     0
 42
3.5
  3
SIMSUN.TTC
  4
bigfont
1001
ACAD
1000
新宋体
1071
      305
  0
STYLE
  5
273
330
3
100
AcDbSymbolTableRecord
100
AcDbTextStyleTableRecord
  2
SLDTEXTSTYLE16
 70
     0
 40
0.0
 41
0.5621381039
 50
0.0
 71
     0
 42
3.5
  3
SIMSUN.TTC
  4

1001
ACAD
1000
新宋体
1071
      305
  0
STYLE
  5
278
330
3
100
AcDbSymbolTableRecord
100
AcDbTextStyleTableRecord
  2
SLDTEXTSTYLE17
 70
     0
 40
0.0
 41
0.72821618
 50
0.0
 71
     0
 42
3.5
  3
SIMSUN.TTC
  4
bigfont
1001
ACAD
1000
新宋体
1071
      305
  0
STYLE
  5
27A
330
3
100
AcDbSymbolTableRecord
100
AcDbTextStyleTableRecord
  2
SLDTEXTSTYLE18
 70
     0
 40
0.0
 41
0.7494675382
 50
0.0
 71
     0
 42
3.5
  3
SIMSUN.TTC
  4
bigfont
1001
ACAD
1000
新宋体
1071
      305
  0
STYLE
  5
27E
330
3
100
AcDbSymbolTableRecord
100
AcDbTextStyleTableRecord
  2
SLDTEXTSTYLE19
 70
     0
 40
0.0
 41
0.9373678994
 50
0.0
 71
     0
 42
3.5
  3
SIMSUN.TTC
  4
bigfont
1001
ACAD
1000
宋体
1071
      258
  0
STYLE
  5
280
330
3
100
AcDbSymbolTableRecord
100
AcDbTextStyleTableRecord
  2
SLDTEXTSTYLE20
 70
     0
 40
0.0
 41
0.9218778621
 50
0.0
 71
     0
 42
3.5
  3
SIMSUN.TTC
  4
bigfont
1001
ACAD
1000
宋体
1071
      258
  0
STYLE
  5
282
330
3
100
AcDbSymbolTableRecord
100
AcDbTextStyleTableRecord
  2
SLDTEXTSTYLE21
 70
     0
 40
0.0
 41
0.7577513105
 50
0.0
 71
     0
 42
3.5
  3
SIMSUN.TTC
  4
bigfont
1001
ACAD
1000
宋体
1071
      258
  0
STYLE
  5
29D
330
3
100
AcDbSymbolTableRecord
100
AcDbTextStyleTableRecord
  2
SLDTEXTSTYLE22
 70
     0
 40
0.0
 41
0.757751154
 50
0.0
 71
     0
 42
3.5
  3
SIMSUN.TTC
  4
bigfont
1001
ACAD
1000
宋体
1071
      258
  0
ENDTAB
  0
TABLE
  2
VIEW
  5
6
330
0
100
AcDbSymbolTable
 70
     0
  0
ENDTAB
  0
TABLE
  2
UCS
  5
7
330
0
100
AcDbSymbolTable
 70
     0
  0
ENDTAB
  0
TABLE
  2
APPID
  5
9
330
0
100
AcDbSymbolTable
 70
     2
  0
APPID
  5
12
330
9
100
AcDbSymbolTableRecord
100
AcDbRegAppTableRecord
  2
ACAD
 70
     0
  0
APPID
  5
2F3
330
9
100
AcDbSymbolTableRecord
100
AcDbRegAppTableRecord
  2
ACAD_MLEADERVER
 70
     0
  0
ENDTAB
  0
TABLE
  2
DIMSTYLE
  5
A
330
0
100
AcDbSymbolTable
 70
     1
100
AcDbDimStyleTable
  0
DIMSTYLE
105
27
330
A
100
AcDbSymbolTableRecord
100
AcDbDimStyleTableRecord
  2
ISO-25
 70
     0
 41
2.5
 42
0.625
 43
3.75
 44
1.25
 73
     0
 74
     0
 77
     1
 78
     8
140
2.5
141
2.5
143
0.0393700787
147
0.625
171
     3
172
     1
178
     0
271
     2
272
     2
274
     3
278
    44
283
     0
284
     8
340
11
  0
ENDTAB
  0
TABLE
  2
BLOCK_RECORD
  5
1
330
0
100
AcDbSymbolTable
 70
    48
  0
BLOCK_RECORD
  5
1F
330
1
100
AcDbSymbolTableRecord
100
AcDbBlockTableRecord
  2
*Model_Space
340
22
 70
     0
280
     1
281
     0
  0
BLOCK_RECORD
  5
1B
330
1
100
AcDbSymbolTableRecord
100
AcDbBlockTableRecord
  2
*Paper_Space
340
1E
 70
     0
280
     1
281
     0
  0
BLOCK_RECORD
  5
23
330
1
100
AcDbSymbolTableRecord
100
AcDbBlockTableRecord
  2
*Paper_Space0
340
26
 70
     0
280
     1
281
     0
  0
BLOCK_RECORD
  5
6D
330
1
100
AcDbSymbolTableRecord
100
AcDbBlockTableRecord
  2
SW_HATCH_0
340
0
102
{BLKREFS
331
72
102
}
 70
     0
280
     1
281
     0
  0
BLOCK_RECORD
  5
73
330
1
100
AcDbSymbolTableRecord
100
AcDbBlockTableRecord
  2
SW_HATCH_1
340
0
102
{BLKREFS
331
77
102
}
 70
     0
280
     1
281
     0
  0
BLOCK_RECORD
  5
78
330
1
100
AcDbSymbolTableRecord
100
AcDbBlockTableRecord
  2
SW_HATCH_2
340
0
102
{BLKREFS
331
7E
102
}
 70
     0
280
     1
281
     0
  0
BLOCK_RECORD
  5
7F
330
1
100
AcDbSymbolTableRecord
100
AcDbBlockTableRecord
  2
SW_HATCH_3
340
0
102
{BLKREFS
331
84
102
}
 70
     0
280
     1
281
     0
  0
BLOCK_RECORD
  5
85
330
1
100
AcDbSymbolTableRecord
100
AcDbBlockTableRecord
  2
SW_HATCH_4
340
0
102
{BLKREFS
331
8A
102
}
 70
     0
280
     1
281
     0
  0
BLOCK_RECORD
  5
8B
330
1
100
AcDbSymbolTableRecord
100
AcDbBlockTableRecord
  2
SW_HATCH_5
340
0
102
{BLKREFS
331
90
102
}
 70
     0
280
     1
281
     0
  0
BLOCK_RECORD
  5
91
330
1
100
AcDbSymbolTableRecord
100
AcDbBlockTableRecord
  2
SW_HATCH_6
340
0
102
{BLKREFS
331
96
102
}
 70
     0
280
     1
281
     0
  0
BLOCK_RECORD
  5
97
330
1
100
AcDbSymbolTableRecord
100
AcDbBlockTableRecord
  2
SW_HATCH_7
340
0
102
{BLKREFS
331
9C
102
}
 70
     0
280
     1
281
     0
  0
BLOCK_RECORD
  5
9D
330
1
100
AcDbSymbolTableRecord
100
AcDbBlockTableRecord
  2
SW_HATCH_8
340
0
102
{BLKREFS
331
A1
102
}
 70
     0
280
     1
281
     0
  0
BLOCK_RECORD
  5
A2
330
1
100
AcDbSymbolTableRecord
100
AcDbBlockTableRecord
  2
SW_HATCH_9
340
0
102
{BLKREFS
331
A7
102
}
 70
     0
280
     1
281
     0
  0
BLOCK_RECORD
  5
A8
330
1
100
AcDbSymbolTableRecord
100
AcDbBlockTableRecord
  2
SW_HATCH_10
340
0
102
{BLKREFS
331
AE
102
}
 70
     0
280
     1
281
     0
  0
BLOCK_RECORD
  5
AF
330
1
100
AcDbSymbolTableRecord
100
AcDbBlockTableRecord
  2
SW_HATCH_11
340
0
102
{BLKREFS
331
B5
102
}
 70
     0
280
     1
281
     0
  0
BLOCK_RECORD
  5
B6
330
1
100
AcDbSymbolTableRecord
100
AcDbBlockTableRecord
  2
SW_HATCH_12
340
0
102
{BLKREFS
331
BB
102
}
 70
     0
280
     1
281
     0
  0
BLOCK_RECORD
  5
BC
330
1
100
AcDbSymbolTableRecord
100
AcDbBlockTableRecord
  2
SW_HATCH_13
340
0
102
{BLKREFS
331
C0
102
}
 70
     0
280
     1
281
     0
  0
BLOCK_RECORD
  5
C1
330
1
100
AcDbSymbolTableRecord
100
AcDbBlockTableRecord
  2
SW_HATCH_14
340
0
102
{BLKREFS
331
C5
102
}
 70
     0
280
     1
281
     0
  0
BLOCK_RECORD
  5
17E
330
1
100
AcDbSymbolTableRecord
100
AcDbBlockTableRecord
  2
SW_NOTE_0
340
0
102
{BLKREFS
331
187
102
}
 70
     0
280
     1
281
     0
  0
BLOCK_RECORD
  5
188
330
1
100
AcDbSymbolTableRecord
100
AcDbBlockTableRecord
  2
SW_NOTE_0_1
340
0
102
{BLKREFS
331
190
102
}
 70
     0
280
     1
281
     0
  0
BLOCK_RECORD
  5
191
330
1
100
AcDbSymbolTableRecord
100
AcDbBlockTableRecord
  2
SW_NOTE_0_2
340
0
102
{BLKREFS
331
1A0
102
}
 70
     0
280
     1
281
     0
  0
BLOCK_RECORD
  5
1A1
330
1
100
AcDbSymbolTableRecord
100
AcDbBlockTableRecord
  2
SW_NOTE_0_3
340
0
102
{BLKREFS
331
1AC
102
}
 70
     0
280
     1
281
     0
  0
BLOCK_RECORD
  5
1AD
330
1
100
AcDbSymbolTableRecord
100
AcDbBlockTableRecord
  2
SW_NOTE_0_4
340
0
102
{BLKREFS
331
1B6
102
}
 70
     0
280
     1
281
     0
  0
BLOCK_RECORD
  5
1B7
330
1
100
AcDbSymbolTableRecord
100
AcDbBlockTableRecord
  2
SW_NOTE_0_5
340
0
102
{BLKREFS
331
1C0
102
}
 70
     0
280
     1
281
     0
  0
BLOCK_RECORD
  5
1C1
330
1
100
AcDbSymbolTableRecord
100
AcDbBlockTableRecord
  2
SW_NOTE_0_6
340
0
102
{BLKREFS
331
1C8
102
}
 70
     0
280
     1
281
     0
  0
BLOCK_RECORD
  5
1FF
330
1
100
AcDbSymbolTableRecord
100
AcDbBlockTableRecord
  2
SW_NOTE_0_7
340
0
102
{BLKREFS
331
208
102
}
 70
     0
280
     1
281
     0
  0
BLOCK_RECORD
  5
209
330
1
100
AcDbSymbolTableRecord
100
AcDbBlockTableRecord
  2
SW_NOTE_0_8
340
0
102
{BLKREFS
331
216
102
}
 70
     0
280
     1
281
     0
  0
BLOCK_RECORD
  5
217
330
1
100
AcDbSymbolTableRecord
100
AcDbBlockTableRecord
  2
SW_NOTE_0_9
340
0
102
{BLKREFS
331
21D
102
}
 70
     0
280
     1
281
     0
  0
BLOCK_RECORD
  5
21F
330
1
100
AcDbSymbolTableRecord
100
AcDbBlockTableRecord
  2
SW_NOTE_0_10
340
0
102
{BLKREFS
331
224
102
}
 70
     0
280
     1
281
     0
  0
BLOCK_RECORD
  5
225
330
1
100
AcDbSymbolTableRecord
100
AcDbBlockTableRecord
  2
SW_NOTE_0_11
340
0
102
{BLKREFS
331
22A
102
}
 70
     0
280
     1
281
     0
  0
BLOCK_RECORD
  5
22C
330
1
100
AcDbSymbolTableRecord
100
AcDbBlockTableRecord
  2
SW_NOTE_0_12
340
0
102
{BLKREFS
331
231
102
}
 70
     0
280
     1
281
     0
  0
BLOCK_RECORD
  5
232
330
1
100
AcDbSymbolTableRecord
100
AcDbBlockTableRecord
  2
SW_NOTE_0_13
340
0
102
{BLKREFS
331
237
102
}
 70
     0
280
     1
281
     0
  0
BLOCK_RECORD
  5
239
330
1
100
AcDbSymbolTableRecord
100
AcDbBlockTableRecord
  2
SW_NOTE_0_14
340
0
102
{BLKREFS
331
23E
102
}
 70
     0
280
     1
281
     0
  0
BLOCK_RECORD
  5
23F
330
1
100
AcDbSymbolTableRecord
100
AcDbBlockTableRecord
  2
SW_NOTE_0_15
340
0
102
{BLKREFS
331
244
102
}
 70
     0
280
     1
281
     0
  0
BLOCK_RECORD
  5
246
330
1
100
AcDbSymbolTableRecord
100
AcDbBlockTableRecord
  2
SW_NOTE_0_16
340
0
102
{BLKREFS
331
24B
102
}
 70
     0
280
     1
281
     0
  0
BLOCK_RECORD
  5
24D
330
1
100
AcDbSymbolTableRecord
100
AcDbBlockTableRecord
  2
SW_NOTE_0_17
340
0
102
{BLKREFS
331
252
102
}
 70
     0
280
     1
281
     0
  0
BLOCK_RECORD
  5
253
330
1
100
AcDbSymbolTableRecord
100
AcDbBlockTableRecord
  2
SW_NOTE_0_18
340
0
102
{BLKREFS
331
258
102
}
 70
     0
280
     1
281
     0
  0
BLOCK_RECORD
  5
259
330
1
100
AcDbSymbolTableRecord
100
AcDbBlockTableRecord
  2
SW_NOTE_0_19
340
0
102
{BLKREFS
331
25E
102
}
 70
     0
280
     1
281
     0
  0
BLOCK_RECORD
  5
260
330
1
100
AcDbSymbolTableRecord
100
AcDbBlockTableRecord
  2
SW_NOTE_0_20
340
0
102
{BLKREFS
331
265
102
}
 70
     0
280
     1
281
     0
  0
BLOCK_RECORD
  5
26E
330
1
100
AcDbSymbolTableRecord
100
AcDbBlockTableRecord
  2
SW_NOTE_0_21
340
0
102
{BLKREFS
331
275
102
}
 70
     0
280
     1
281
     0
  0
BLOCK_RECORD
  5
286
330
1
100
AcDbSymbolTableRecord
100
AcDbBlockTableRecord
  2
SW_NOTE_0_22
340
0
102
{BLKREFS
331
28B
102
}
 70
     0
280
     1
281
     0
  0
BLOCK_RECORD
  5
28D
330
1
100
AcDbSymbolTableRecord
100
AcDbBlockTableRecord
  2
SW_NOTE_0_23
340
0
102
{BLKREFS
331
292
102
}
 70
     0
280
     1
281
     0
  0
BLOCK_RECORD
  5
293
330
1
100
AcDbSymbolTableRecord
100
AcDbBlockTableRecord
  2
SW_NOTE_0_24
340
0
102
{BLKREFS
331
298
102
}
 70
     0
280
     1
281
     0
  0
BLOCK_RECORD
  5
2A4
330
1
100
AcDbSymbolTableRecord
100
AcDbBlockTableRecord
  2
SW_SFSYMBOL_0
340
0
102
{BLKREFS
331
2AA
102
}
 70
     0
280
     1
281
     0
  0
BLOCK_RECORD
  5
2AB
330
1
100
AcDbSymbolTableRecord
100
AcDbBlockTableRecord
  2
SW_SFSYMBOL_1
340
0
102
{BLKREFS
331
2B3
102
}
 70
     0
280
     1
281
     0
  0
BLOCK_RECORD
  5
2B4
330
1
100
AcDbSymbolTableRecord
100
AcDbBlockTableRecord
  2
SW_SFSYMBOL_2
340
0
102
{BLKREFS
331
2BC
102
}
 70
     0
280
     1
281
     0
  0
BLOCK_RECORD
  5
2D3
330
1
100
AcDbSymbolTableRecord
100
AcDbBlockTableRecord
  2
SW_DOWELSYMBOL_0
340
0
102
{BLKREFS
331
2D9
102
}
 70
     0
280
     1
281
     0
  0
BLOCK_RECORD
  5
2DA
330
1
100
AcDbSymbolTableRecord
100
AcDbBlockTableRecord
  2
SW_DOWELSYMBOL_1
340
0
102
{BLKREFS
331
2E0
102
}
 70
     0
280
     1
281
     0
  0
BLOCK_RECORD
  5
2E1
330
1
100
AcDbSymbolTableRecord
100
AcDbBlockTableRecord
  2
SW_DOWELSYMBOL_2
340
0
102
{BLKREFS
331
2E7
102
}
 70
     0
280
     1
281
     0
  0
BLOCK_RECORD
  5
2E8
330
1
100
AcDbSymbolTableRecord
100
AcDbBlockTableRecord
  2
SW_DOWELSYMBOL_3
340
0
102
{BLKREFS
331
2EE
102
}
 70
     0
280
     1
281
     0
  0
ENDTAB
  0
ENDSEC
  0
SECTION
  2
BLOCKS
  0
BLOCK
  5
20
330
1F
100
AcDbEntity
  8
0
100
AcDbBlockBegin
  2
*Model_Space
 70
     0
 10
0.0
 20
0.0
 30
0.0
  3
*Model_Space
  1

  0
ENDBLK
  5
21
330
1F
100
AcDbEntity
  8
0
100
AcDbBlockEnd
  0
BLOCK
  5
1C
330
1B
100
AcDbEntity
 67
     1
  8
0
100
AcDbBlockBegin
  2
*Paper_Space
 70
     0
 10
0.0
 20
0.0
 30
0.0
  3
*Paper_Space
  1

  0
ENDBLK
  5
1D
330
1B
100
AcDbEntity
 67
     1
  8
0
100
AcDbBlockEnd
  0
BLOCK
  5
24
330
23
100
AcDbEntity
  8
0
100
AcDbBlockBegin
  2
*Paper_Space0
 70
     0
 10
0.0
 20
0.0
 30
0.0
  3
*Paper_Space0
  1

  0
ENDBLK
  5
25
330
23
100
AcDbEntity
  8
0
100
AcDbBlockEnd
  0
BLOCK
  5
6E
330
6D
100
AcDbEntity
  8
0
100
AcDbBlockBegin
  2
SW_HATCH_0
 70
     0
 10
0.0
 20
0.0
 30
0.0
  3
SW_HATCH_0
  1

  0
LINE
  5
70
330
6D
100
AcDbEntity
  8
0
  6
Continuous
 62
     0
370
    18
100
AcDbLine
 10
0.0
 20
0.0
 30
0.0
 11
-1.8304234682
 21
-1.8304234682
 31
0.0
  0
LINE
  5
71
330
6D
100
AcDbEntity
  8
0
  6
Continuous
 62
     0
370
    18
100
AcDbLine
 10
0.0439926953
 20
-4.4461353653
 30
0.0
 11
-3.0948402728
 21
-7.5849683333
 31
0.0
  0
ENDBLK
  5
6F
330
6D
100
AcDbEntity
  8
0
100
AcDbBlockEnd
  0
BLOCK
  5
74
330
73
100
AcDbEntity
  8
0
100
AcDbBlockBegin
  2
SW_HATCH_1
 70
     0
 10
0.0
 20
0.0
 30
0.0
  3
SW_HATCH_1
  1

  0
LINE
  5
76
330
73
100
AcDbEntity
  8
0
  6
Continuous
 62
     0
370
    18
100
AcDbLine
 10
0.0
 20
0.0
 30
0.0
 11
-3.8955311168
 21
-3.8955311168
 31
0.0
  0
ENDBLK
  5
75
330
73
100
AcDbEntity
  8
0
100
AcDbBlockEnd
  0
BLOCK
  5
79
330
78
100
AcDbEntity
  8
0
100
AcDbBlockBegin
  2
SW_HATCH_2
 70
     0
 10
0.0
 20
0.0
 30
0.0
  3
SW_HATCH_2
  1

  0
LINE
  5
7B
330
78
100
AcDbEntity
  8
0
  6
Continuous
 62
     0
370
    18
100
AcDbLine
 10
0.0
 20
0.0
 30
0.0
 11
-0.3794163179
 21
-0.3794163179
 31
0.0
  0
LINE
  5
7C
330
78
100
AcDbEntity
  8
0
  6
Continuous
 62
     0
370
    18
100
AcDbLine
 10
3.9172488482
 20
-0.5728792124
 30
0.0
 11
1.3430105093
 21
-3.1471175512
 31
0.0
  0
LINE
  5
7D
330
78
100
AcDbEntity
  8
0
  6
Continuous
 62
     0
370
    18
100
AcDbLine
 10
7.8344976964
 20
-1.1457584247
 30
0.0
 11
7.432602933
 21
-1.547653188
 31
0.0
  0
ENDBLK
  5
7A
330
78
100
AcDbEntity
  8
0
100
AcDbBlockEnd
  0
BLOCK
  5
80
330
7F
100
AcDbEntity
  8
0
100
AcDbBlockBegin
  2
SW_HATCH_3
 70
     0
 10
0.0
 20
0.0
 30
0.0
  3
SW_HATCH_3
  1

  0
LINE
  5
82
330
7F
100
AcDbEntity
  8
0
  6
Continuous
 62
     0
370
    18
100
AcDbLine
 10
0.0
 20
0.0
 30
0.0
 11
-1.7714400608
 21
-1.7714400608
 31
0.0
  0
LINE
  5
83
330
7F
100
AcDbEntity
  8
0
  6
Continuous
 62
     0
370
    18
100
AcDbLine
 10
2.488965058
 20
-2.0011630025
 30
0.0
 11
1.642954497
 21
-2.8471735635
 31
0.0
  0
ENDBLK
  5
81
330
7F
100
AcDbEntity
  8
0
100
AcDbBlockEnd
  0
BLOCK
  5
86
330
85
100
AcDbEntity
  8
0
100
AcDbBlockBegin
  2
SW_HATCH_4
 70
     0
 10
0.0
 20
0.0
 30
0.0
  3
SW_HATCH_4
  1

  0
LINE
  5
88
330
85
100
AcDbEntity
  8
0
  6
Continuous
 62
     0
370
    18
100
AcDbLine
 10
0.0
 20
0.0
 30
0.0
 11
-1.5596854001
 21
-1.5596854001
 31
0.0
  0
LINE
  5
89
330
85
100
AcDbEntity
  8
0
  6
Continuous
 62
     0
370
    18
100
AcDbLine
 10
1.1208206272
 20
-3.3693074334
 30
0.0
 11
0.4602643131
 21
-4.0298637474
 31
0.0
  0
ENDBLK
  5
87
330
85
100
AcDbEntity
  8
0
100
AcDbBlockEnd
  0
BLOCK
  5
8C
330
8B
100
AcDbEntity
  8
0
100
AcDbBlockBegin
  2
SW_HATCH_5
 70
     0
 10
0.0
 20
0.0
 30
0.0
  3
SW_HATCH_5
  1

  0
LINE
  5
8E
330
8B
100
AcDbEntity
  8
0
  6
Continuous
 62
     0
370
    18
100
AcDbLine
 10
0.0
 20
0.0
 30
0.0
 11
-1.3818240382
 21
-1.3818240382
 31
0.0
  0
LINE
  5
8F
330
8B
100
AcDbEntity
  8
0
  6
Continuous
 62
     0
370
    18
100
AcDbLine
 10
0.36421935
 20
-4.1259087105
 30
0.0
 11
-0.8471916388
 21
-5.3373196993
 31
0.0
  0
ENDBLK
  5
8D
330
8B
100
AcDbEntity
  8
0
100
AcDbBlockEnd
  0
BLOCK
  5
92
330
91
100
AcDbEntity
  8
0
100
AcDbBlockBegin
  2
SW_HATCH_6
 70
     0
 10
0.0
 20
0.0
 30
0.0
  3
SW_HATCH_6
  1

  0
LINE
  5
94
330
91
100
AcDbEntity
  8
0
  6
Continuous
 62
     0
370
    18
100
AcDbLine
 10
0.0
 20
0.0
 30
0.0
 11
-1.3740894083
 21
-1.3740894083
 31
0.0
  0
LINE
  5
95
330
91
100
AcDbEntity
  8
0
  6
Continuous
 62
     0
370
    18
100
AcDbLine
 10
3.6675319532
 20
-0.8225961073
 30
0.0
 11
3.1402267379
 21
-1.3499013226
 31
0.0
  0
ENDBLK
  5
93
330
91
100
AcDbEntity
  8
0
100
AcDbBlockEnd
  0
BLOCK
  5
98
330
97
100
AcDbEntity
  8
0
100
AcDbBlockBegin
  2
SW_HATCH_7
 70
     0
 10
0.0
 20
0.0
 30
0.0
  3
SW_HATCH_7
  1

  0
LINE
  5
9A
330
97
100
AcDbEntity
  8
0
  6
Continuous
 62
     0
370
    18
100
AcDbLine
 10
0.0
 20
0.0
 30
0.0
 11
-3.1157446378
 21
-3.1157446378
 31
0.0
  0
LINE
  5
9B
330
97
100
AcDbEntity
  8
0
  6
Continuous
 62
     0
370
    18
100
AcDbLine
 10
0.0439926953
 20
-4.4461353653
 30
0.0
 11
-1.8640840861
 21
-6.3542121466
 31
0.0
  0
ENDBLK
  5
99
330
97
100
AcDbEntity
  8
0
100
AcDbBlockEnd
  0
BLOCK
  5
9E
330
9D
100
AcDbEntity
  8
0
100
AcDbBlockBegin
  2
SW_HATCH_8
 70
     0
 10
0.0
 20
0.0
 30
0.0
  3
SW_HATCH_8
  1

  0
LINE
  5
A0
330
9D
100
AcDbEntity
  8
0
  6
Continuous
 62
     0
370
    18
100
AcDbLine
 10
0.0
 20
0.0
 30
0.0
 11
-6.651942143
 21
-6.651942143
 31
0.0
  0
ENDBLK
  5
9F
330
9D
100
AcDbEntity
  8
0
100
AcDbBlockEnd
  0
BLOCK
  5
A3
330
A2
100
AcDbEntity
  8
0
100
AcDbBlockBegin
  2
SW_HATCH_9
 70
     0
 10
0.0
 20
0.0
 30
0.0
  3
SW_HATCH_9
  1

  0
LINE
  5
A5
330
A2
100
AcDbEntity
  8
0
  6
Continuous
 62
     0
370
    18
100
AcDbLine
 10
0.0
 20
0.0
 30
0.0
 11
-1.8153364123
 21
-1.8153364123
 31
0.0
  0
LINE
  5
A6
330
A2
100
AcDbEntity
  8
0
  6
Continuous
 62
     0
370
    18
100
AcDbLine
 10
3.9172488482
 20
-0.5728792124
 30
0.0
 11
2.1107646069
 21
-2.3793634536
 31
0.0
  0
ENDBLK
  5
A4
330
A2
100
AcDbEntity
  8
0
100
AcDbBlockEnd
  0
BLOCK
  5
A9
330
A8
100
AcDbEntity
  8
0
100
AcDbBlockBegin
  2
SW_HATCH_10
 70
     0
 10
0.0
 20
0.0
 30
0.0
  3
SW_HATCH_10
  1

  0
LINE
  5
AB
330
A8
100
AcDbEntity
  8
0
  6
Continuous
 62
     0
370
    18
100
AcDbLine
 10
0.0
 20
0.0
 30
0.0
 11
-0.5622227128
 21
-0.5622227128
 31
0.0
  0
LINE
  5
AC
330
A8
100
AcDbEntity
  8
0
  6
Continuous
 62
     0
370
    18
100
AcDbLine
 10
2.488965058
 20
-2.0011630025
 30
0.0
 11
1.0445921787
 21
-3.4455358818
 31
0.0
  0
LINE
  5
AD
330
A8
100
AcDbEntity
  8
0
  6
Continuous
 62
     0
370
    18
100
AcDbLine
 10
4.977930116
 20
-4.002326005
 30
0.0
 11
4.4589867365
 21
-4.5212693846
 31
0.0
  0
ENDBLK
  5
AA
330
A8
100
AcDbEntity
  8
0
100
AcDbBlockEnd
  0
BLOCK
  5
B0
330
AF
100
AcDbEntity
  8
0
100
AcDbBlockBegin
  2
SW_HATCH_11
 70
     0
 10
0.0
 20
0.0
 30
0.0
  3
SW_HATCH_11
  1

  0
LINE
  5
B2
330
AF
100
AcDbEntity
  8
0
  6
Continuous
 62
     0
370
    18
100
AcDbLine
 10
0.0
 20
0.0
 30
0.0
 11
-0.9916706548
 21
-0.9916706548
 31
0.0
  0
LINE
  5
B3
330
AF
100
AcDbEntity
  8
0
  6
Continuous
 62
     0
370
    18
100
AcDbLine
 10
2.270192423
 20
-2.2199356376
 30
0.0
 11
1.0282790584
 21
-3.4618490021
 31
0.0
  0
LINE
  5
B4
330
AF
100
AcDbEntity
  8
0
  6
Continuous
 62
     0
370
    18
100
AcDbLine
 10
3.3910130501
 20
-5.5892430709
 30
0.0
 11
3.0482287717
 21
-5.9320273494
 31
0.0
  0
ENDBLK
  5
B1
330
AF
100
AcDbEntity
  8
0
100
AcDbBlockEnd
  0
BLOCK
  5
B7
330
B6
100
AcDbEntity
  8
0
100
AcDbBlockBegin
  2
SW_HATCH_12
 70
     0
 10
0.0
 20
0.0
 30
0.0
  3
SW_HATCH_12
  1

  0
LINE
  5
B9
330
B6
100
AcDbEntity
  8
0
  6
Continuous
 62
     0
370
    18
100
AcDbLine
 10
0.0
 20
0.0
 30
0.0
 11
-2.5977724445
 21
-2.5977724445
 31
0.0
  0
LINE
  5
BA
330
B6
100
AcDbEntity
  8
0
  6
Continuous
 62
     0
370
    18
100
AcDbLine
 10
-1.6095196456
 20
-6.0996477062
 30
0.0
 11
-2.0631400451
 21
-6.5532681056
 31
0.0
  0
ENDBLK
  5
B8
330
B6
100
AcDbEntity
  8
0
100
AcDbBlockEnd
  0
BLOCK
  5
BD
330
BC
100
AcDbEntity
  8
0
100
AcDbBlockBegin
  2
SW_HATCH_13
 70
     0
 10
0.0
 20
0.0
 30
0.0
  3
SW_HATCH_13
  1

  0
LINE
  5
BF
330
BC
100
AcDbEntity
  8
0
  6
Continuous
 62
     0
370
    18
100
AcDbLine
 10
0.0
 20
0.0
 30
0.0
 11
-4.5616273363
 21
-4.5616273363
 31
0.0
  0
ENDBLK
  5
BE
330
BC
100
AcDbEntity
  8
0
100
AcDbBlockEnd
  0
BLOCK
  5
C2
330
C1
100
AcDbEntity
  8
0
100
AcDbBlockBegin
  2
SW_HATCH_14
 70
     0
 10
0.0
 20
0.0
 30
0.0
  3
SW_HATCH_14
  1

  0
LINE
  5
C4
330
C1
100
AcDbEntity
  8
0
  6
Continuous
 62
     0
370
    18
100
AcDbLine
 10
0.0
 20
0.0
 30
0.0
 11
-2.0622212377
 21
-2.0622212377
 31
0.0
  0
ENDBLK
  5
C3
330
C1
100
AcDbEntity
  8
0
100
AcDbBlockEnd
  0
BLOCK
  5
17F
330
17E
100
AcDbEntity
  8
0
100
AcDbBlockBegin
  2
SW_NOTE_0
 70
     0
 10
0.0
 20
0.0
 30
0.0
  3
SW_NOTE_0
  1

  0
MTEXT
  5
182
330
17E
100
AcDbEntity
  8
0
  6
Continuous
 62
     0
370
    18
100
AcDbMText
 10
0.0
 20
6.4453386989
 30
0.0
 40
5.0
 41
0.0
 46
0.0
 71
     1
 72
     1
  1
技术要求：  
  7
SLDTEXTSTYLE0
 73
     1
 44
1.0
  0
MTEXT
  5
183
330
17E
100
AcDbEntity
  8
0
  6
Continuous
 62
     0
370
    18
100
AcDbMText
 10
0.0
 20
0.4453386467
 30
0.0
 40
5.0
 41
0.0
 46
0.0
 71
     1
 72
     1
  1
1.去除毛刺，锐角倒钝。
  7
SLDTEXTSTYLE0
 73
     1
 44
1.0
  0
MTEXT
  5
184
330
17E
100
AcDbEntity
  8
0
  6
Continuous
 62
     0
370
    18
100
AcDbMText
 10
0.0
 20
-5.5546614054
 30
0.0
 40
5.0
 41
0.0
 46
0.0
 71
     1
 72
     1
  1
2.未注尺寸公差等级按X.X±0.1mm
  7
SLDTEXTSTYLE0
 73
     1
 44
1.0
  0
MTEXT
  5
185
330
17E
100
AcDbEntity
  8
0
  6
Continuous
 62
     0
370
    18
100
AcDbMText
 10
0.0
 20
-11.5546614576
 30
0.0
 40
5.0
 41
0.0
 46
0.0
 71
     1
 72
     1
  1
,X.XX±0.02mm,X.XXX±0.005mm。
  7
SLDTEXTSTYLE0
 73
     1
 44
1.0
  0
MTEXT
  5
186
330
17E
100
AcDbEntity
  8
0
  6
Continuous
 62
     0
370
    18
100
AcDbMText
 10
0.0
 20
-17.5546615098
 30
0.0
 40
5.0
 41
0.0
 46
0.0
 71
     1
 72
     1
  1
3.未注尺寸参照三维模型。
  7
SLDTEXTSTYLE0
 73
     1
 44
1.0
  0
ENDBLK
  5
180
330
17E
100
AcDbEntity
  8
0
100
AcDbBlockEnd
  0
BLOCK
  5
189
330
188
100
AcDbEntity
  8
0
100
AcDbBlockBegin
  2
SW_NOTE_0_1
 70
     0
 10
0.0
 20
0.0
 30
0.0
  3
SW_NOTE_0_1
  1

  0
MTEXT
  5
18B
330
188
100
AcDbEntity
  8
0
  6
Continuous
 62
     0
370
    18
100
AcDbMText
 10
0.0
 20
6.4453386989
 30
0.0
 40
5.0
 41
0.0
 46
0.0
 71
     1
 72
     1
  1
技术要求：
  7
SLDTEXTSTYLE0
 73
     1
 44
1.0
  0
MTEXT
  5
18C
330
188
100
AcDbEntity
  8
0
  6
Continuous
 62
     0
370
    18
100
AcDbMText
 10
0.0
 20
-0.0546614353
 30
0.0
 40
5.0
 41
0.0
 46
0.0
 71
     1
 72
     1
  1
1.去除毛刺，锐角倒钝。
  7
SLDTEXTSTYLE0
 73
     1
 44
1.0
  0
MTEXT
  5
18D
330
188
100
AcDbEntity
  8
0
  6
Continuous
 62
     0
370
    18
100
AcDbMText
 10
0.0
 20
-6.5546615694
 30
0.0
 40
5.0
 41
0.0
 46
0.0
 71
     1
 72
     1
  1
2.未注尺寸公差等级按GB/T 1804-f级
  7
SLDTEXTSTYLE0
 73
     1
 44
1.0
  0
MTEXT
  5
18E
330
188
100
AcDbEntity
  8
0
  6
Continuous
 62
     0
370
    18
100
AcDbMText
 10
0.0
 20
-13.0546617035
 30
0.0
 40
5.0
 41
0.0
 46
0.0
 71
     1
 72
     1
  1
3.未注尺寸参照三维模型。
  7
SLDTEXTSTYLE0
 73
     1
 44
1.0
  0
MTEXT
  5
18F
330
188
100
AcDbEntity
  8
0
  6
Continuous
 62
     0
370
    18
100
AcDbMText
 10
0.0
 20
-19.5546618376
 30
0.0
 40
5.0
 41
0.0
 46
0.0
 71
     1
 72
     1
  1
4.未注倒角C0.5
  7
SLDTEXTSTYLE0
 73
     1
 44
1.0
  0
ENDBLK
  5
18A
330
188
100
AcDbEntity
  8
0
100
AcDbBlockEnd
  0
BLOCK
  5
192
330
191
100
AcDbEntity
  8
0
100
AcDbBlockBegin
  2
SW_NOTE_0_2
 70
     0
 10
0.0
 20
0.0
 30
0.0
  3
SW_NOTE_0_2
  1

  0
MTEXT
  5
194
330
191
100
AcDbEntity
  8
0
  6
Continuous
 62
     0
370
    18
100
AcDbMText
 10
0.0
 20
6.4453386989
 30
0.0
 40
5.0
 41
0.0
 46
0.0
 71
     1
 72
     1
  1
装配要求：
  7
SLDTEXTSTYLE0
 73
     1
 44
1.0
  0
MTEXT
  5
195
330
191
100
AcDbEntity
  8
0
  6
Continuous
 62
     0
370
    18
100
AcDbMText
 10
0.0
 20
-0.0546614353
 30
0.0
 40
5.0
 41
0.0
 46
0.0
 71
     1
 72
     1
  1
1、 进入装配的零件及部件（包括外购件、外协件），均
  7
SLDTEXTSTYLE0
 73
     1
 44
1.0
  0
MTEXT
  5
196
330
191
100
AcDbEntity
  8
0
  6
Continuous
 62
     0
370
    18
100
AcDbMText
 10
0.0
 20
-6.5546615694
 30
0.0
 40
5.0
 41
0.0
 46
0.0
 71
     1
 72
     1
  1
必须具有检验部门的合格证方能进行装配。
  7
SLDTEXTSTYLE0
 73
     1
 44
1.0
  0
MTEXT
  5
197
330
191
100
AcDbEntity
  8
0
  6
Continuous
 62
     0
370
    18
100
AcDbMText
 10
0.0
 20
-13.0546617035
 30
0.0
 40
5.0
 41
0.0
 46
0.0
 71
     1
 72
     1
  1
2、 零件在装配前必须清理和清洗干净，不得有毛刺、飞边、
  7
SLDTEXTSTYLE0
 73
     1
 44
1.0
  0
MTEXT
  5
198
330
191
100
AcDbEntity
  8
0
  6
Continuous
 62
     0
370
    18
100
AcDbMText
 10
0.0
 20
-19.5546618376
 30
0.0
 40
5.0
 41
0.0
 46
0.0
 71
     1
 72
     1
  1
氧化皮、锈蚀、切屑、油污、着色剂和灰尘等。
  7
SLDTEXTSTYLE0
 73
     1
 44
1.0
  0
MTEXT
  5
199
330
191
100
AcDbEntity
  8
0
  6
Continuous
 62
     0
370
    18
100
AcDbMText
 10
0.0
 20
-26.0546619717
 30
0.0
 40
5.0
 41
0.0
 46
0.0
 71
     1
 72
     1
  1
3、 装配前应对零、部件的主要配合尺寸，特别是过盈配合
  7
SLDTEXTSTYLE0
 73
     1
 44
1.0
  0
MTEXT
  5
19A
330
191
100
AcDbEntity
  8
0
  6
Continuous
 62
     0
370
    18
100
AcDbMText
 10
0.0
 20
-32.5546621058
 30
0.0
 40
5.0
 41
0.0
 46
0.0
 71
     1
 72
     1
  1
尺寸及相关精度进行复查。
  7
SLDTEXTSTYLE0
 73
     1
 44
1.0
  0
MTEXT
  5
19B
330
191
100
AcDbEntity
  8
0
  6
Continuous
 62
     0
370
    18
100
AcDbMText
 10
0.0
 20
-39.0546622399
 30
0.0
 40
5.0
 41
0.0
 46
0.0
 71
     1
 72
     1
  1
4、 装配过程中零件不允许磕、碰、划伤和锈蚀。
  7
SLDTEXTSTYLE0
 73
     1
 44
1.0
  0
MTEXT
  5
19C
330
191
100
AcDbEntity
  8
0
  6
Continuous
 62
     0
370
    18
100
AcDbMText
 10
0.0
 20
-45.554662374
 30
0.0
 40
5.0
 41
0.0
 46
0.0
 71
     1
 72
     1
  1
5、 螺钉、螺栓和螺母紧固时，严禁打击或使用不合适的旋具和
  7
SLDTEXTSTYLE0
 73
     1
 44
1.0
  0
MTEXT
  5
19D
330
191
100
AcDbEntity
  8
0
  6
Continuous
 62
     0
370
    18
100
AcDbMText
 10
0.0
 20
-52.0546625081
 30
0.0
 40
5.0
 41
0.0
 46
0.0
 71
     1
 72
     1
  1
扳手。紧固后螺钉槽、螺母和螺钉、螺栓头部不得损坏。
  7
SLDTEXTSTYLE0
 73
     1
 44
1.0
  0
MTEXT
  5
19E
330
191
100
AcDbEntity
  8
0
  6
Continuous
 62
     0
370
    18
100
AcDbMText
 10
0.0
 20
-58.5546626422
 30
0.0
 40
5.0
 41
0.0
 46
0.0
 71
     1
 72
     1
  1
6、 规定拧紧力矩要求的紧固件，必须采用力矩扳手，并按
  7
SLDTEXTSTYLE0
 73
     1
 44
1.0
  0
MTEXT
  5
19F
330
191
100
AcDbEntity
  8
0
  6
Continuous
 62
     0
370
    18
100
AcDbMText
 10
0.0
 20
-65.0546627764
 30
0.0
 40
5.0
 41
0.0
 46
0.0
 71
     1
 72
     1
  1
规定的拧紧力矩紧固。
  7
SLDTEXTSTYLE0
 73
     1
 44
1.0
  0
ENDBLK
  5
193
330
191
100
AcDbEntity
  8
0
100
AcDbBlockEnd
  0
BLOCK
  5
1A2
330
1A1
100
AcDbEntity
  8
0
100
AcDbBlockBegin
  2
SW_NOTE_0_3
 70
     0
 10
0.0
 20
0.0
 30
0.0
  3
SW_NOTE_0_3
  1

  0
MTEXT
  5
1A4
330
1A1
100
AcDbEntity
  8
0
  6
Continuous
 62
     0
370
    18
100
AcDbMText
 10
0.0
 20
6.4453386989
 30
0.0
 40
5.0
 41
0.0
 46
0.0
 71
     1
 72
     1
  1
技术要求：
  7
SLDTEXTSTYLE0
 73
     1
 44
1.0
  0
MTEXT
  5
1A5
330
1A1
100
AcDbEntity
  8
0
  6
Continuous
 62
     0
370
    18
100
AcDbMText
 10
0.0
 20
0.4453386467
 30
0.0
 40
5.0
 41
0.0
 46
0.0
 71
     1
 72
     1
  1
1、整体焊接处理
  7
SLDTEXTSTYLE0
 73
     1
 44
1.0
  0
MTEXT
  5
1A6
330
1A1
100
AcDbEntity
  8
0
  6
Continuous
 62
     0
370
    18
100
AcDbMText
 10
0.0
 20
-5.5546614054
 30
0.0
 40
5.0
 41
0.0
 46
0.0
 71
     1
 72
     1
  1
2、焊接牢固，不允许有脱焊现象出现
  7
SLDTEXTSTYLE0
 73
     1
 44
1.0
  0
MTEXT
  5
1A7
330
1A1
100
AcDbEntity
  8
0
  6
Continuous
 62
     0
370
    18
100
AcDbMText
 10
0.0
 20
-11.5546614576
 30
0.0
 40
5.0
 41
0.0
 46
0.0
 71
     1
 72
     1
  1
3、去除焊渣，焊缝美观，焊缝大小不得超过装配尺寸
  7
SLDTEXTSTYLE0
 73
     1
 44
1.0
  0
MTEXT
  5
1A8
330
1A1
100
AcDbEntity
  8
0
  6
Continuous
 62
     0
370
    18
100
AcDbMText
 10
0.0
 20
-17.5546615098
 30
0.0
 40
5.0
 41
0.0
 46
0.0
 71
     1
 72
     1
  1
4、焊后检查整体尺寸，不得有明显变形，尺寸超差
  7
SLDTEXTSTYLE0
 73
     1
 44
1.0
  0
MTEXT
  5
1A9
330
1A1
100
AcDbEntity
  8
0
  6
Continuous
 62
     0
370
    18
100
AcDbMText
 10
0.0
 20
-23.5546615619
 30
0.0
 40
5.0
 41
0.0
 46
0.0
 71
     1
 72
     1
  1
5、焊后整体喷塑处理，颜色RAL   
  7
SLDTEXTSTYLE0
 73
     1
 44
1.0
  0
MTEXT
  5
1AA
330
1A1
100
AcDbEntity
  8
0
  6
Continuous
 62
     0
370
    18
100
AcDbMText
 10
0.0
 20
-29.5546616141
 30
0.0
 40
5.0
 41
0.0
 46
0.0
 71
     1
 72
     1
  1
，漆膜均匀，漆粉用防静电漆粉，
  7
SLDTEXTSTYLE0
 73
     1
 44
1.0
  0
MTEXT
  5
1AB
330
1A1
100
AcDbEntity
  8
0
  6
Continuous
 62
     0
370
    18
100
AcDbMText
 10
0.0
 20
-35.5546616662
 30
0.0
 40
5.0
 41
0.0
 46
0.0
 71
     1
 72
     1
  1
6、注意喷塑处理压铆焊接螺纹的保护
  7
SLDTEXTSTYLE0
 73
     1
 44
1.0
  0
ENDBLK
  5
1A3
330
1A1
100
AcDbEntity
  8
0
100
AcDbBlockEnd
  0
BLOCK
  5
1AE
330
1AD
100
AcDbEntity
  8
0
100
AcDbBlockBegin
  2
SW_NOTE_0_4
 70
     0
 10
0.0
 20
0.0
 30
0.0
  3
SW_NOTE_0_4
  1

  0
MTEXT
  5
1B0
330
1AD
100
AcDbEntity
  8
0
  6
Continuous
 62
     0
370
    18
100
AcDbMText
 10
0.0
 20
6.4453386989
 30
0.0
 40
5.0
 41
0.0
 46
0.0
 71
     1
 72
     1
  1
丝印技术要求：
  7
SLDTEXTSTYLE0
 73
     1
 44
1.0
  0
MTEXT
  5
1B1
330
1AD
100
AcDbEntity
  8
0
  6
Continuous
 62
     0
370
    18
100
AcDbMText
 10
0.0
 20
0.4453386467
 30
0.0
 40
5.0
 41
0.0
 46
0.0
 71
     1
 72
     1
  1
1、印刷字符及色块的边缘不清晰度不大于0.1mm
  7
SLDTEXTSTYLE0
 73
     1
 44
1.0
  0
MTEXT
  5
1B2
330
1AD
100
AcDbEntity
  8
0
  6
Continuous
 62
     0
370
    18
100
AcDbMText
 10
0.0
 20
-5.5546614054
 30
0.0
 40
5.0
 41
0.0
 46
0.0
 71
     1
 72
     1
  1
2、颜色均匀一致
  7
SLDTEXTSTYLE0
 73
     1
 44
1.0
  0
MTEXT
  5
1B3
330
1AD
100
AcDbEntity
  8
0
  6
Continuous
 62
     0
370
    18
100
AcDbMText
 10
0.0
 20
-11.5546614576
 30
0.0
 40
5.0
 41
0.0
 46
0.0
 71
     1
 72
     1
  1
3、不允许有图案、字体不清晰、不端正、不完整、拖墨，
  7
SLDTEXTSTYLE0
 73
     1
 44
1.0
  0
MTEXT
  5
1B4
330
1AD
100
AcDbEntity
  8
0
  6
Continuous
 62
     0
370
    18
100
AcDbMText
 10
0.0
 20
-17.5546615098
 30
0.0
 40
5.0
 41
0.0
 46
0.0
 71
     1
 72
     1
  1
   漏印，错位，重叠，少墨等不良现象
  7
SLDTEXTSTYLE0
 73
     1
 44
1.0
  0
MTEXT
  5
1B5
330
1AD
100
AcDbEntity
  8
0
  6
Continuous
 62
     0
370
    18
100
AcDbMText
 10
0.0
 20
-23.5546615619
 30
0.0
 40
5.0
 41
0.0
 46
0.0
 71
     1
 72
     1
  1
4、附着力，耐汽油耐摩擦良好
  7
SLDTEXTSTYLE0
 73
     1
 44
1.0
  0
ENDBLK
  5
1AF
330
1AD
100
AcDbEntity
  8
0
100
AcDbBlockEnd
  0
BLOCK
  5
1B8
330
1B7
100
AcDbEntity
  8
0
100
AcDbBlockBegin
  2
SW_NOTE_0_5
 70
     0
 10
0.0
 20
0.0
 30
0.0
  3
SW_NOTE_0_5
  1

  0
MTEXT
  5
1BA
330
1B7
100
AcDbEntity
  8
0
  6
Continuous
 62
     0
370
    18
100
AcDbMText
 10
0.0
 20
6.4453386989
 30
0.0
 40
5.0
 41
0.0
 46
0.0
 71
     1
 72
     1
  1
技术要求：
  7
SLDTEXTSTYLE0
 73
     1
 44
1.0
  0
MTEXT
  5
1BB
330
1B7
100
AcDbEntity
  8
0
  6
Continuous
 62
     0
370
    18
100
AcDbMText
 10
0.0
 20
0.4453386467
 30
0.0
 40
5.0
 41
0.0
 46
0.0
 71
     1
 72
     1
  1
1.去除毛刺，锐角倒钝；
  7
SLDTEXTSTYLE0
 73
     1
 44
1.0
  0
MTEXT
  5
1BC
330
1B7
100
AcDbEntity
  8
0
  6
Continuous
 62
     0
370
    18
100
AcDbMText
 10
0.0
 20
-5.5546614054
 30
0.0
 40
5.0
 41
0.0
 46
0.0
 71
     1
 72
     1
  1
2.未注尺寸公差按GB/T1804-2000 m级；
  7
SLDTEXTSTYLE0
 73
     1
 44
1.0
  0
MTEXT
  5
1BD
330
1B7
100
AcDbEntity
  8
0
  6
Continuous
 62
     0
370
    18
100
AcDbMText
 10
0.0
 20
-11.5546614576
 30
0.0
 40
5.0
 41
0.0
 46
0.0
 71
     1
 72
     1
  1
3.所有拼角焊缝内外满焊，不可有虚焊
  7
SLDTEXTSTYLE0
 73
     1
 44
1.0
  0
MTEXT
  5
1BE
330
1B7
100
AcDbEntity
  8
0
  6
Continuous
 62
     0
370
    18
100
AcDbMText
 10
0.0
 20
-17.5546615098
 30
0.0
 40
5.0
 41
0.0
 46
0.0
 71
     1
 72
     1
  1
、漏焊、假焊等缺陷；
  7
SLDTEXTSTYLE0
 73
     1
 44
1.0
  0
MTEXT
  5
1BF
330
1B7
100
AcDbEntity
  8
0
  6
Continuous
 62
     0
370
    18
100
AcDbMText
 10
0.0
 20
-23.5546615619
 30
0.0
 40
5.0
 41
0.0
 46
0.0
 71
     1
 72
     1
  1
4.表面喷塑；
  7
SLDTEXTSTYLE0
 73
     1
 44
1.0
  0
ENDBLK
  5
1B9
330
1B7
100
AcDbEntity
  8
0
100
AcDbBlockEnd
  0
BLOCK
  5
1C2
330
1C1
100
AcDbEntity
  8
0
100
AcDbBlockBegin
  2
SW_NOTE_0_6
 70
     0
 10
0.0
 20
0.0
 30
0.0
  3
SW_NOTE_0_6
  1

  0
MTEXT
  5
1C4
330
1C1
100
AcDbEntity
  8
0
  6
Continuous
 62
     0
370
    18
100
AcDbMText
 10
0.0
 20
6.4453386989
 30
0.0
 40
5.0
 41
0.0
 46
0.0
 71
     1
 72
     1
  1
技术要求：
  7
SLDTEXTSTYLE0
 73
     1
 44
1.0
  0
MTEXT
  5
1C5
330
1C1
100
AcDbEntity
  8
0
  6
Continuous
 62
     0
370
    18
100
AcDbMText
 10
0.0
 20
-0.0546614353
 30
0.0
 40
5.0
 41
0.0
 46
0.0
 71
     1
 72
     1
  1
1.去除毛刺，锐角倒钝。
  7
SLDTEXTSTYLE0
 73
     1
 44
1.0
  0
MTEXT
  5
1C6
330
1C1
100
AcDbEntity
  8
0
  6
Continuous
 62
     0
370
    18
100
AcDbMText
 10
0.0
 20
-6.5546615694
 30
0.0
 40
5.0
 41
0.0
 46
0.0
 71
     1
 72
     1
  1
2.未注尺寸公差等级按GB/T 1804-m级
  7
SLDTEXTSTYLE0
 73
     1
 44
1.0
  0
MTEXT
  5
1C7
330
1C1
100
AcDbEntity
  8
0
  6
Continuous
 62
     0
370
    18
100
AcDbMText
 10
0.0
 20
-13.0546617035
 30
0.0
 40
5.0
 41
0.0
 46
0.0
 71
     1
 72
     1
  1
3.表面平整，无污渍
  7
SLDTEXTSTYLE0
 73
     1
 44
1.0
  0
ENDBLK
  5
1C3
330
1C1
100
AcDbEntity
  8
0
100
AcDbBlockEnd
  0
BLOCK
  5
200
330
1FF
100
AcDbEntity
  8
0
100
AcDbBlockBegin
  2
SW_NOTE_0_7
 70
     0
 10
0.0
 20
0.0
 30
0.0
  3
SW_NOTE_0_7
  1

  0
MTEXT
  5
202
330
1FF
100
AcDbEntity
  8
0
  6
Continuous
 62
     0
370
    18
100
AcDbMText
 10
0.0
 20
3.0787878788
 30
0.0
 40
2.6458333333
 41
0.0
 46
0.0
 71
     1
 72
     1
  1
所有
  7
SLDTEXTSTYLE2
 73
     1
 44
1.0
  0
MTEXT
  5
203
330
1FF
100
AcDbEntity
  8
0
  6
Continuous
 62
     0
370
    18
100
AcDbMText
 10
0.0
 20
-0.4489898564
 30
0.0
 40
2.6458333333
 41
0.0
 46
0.0
 71
     1
 72
     1
  1
螺纹
  7
SLDTEXTSTYLE2
 73
     1
 44
1.0
  0
MTEXT
  5
204
330
1FF
100
AcDbEntity
  8
0
  6
Continuous
 62
     0
370
    18
100
AcDbMText
 10
0.0
 20
-3.9767675915
 30
0.0
 40
2.6458333333
 41
0.0
 46
0.0
 71
     1
 72
     1
  1
规格
  7
SLDTEXTSTYLE2
 73
     1
 44
1.0
  0
MTEXT
  5
205
330
1FF
100
AcDbEntity
  8
0
  6
Continuous
 62
     0
370
    18
100
AcDbMText
 10
0.0
 20
-7.5045453266
 30
0.0
 40
2.6458333333
 41
0.0
 46
0.0
 71
     1
 72
     1
  1
等级
  7
SLDTEXTSTYLE2
 73
     1
 44
1.0
  0
MTEXT
  5
206
330
1FF
100
AcDbEntity
  8
0
  6
Continuous
 62
     0
370
    18
100
AcDbMText
 10
0.0
 20
-11.0323230618
 30
0.0
 40
2.6458333333
 41
0.0
 46
0.0
 71
     1
 72
     1
  1
通用
  7
SLDTEXTSTYLE2
 73
     1
 44
1.0
  0
MTEXT
  5
207
330
1FF
100
AcDbEntity
  8
0
  6
Continuous
 62
     0
370
    18
100
AcDbMText
 10
0.0
 20
-14.5601007969
 30
0.0
 40
2.6458333333
 41
0.0
 46
0.0
 71
     1
 72
     1
  1
螺纹
  7
SLDTEXTSTYLE2
 73
     1
 44
1.0
  0
ENDBLK
  5
201
330
1FF
100
AcDbEntity
  8
0
100
AcDbBlockEnd
  0
BLOCK
  5
20A
330
209
100
AcDbEntity
  8
0
100
AcDbBlockBegin
  2
SW_NOTE_0_8
 70
     0
 10
0.0
 20
0.0
 30
0.0
  3
SW_NOTE_0_8
  1

  0
MTEXT
  5
20D
330
209
100
AcDbEntity
  8
0
  6
Continuous
 62
     0
370
    18
100
AcDbMText
 10
0.0
 20
3.0787878788
 30
0.0
 40
2.6458333333
 41
0.0
 46
0.0
 71
     1
 72
     1
  1
上述为线性
  7
SLDTEXTSTYLE10
 73
     1
 44
1.0
  0
MTEXT
  5
20E
330
209
100
AcDbEntity
  8
0
  6
Continuous
 62
     0
370
    18
100
AcDbMText
 10
0.0
 20
-0.4489898564
 30
0.0
 40
2.6458333333
 41
0.0
 46
0.0
 71
     1
 72
     1
  1
尺寸的一般
  7
SLDTEXTSTYLE10
 73
     1
 44
1.0
  0
MTEXT
  5
20F
330
209
100
AcDbEntity
  8
0
  6
Continuous
 62
     0
370
    18
100
AcDbMText
 10
0.0
 20
-3.9767675915
 30
0.0
 40
2.6458333333
 41
0.0
 46
0.0
 71
     1
 72
     1
  1
公差，角度
  7
SLDTEXTSTYLE10
 73
     1
 44
1.0
  0
MTEXT
  5
210
330
209
100
AcDbEntity
  8
0
  6
Continuous
 62
     0
370
    18
100
AcDbMText
 10
0.0
 20
-7.5045453266
 30
0.0
 40
2.6458333333
 41
0.0
 46
0.0
 71
     1
 72
     1
  1
尺寸、倒角
  7
SLDTEXTSTYLE10
 73
     1
 44
1.0
  0
MTEXT
  5
211
330
209
100
AcDbEntity
  8
0
  6
Continuous
 62
     0
370
    18
100
AcDbMText
 10
0.0
 20
-11.0323230618
 30
0.0
 40
2.6458333333
 41
0.0
 46
0.0
 71
     1
 72
     1
  1
公差请详查
  7
SLDTEXTSTYLE10
 73
     1
 44
1.0
  0
MTEXT
  5
212
330
209
100
AcDbEntity
  8
0
  6
Continuous
 62
     0
370
    18
100
AcDbMText
 10
0.0
 20
-14.5601007969
 30
0.0
 40
2.6458333333
 41
0.0
 46
0.0
 71
     1
 72
     1
  1
一般公差
  7
SLDTEXTSTYLE10
 73
     1
 44
1.0
  0
MTEXT
  5
214
330
209
100
AcDbEntity
  8
0
  6
Continuous
 62
     0
370
    18
100
AcDbMText
 10
0.0
 20
-18.0878785321
 30
0.0
 40
2.6458333333
 41
0.0
 46
0.0
 71
     1
 72
     1
  1
GB/T 1804-
  7
SLDTEXTSTYLE11
 73
     1
 44
1.0
  0
MTEXT
  5
215
330
209
100
AcDbEntity
  8
0
  6
Continuous
 62
     0
370
    18
100
AcDbMText
 10
0.0
 20
-21.6156562672
 30
0.0
 40
2.6458333333
 41
0.0
 46
0.0
 71
     1
 72
     1
  1
2000
  7
SLDTEXTSTYLE11
 73
     1
 44
1.0
  0
ENDBLK
  5
20B
330
209
100
AcDbEntity
  8
0
100
AcDbBlockEnd
  0
BLOCK
  5
218
330
217
100
AcDbEntity
  8
0
100
AcDbBlockBegin
  2
SW_NOTE_0_9
 70
     0
 10
0.0
 20
0.0
 30
0.0
  3
SW_NOTE_0_9
  1

  0
MTEXT
  5
21B
330
217
100
AcDbEntity
  8
0
  6
Continuous
 62
     0
370
    18
100
AcDbMText
 10
-3.0787878788
 20
0.7854817708
 30
0.0
 40
2.6458333333
 41
0.0
 46
0.0
 71
     2
 72
     1
  1
%%p
  7
SLDTEXTSTYLE12
 11
-3.491481338843133E-15
 21
1.0
 31
0.0
 73
     1
 44
1.0
  0
MTEXT
  5
21C
330
217
100
AcDbEntity
  8
0
  6
Continuous
 62
     0
370
    18
100
AcDbMText
 10
-3.0787878788
 20
4.4731119536
 30
0.0
 40
2.6458333333
 41
0.0
 46
0.0
 71
     2
 72
     1
  1
0.3
  7
SLDTEXTSTYLE12
 11
-3.491481338843133E-15
 21
1.0
 31
0.0
 73
     1
 44
1.0
  0
ENDBLK
  5
219
330
217
100
AcDbEntity
  8
0
100
AcDbBlockEnd
  0
BLOCK
  5
220
330
21F
100
AcDbEntity
  8
0
100
AcDbBlockBegin
  2
SW_NOTE_0_10
 70
     0
 10
0.0
 20
0.0
 30
0.0
  3
SW_NOTE_0_10
  1

  0
MTEXT
  5
222
330
21F
100
AcDbEntity
  8
0
  6
Continuous
 62
     0
370
    18
100
AcDbMText
 10
-3.0787878788
 20
0.7854817708
 30
0.0
 40
2.6458333333
 41
0.0
 46
0.0
 71
     2
 72
     1
  1
%%p
  7
SLDTEXTSTYLE12
 11
-3.491481338843133E-15
 21
1.0
 31
0.0
 73
     1
 44
1.0
  0
MTEXT
  5
223
330
21F
100
AcDbEntity
  8
0
  6
Continuous
 62
     0
370
    18
100
AcDbMText
 10
-3.0787878788
 20
4.4731119536
 30
0.0
 40
2.6458333333
 41
0.0
 46
0.0
 71
     2
 72
     1
  1
0.8
  7
SLDTEXTSTYLE12
 11
-3.491481338843133E-15
 21
1.0
 31
0.0
 73
     1
 44
1.0
  0
ENDBLK
  5
221
330
21F
100
AcDbEntity
  8
0
100
AcDbBlockEnd
  0
BLOCK
  5
226
330
225
100
AcDbEntity
  8
0
100
AcDbBlockBegin
  2
SW_NOTE_0_11
 70
     0
 10
0.0
 20
0.0
 30
0.0
  3
SW_NOTE_0_11
  1

  0
MTEXT
  5
228
330
225
100
AcDbEntity
  8
0
  6
Continuous
 62
     0
370
    18
100
AcDbMText
 10
-3.0787878788
 20
0.7854817708
 30
0.0
 40
2.6458333333
 41
0.0
 46
0.0
 71
     2
 72
     1
  1
%%p
  7
SLDTEXTSTYLE12
 11
-3.491481338843133E-15
 21
1.0
 31
0.0
 73
     1
 44
1.0
  0
MTEXT
  5
229
330
225
100
AcDbEntity
  8
0
  6
Continuous
 62
     0
370
    18
100
AcDbMText
 10
-3.0787878788
 20
4.4731119536
 30
0.0
 40
2.6458333333
 41
0.0
 46
0.0
 71
     2
 72
     1
  1
0.2
  7
SLDTEXTSTYLE12
 11
-3.491481338843133E-15
 21
1.0
 31
0.0
 73
     1
 44
1.0
  0
ENDBLK
  5
227
330
225
100
AcDbEntity
  8
0
100
AcDbBlockEnd
  0
BLOCK
  5
22D
330
22C
100
AcDbEntity
  8
0
100
AcDbBlockBegin
  2
SW_NOTE_0_12
 70
     0
 10
0.0
 20
0.0
 30
0.0
  3
SW_NOTE_0_12
  1

  0
MTEXT
  5
22F
330
22C
100
AcDbEntity
  8
0
  6
Continuous
 62
     0
370
    18
100
AcDbMText
 10
-3.0787878788
 20
0.7854817708
 30
0.0
 40
2.6458333333
 41
0.0
 46
0.0
 71
     2
 72
     1
  1
%%p
  7
SLDTEXTSTYLE12
 11
-3.491481338843133E-15
 21
1.0
 31
0.0
 73
     1
 44
1.0
  0
MTEXT
  5
230
330
22C
100
AcDbEntity
  8
0
  6
Continuous
 62
     0
370
    18
100
AcDbMText
 10
-3.0787878788
 20
4.4731119536
 30
0.0
 40
2.6458333333
 41
0.0
 46
0.0
 71
     2
 72
     1
  1
0.5
  7
SLDTEXTSTYLE12
 11
-3.491481338843133E-15
 21
1.0
 31
0.0
 73
     1
 44
1.0
  0
ENDBLK
  5
22E
330
22C
100
AcDbEntity
  8
0
100
AcDbBlockEnd
  0
BLOCK
  5
233
330
232
100
AcDbEntity
  8
0
100
AcDbBlockBegin
  2
SW_NOTE_0_13
 70
     0
 10
0.0
 20
0.0
 30
0.0
  3
SW_NOTE_0_13
  1

  0
MTEXT
  5
235
330
232
100
AcDbEntity
  8
0
  6
Continuous
 62
     0
370
    18
100
AcDbMText
 10
-3.0787878788
 20
0.7854817708
 30
0.0
 40
2.6458333333
 41
0.0
 46
0.0
 71
     2
 72
     1
  1
%%p
  7
SLDTEXTSTYLE12
 11
-3.491481338843133E-15
 21
1.0
 31
0.0
 73
     1
 44
1.0
  0
MTEXT
  5
236
330
232
100
AcDbEntity
  8
0
  6
Continuous
 62
     0
370
    18
100
AcDbMText
 10
-3.0787878788
 20
5.2585937244
 30
0.0
 40
2.6458333333
 41
0.0
 46
0.0
 71
     2
 72
     1
  1
0.15
  7
SLDTEXTSTYLE12
 11
-3.491481338843133E-15
 21
1.0
 31
0.0
 73
     1
 44
1.0
  0
ENDBLK
  5
234
330
232
100
AcDbEntity
  8
0
100
AcDbBlockEnd
  0
BLOCK
  5
23A
330
239
100
AcDbEntity
  8
0
100
AcDbBlockBegin
  2
SW_NOTE_0_14
 70
     0
 10
0.0
 20
0.0
 30
0.0
  3
SW_NOTE_0_14
  1

  0
MTEXT
  5
23C
330
239
100
AcDbEntity
  8
0
  6
Continuous
 62
     0
370
    18
100
AcDbMText
 10
-3.0787878788
 20
0.7854817708
 30
0.0
 40
2.6458333333
 41
0.0
 46
0.0
 71
     2
 72
     1
  1
%%p
  7
SLDTEXTSTYLE12
 11
-3.491481338843133E-15
 21
1.0
 31
0.0
 73
     1
 44
1.0
  0
MTEXT
  5
23D
330
239
100
AcDbEntity
  8
0
  6
Continuous
 62
     0
370
    18
100
AcDbMText
 10
-3.0787878788
 20
4.4731119536
 30
0.0
 40
2.6458333333
 41
0.0
 46
0.0
 71
     2
 72
     1
  1
0.3
  7
SLDTEXTSTYLE12
 11
-3.491481338843133E-15
 21
1.0
 31
0.0
 73
     1
 44
1.0
  0
ENDBLK
  5
23B
330
239
100
AcDbEntity
  8
0
100
AcDbBlockEnd
  0
BLOCK
  5
240
330
23F
100
AcDbEntity
  8
0
100
AcDbBlockBegin
  2
SW_NOTE_0_15
 70
     0
 10
0.0
 20
0.0
 30
0.0
  3
SW_NOTE_0_15
  1

  0
MTEXT
  5
242
330
23F
100
AcDbEntity
  8
0
  6
Continuous
 62
     0
370
    18
100
AcDbMText
 10
-3.0787878788
 20
0.7854817708
 30
0.0
 40
2.6458333333
 41
0.0
 46
0.0
 71
     2
 72
     1
  1
%%p
  7
SLDTEXTSTYLE12
 11
-3.491481338843133E-15
 21
1.0
 31
0.0
 73
     1
 44
1.0
  0
MTEXT
  5
243
330
23F
100
AcDbEntity
  8
0
  6
Continuous
 62
     0
370
    18
100
AcDbMText
 10
-3.0787878788
 20
4.4731119536
 30
0.0
 40
2.6458333333
 41
0.0
 46
0.0
 71
     2
 72
     1
  1
0.1
  7
SLDTEXTSTYLE12
 11
-3.491481338843133E-15
 21
1.0
 31
0.0
 73
     1
 44
1.0
  0
ENDBLK
  5
241
330
23F
100
AcDbEntity
  8
0
100
AcDbBlockEnd
  0
BLOCK
  5
247
330
246
100
AcDbEntity
  8
0
100
AcDbBlockBegin
  2
SW_NOTE_0_16
 70
     0
 10
0.0
 20
0.0
 30
0.0
  3
SW_NOTE_0_16
  1

  0
MTEXT
  5
249
330
246
100
AcDbEntity
  8
0
  6
Continuous
 62
     0
370
    18
100
AcDbMText
 10
-3.0787878788
 20
0.7854817708
 30
0.0
 40
2.6458333333
 41
0.0
 46
0.0
 71
     2
 72
     1
  1
%%p
  7
SLDTEXTSTYLE12
 11
-3.491481338843133E-15
 21
1.0
 31
0.0
 73
     1
 44
1.0
  0
MTEXT
  5
24A
330
246
100
AcDbEntity
  8
0
  6
Continuous
 62
     0
370
    18
100
AcDbMText
 10
-3.0787878788
 20
4.4731119536
 30
0.0
 40
2.6458333333
 41
0.0
 46
0.0
 71
     2
 72
     1
  1
0.2
  7
SLDTEXTSTYLE12
 11
-3.491481338843133E-15
 21
1.0
 31
0.0
 73
     1
 44
1.0
  0
ENDBLK
  5
248
330
246
100
AcDbEntity
  8
0
100
AcDbBlockEnd
  0
BLOCK
  5
24E
330
24D
100
AcDbEntity
  8
0
100
AcDbBlockBegin
  2
SW_NOTE_0_17
 70
     0
 10
0.0
 20
0.0
 30
0.0
  3
SW_NOTE_0_17
  1

  0
MTEXT
  5
250
330
24D
100
AcDbEntity
  8
0
  6
Continuous
 62
     0
370
    18
100
AcDbMText
 10
-3.0787878788
 20
0.7854817708
 30
0.0
 40
2.6458333333
 41
0.0
 46
0.0
 71
     2
 72
     1
  1
%%p
  7
SLDTEXTSTYLE12
 11
-3.491481338843133E-15
 21
1.0
 31
0.0
 73
     1
 44
1.0
  0
MTEXT
  5
251
330
24D
100
AcDbEntity
  8
0
  6
Continuous
 62
     0
370
    18
100
AcDbMText
 10
-3.0787878788
 20
5.2585937244
 30
0.0
 40
2.6458333333
 41
0.0
 46
0.0
 71
     2
 72
     1
  1
0.05
  7
SLDTEXTSTYLE12
 11
-3.491481338843133E-15
 21
1.0
 31
0.0
 73
     1
 44
1.0
  0
ENDBLK
  5
24F
330
24D
100
AcDbEntity
  8
0
100
AcDbBlockEnd
  0
BLOCK
  5
254
330
253
100
AcDbEntity
  8
0
100
AcDbBlockBegin
  2
SW_NOTE_0_18
 70
     0
 10
0.0
 20
0.0
 30
0.0
  3
SW_NOTE_0_18
  1

  0
MTEXT
  5
256
330
253
100
AcDbEntity
  8
0
  6
Continuous
 62
     0
370
    18
100
AcDbMText
 10
-3.0787878788
 20
0.7854817708
 30
0.0
 40
2.6458333333
 41
0.0
 46
0.0
 71
     2
 72
     1
  1
%%p
  7
SLDTEXTSTYLE12
 11
-3.491481338843133E-15
 21
1.0
 31
0.0
 73
     1
 44
1.0
  0
MTEXT
  5
257
330
253
100
AcDbEntity
  8
0
  6
Continuous
 62
     0
370
    18
100
AcDbMText
 10
-3.0787878788
 20
4.4731119536
 30
0.0
 40
2.6458333333
 41
0.0
 46
0.0
 71
     2
 72
     1
  1
0.1
  7
SLDTEXTSTYLE12
 11
-3.491481338843133E-15
 21
1.0
 31
0.0
 73
     1
 44
1.0
  0
ENDBLK
  5
255
330
253
100
AcDbEntity
  8
0
100
AcDbBlockEnd
  0
BLOCK
  5
25A
330
259
100
AcDbEntity
  8
0
100
AcDbBlockBegin
  2
SW_NOTE_0_19
 70
     0
 10
0.0
 20
0.0
 30
0.0
  3
SW_NOTE_0_19
  1

  0
MTEXT
  5
25C
330
259
100
AcDbEntity
  8
0
  6
Continuous
 62
     0
370
    18
100
AcDbMText
 10
-3.0787878788
 20
0.7854817708
 30
0.0
 40
2.6458333333
 41
0.0
 46
0.0
 71
     2
 72
     1
  1
%%p
  7
SLDTEXTSTYLE12
 11
-3.491481338843133E-15
 21
1.0
 31
0.0
 73
     1
 44
1.0
  0
MTEXT
  5
25D
330
259
100
AcDbEntity
  8
0
  6
Continuous
 62
     0
370
    18
100
AcDbMText
 10
-3.0787878788
 20
4.4731119536
 30
0.0
 40
2.6458333333
 41
0.0
 46
0.0
 71
     2
 72
     1
  1
0.5
  7
SLDTEXTSTYLE12
 11
-3.491481338843133E-15
 21
1.0
 31
0.0
 73
     1
 44
1.0
  0
ENDBLK
  5
25B
330
259
100
AcDbEntity
  8
0
100
AcDbBlockEnd
  0
BLOCK
  5
261
330
260
100
AcDbEntity
  8
0
100
AcDbBlockBegin
  2
SW_NOTE_0_20
 70
     0
 10
0.0
 20
0.0
 30
0.0
  3
SW_NOTE_0_20
  1

  0
MTEXT
  5
263
330
260
100
AcDbEntity
  8
0
  6
Continuous
 62
     0
370
    18
100
AcDbMText
 10
-3.0787878788
 20
0.7854817708
 30
0.0
 40
2.6458333333
 41
0.0
 46
0.0
 71
     2
 72
     1
  1
%%p
  7
SLDTEXTSTYLE12
 11
-3.491481338843133E-15
 21
1.0
 31
0.0
 73
     1
 44
1.0
  0
MTEXT
  5
264
330
260
100
AcDbEntity
  8
0
  6
Continuous
 62
     0
370
    18
100
AcDbMText
 10
-3.0787878788
 20
4.4731119536
 30
0.0
 40
2.6458333333
 41
0.0
 46
0.0
 71
     2
 72
     1
  1
1.2
  7
SLDTEXTSTYLE12
 11
-3.491481338843133E-15
 21
1.0
 31
0.0
 73
     1
 44
1.0
  0
ENDBLK
  5
262
330
260
100
AcDbEntity
  8
0
100
AcDbBlockEnd
  0
BLOCK
  5
26F
330
26E
100
AcDbEntity
  8
0
100
AcDbBlockBegin
  2
SW_NOTE_0_21
 70
     0
 10
0.0
 20
0.0
 30
0.0
  3
SW_NOTE_0_21
  1

  0
MTEXT
  5
272
330
26E
100
AcDbEntity
  8
0
  6
Continuous
 62
     0
370
    18
100
AcDbMText
 10
5.2985907994
 20
3.0787878788
 30
0.0
 40
2.6458333333
 41
0.0
 46
0.0
 71
     2
 72
     1
  1
一般公差GB/T
  7
SLDTEXTSTYLE15
 73
     1
 44
1.0
  0
MTEXT
  5
274
330
26E
100
AcDbEntity
  8
0
  6
Continuous
 62
     0
370
    18
100
AcDbMText
 10
5.4003300996
 20
-0.4489898564
 30
0.0
 40
2.6458333333
 41
0.0
 46
0.0
 71
     2
 72
     1
  1
 1804-2000
  7
SLDTEXTSTYLE16
 73
     1
 44
1.0
  0
ENDBLK
  5
270
330
26E
100
AcDbEntity
  8
0
100
AcDbBlockEnd
  0
BLOCK
  5
287
330
286
100
AcDbEntity
  8
0
100
AcDbBlockBegin
  2
SW_NOTE_0_22
 70
     0
 10
0.0
 20
0.0
 30
0.0
  3
SW_NOTE_0_22
  1

  0
MTEXT
  5
289
330
286
100
AcDbEntity
  8
0
  6
Continuous
 62
     0
370
    18
100
AcDbMText
 10
-3.0787878788
 20
0.7854817708
 30
0.0
 40
2.6458333333
 41
0.0
 46
0.0
 71
     2
 72
     1
  1
%%p
  7
SLDTEXTSTYLE12
 11
-3.491481338843133E-15
 21
1.0
 31
0.0
 73
     1
 44
1.0
  0
MTEXT
  5
28A
330
286
100
AcDbEntity
  8
0
  6
Continuous
 62
     0
370
    18
100
AcDbMText
 10
-3.0787878788
 20
2.9021484119
 30
0.0
 40
2.6458333333
 41
0.0
 46
0.0
 71
     2
 72
     1
  1
2
  7
SLDTEXTSTYLE12
 11
-3.491481338843133E-15
 21
1.0
 31
0.0
 73
     1
 44
1.0
  0
ENDBLK
  5
288
330
286
100
AcDbEntity
  8
0
100
AcDbBlockEnd
  0
BLOCK
  5
28E
330
28D
100
AcDbEntity
  8
0
100
AcDbBlockBegin
  2
SW_NOTE_0_23
 70
     0
 10
0.0
 20
0.0
 30
0.0
  3
SW_NOTE_0_23
  1

  0
MTEXT
  5
290
330
28D
100
AcDbEntity
  8
0
  6
Continuous
 62
     0
370
    18
100
AcDbMText
 10
-3.0787878788
 20
0.7854817708
 30
0.0
 40
2.6458333333
 41
0.0
 46
0.0
 71
     2
 72
     1
  1
%%p
  7
SLDTEXTSTYLE12
 11
-3.491481338843133E-15
 21
1.0
 31
0.0
 73
     1
 44
1.0
  0
MTEXT
  5
291
330
28D
100
AcDbEntity
  8
0
  6
Continuous
 62
     0
370
    18
100
AcDbMText
 10
-3.0787878788
 20
5.2585937244
 30
0.0
 40
2.6458333333
 41
0.0
 46
0.0
 71
     2
 72
     1
  1
0.05
  7
SLDTEXTSTYLE12
 11
-3.491481338843133E-15
 21
1.0
 31
0.0
 73
     1
 44
1.0
  0
ENDBLK
  5
28F
330
28D
100
AcDbEntity
  8
0
100
AcDbBlockEnd
  0
BLOCK
  5
294
330
293
100
AcDbEntity
  8
0
100
AcDbBlockBegin
  2
SW_NOTE_0_24
 70
     0
 10
0.0
 20
0.0
 30
0.0
  3
SW_NOTE_0_24
  1

  0
MTEXT
  5
296
330
293
100
AcDbEntity
  8
0
  6
Continuous
 62
     0
370
    18
100
AcDbMText
 10
-3.0787878788
 20
0.7854817708
 30
0.0
 40
2.6458333333
 41
0.0
 46
0.0
 71
     2
 72
     1
  1
%%p
  7
SLDTEXTSTYLE12
 11
-3.491481338843133E-15
 21
1.0
 31
0.0
 73
     1
 44
1.0
  0
MTEXT
  5
297
330
293
100
AcDbEntity
  8
0
  6
Continuous
 62
     0
370
    18
100
AcDbMText
 10
-3.0787878788
 20
4.4731119536
 30
0.0
 40
2.6458333333
 41
0.0
 46
0.0
 71
     2
 72
     1
  1
0.1
  7
SLDTEXTSTYLE12
 11
-3.491481338843133E-15
 21
1.0
 31
0.0
 73
     1
 44
1.0
  0
ENDBLK
  5
295
330
293
100
AcDbEntity
  8
0
100
AcDbBlockEnd
  0
BLOCK
  5
2A5
330
2A4
100
AcDbEntity
  8
0
100
AcDbBlockBegin
  2
SW_SFSYMBOL_0
 70
     0
 10
0.0
 20
0.0
 30
0.0
  3
SW_SFSYMBOL_0
  1

  0
LINE
  5
2A7
330
2A4
100
AcDbEntity
  8
0
  6
Continuous
 62
     0
370
    18
100
AcDbLine
 10
0.0
 20
0.0
 30
0.0
 11
-2.94945
 21
4.99975
 31
0.0
  0
LINE
  5
2A8
330
2A4
100
AcDbEntity
  8
0
  6
Continuous
 62
     0
370
    18
100
AcDbLine
 10
2.94945
 20
4.99975
 30
0.0
 11
-2.94945
 21
4.99975
 31
0.0
  0
LINE
  5
2A9
330
2A4
100
AcDbEntity
  8
0
  6
Continuous
 62
     0
370
    18
100
AcDbLine
 10
0.0
 20
0.0
 30
0.0
 11
5.8989
 21
9.9995
 31
0.0
  0
ENDBLK
  5
2A6
330
2A4
100
AcDbEntity
  8
0
100
AcDbBlockEnd
  0
BLOCK
  5
2AC
330
2AB
100
AcDbEntity
  8
0
100
AcDbBlockBegin
  2
SW_SFSYMBOL_1
 70
     0
 10
0.0
 20
0.0
 30
0.0
  3
SW_SFSYMBOL_1
  1

  0
LINE
  5
2AE
330
2AB
100
AcDbEntity
  8
0
  6
Continuous
 62
     0
370
    18
100
AcDbLine
 10
-6.545
 20
-4.9997497672
 30
0.0
 11
-9.49445
 21
0.0000002328
 31
0.0
  0
LINE
  5
2AF
330
2AB
100
AcDbEntity
  8
0
  6
Continuous
 62
     0
370
    18
100
AcDbLine
 10
-3.59555
 20
0.0000002328
 30
0.0
 11
-9.49445
 21
0.0000002328
 31
0.0
  0
LINE
  5
2B0
330
2AB
100
AcDbEntity
  8
0
  6
Continuous
 62
     0
370
    18
100
AcDbLine
 10
-6.545
 20
-4.9997497672
 30
0.0
 11
-0.6461
 21
4.9997502328
 31
0.0
  0
LINE
  5
2B1
330
2AB
100
AcDbEntity
  8
0
  6
Continuous
 62
     0
370
    18
100
AcDbLine
 10
-0.6461
 20
4.9997502328
 30
0.0
 11
10.1795976284
 21
4.9997502328
 31
0.0
  0
MTEXT
  5
2B2
330
2AB
100
AcDbEntity
  8
0
  6
Continuous
 62
     0
370
    18
100
AcDbMText
 10
0.0
 20
4.5117370892
 30
0.0
 40
3.5
 41
0.0
 46
0.0
 71
     1
 72
     1
  1
Ra3.2
  7
SLDTEXTSTYLE4
 73
     1
 44
1.0
  0
ENDBLK
  5
2AD
330
2AB
100
AcDbEntity
  8
0
100
AcDbBlockEnd
  0
BLOCK
  5
2B5
330
2B4
100
AcDbEntity
  8
0
100
AcDbBlockBegin
  2
SW_SFSYMBOL_2
 70
     0
 10
0.0
 20
0.0
 30
0.0
  3
SW_SFSYMBOL_2
  1

  0
LINE
  5
2B7
330
2B4
100
AcDbEntity
  8
0
  6
Continuous
 62
     0
370
    18
100
AcDbLine
 10
3.1562868099
 20
-4.9997497672
 30
0.0
 11
0.2068368099
 21
0.0000002328
 31
0.0
  0
LINE
  5
2B8
330
2B4
100
AcDbEntity
  8
0
  6
Continuous
 62
     0
370
    18
100
AcDbLine
 10
6.1057368099
 20
0.0000002328
 30
0.0
 11
0.2068368099
 21
0.0000002328
 31
0.0
  0
LINE
  5
2B9
330
2B4
100
AcDbEntity
  8
0
  6
Continuous
 62
     0
370
    18
100
AcDbLine
 10
3.1562868099
 20
-4.9997497672
 30
0.0
 11
9.0551868099
 21
4.9997502328
 31
0.0
  0
MTEXT
  5
2BA
330
2B4
100
AcDbEntity
  8
0
  6
Continuous
 62
     0
370
    18
100
AcDbMText
 10
0.0
 20
4.5117370892
 30
0.0
 40
3.5
 41
0.0
 46
0.0
 71
     1
 72
     1
  1
3.2
  7
SLDTEXTSTYLE4
 73
     1
 44
1.0
  0
MTEXT
  5
2BB
330
2B4
100
AcDbEntity
  8
0
  6
Continuous
 62
     0
370
    18
100
AcDbMText
 10
-9.1863804092
 20
-0.4880129108
 30
0.0
 40
3.5
 41
0.0
 46
0.0
 71
     1
 72
     1
  1
其余
  7
SLDTEXTSTYLE0
 73
     1
 44
1.0
  0
ENDBLK
  5
2B6
330
2B4
100
AcDbEntity
  8
0
100
AcDbBlockEnd
  0
BLOCK
  5
2D4
330
2D3
100
AcDbEntity
  8
0
100
AcDbBlockBegin
  2
SW_DOWELSYMBOL_0
 70
     0
 10
0.0
 20
0.0
 30
0.0
  3
SW_DOWELSYMBOL_0
  1

  0
CIRCLE
  5
2D6
330
2D3
100
AcDbEntity
  8
中心线
  6
CENTERX2
 62
     0
370
    18
100
AcDbCircle
 10
0.0
 20
0.0
 30
0.0
 40
1.09999999999999
  0
HATCH
  5
2D7
330
2D3
100
AcDbEntity
  8
0
  6
CENTERX2
 62
     0
370
    18
100
AcDbHatch
 10
0.0
 20
0.0
 30
0.0
210
0.0
220
0.0
230
1.0
  2
SOLID
 70
     1
 71
     0
 91
        1
 92
        0
 93
        3
 72
     2
 10
0.0
 20
0.0
 40
1.09999999999999
 50
0.0
 51
90.0
 73
     1
 72
     1
 10
0.0
 20
1.09999999999999
 11
0.0
 21
0.0
 72
     1
 10
0.0
 20
0.0
 11
1.09999999999999
 21
0.0
 97
        0
 75
     0
 76
     1
 98
        1
 10
0.0
 20
0.0
  0
HATCH
  5
2D8
330
2D3
100
AcDbEntity
  8
0
  6
CENTERX2
 62
     0
370
    18
100
AcDbHatch
 10
0.0
 20
0.0
 30
0.0
210
0.0
220
0.0
230
1.0
  2
SOLID
 70
     1
 71
     0
 91
        1
 92
        0
 93
        3
 72
     2
 10
0.0
 20
0.0
 40
1.09999999999999
 50
180.0
 51
270.0000000000008
 73
     1
 72
     1
 10
0.0
 20
-1.09999999999999
 11
0.0
 21
0.0
 72
     1
 10
0.0
 20
0.0
 11
-1.09999999999999
 21
0.0
 97
        0
 75
     0
 76
     1
 98
        1
 10
0.0
 20
0.0
  0
ENDBLK
  5
2D5
330
2D3
100
AcDbEntity
  8
0
100
AcDbBlockEnd
  0
BLOCK
  5
2DB
330
2DA
100
AcDbEntity
  8
0
100
AcDbBlockBegin
  2
SW_DOWELSYMBOL_1
 70
     0
 10
0.0
 20
0.0
 30
0.0
  3
SW_DOWELSYMBOL_1
  1

  0
CIRCLE
  5
2DD
330
2DA
100
AcDbEntity
  8
中心线
  6
CENTERX2
 62
     0
370
    18
100
AcDbCircle
 10
0.0
 20
0.0
 30
0.0
 40
1.09999999999999
  0
HATCH
  5
2DE
330
2DA
100
AcDbEntity
  8
0
  6
CENTERX2
 62
     0
370
    18
100
AcDbHatch
 10
0.0
 20
0.0
 30
0.0
210
0.0
220
0.0
230
1.0
  2
SOLID
 70
     1
 71
     0
 91
        1
 92
        0
 93
        3
 72
     2
 10
0.0
 20
0.0
 40
1.09999999999999
 50
0.0
 51
90.0
 73
     1
 72
     1
 10
0.0
 20
1.09999999999999
 11
0.0
 21
0.0
 72
     1
 10
0.0
 20
0.0
 11
1.09999999999999
 21
0.0
 97
        0
 75
     0
 76
     1
 98
        1
 10
0.0
 20
0.0
  0
HATCH
  5
2DF
330
2DA
100
AcDbEntity
  8
0
  6
CENTERX2
 62
     0
370
    18
100
AcDbHatch
 10
0.0
 20
0.0
 30
0.0
210
0.0
220
0.0
230
1.0
  2
SOLID
 70
     1
 71
     0
 91
        1
 92
        0
 93
        3
 72
     2
 10
0.0
 20
0.0
 40
1.09999999999999
 50
180.0
 51
270.0000000000008
 73
     1
 72
     1
 10
0.0
 20
-1.09999999999999
 11
0.0
 21
0.0
 72
     1
 10
0.0
 20
0.0
 11
-1.09999999999999
 21
0.0
 97
        0
 75
     0
 76
     1
 98
        1
 10
0.0
 20
0.0
  0
ENDBLK
  5
2DC
330
2DA
100
AcDbEntity
  8
0
100
AcDbBlockEnd
  0
BLOCK
  5
2E2
330
2E1
100
AcDbEntity
  8
0
100
AcDbBlockBegin
  2
SW_DOWELSYMBOL_2
 70
     0
 10
0.0
 20
0.0
 30
0.0
  3
SW_DOWELSYMBOL_2
  1

  0
CIRCLE
  5
2E4
330
2E1
100
AcDbEntity
  8
中心线
  6
CENTERX2
 62
     0
370
    18
100
AcDbCircle
 10
0.0
 20
0.0
 30
0.0
 40
1.09999999999999
  0
HATCH
  5
2E5
330
2E1
100
AcDbEntity
  8
0
  6
CENTERX2
 62
     0
370
    18
100
AcDbHatch
 10
0.0
 20
0.0
 30
0.0
210
0.0
220
0.0
230
1.0
  2
SOLID
 70
     1
 71
     0
 91
        1
 92
        0
 93
        3
 72
     2
 10
0.0
 20
0.0
 40
1.09999999999999
 50
0.0
 51
90.0
 73
     1
 72
     1
 10
0.0
 20
1.09999999999999
 11
0.0
 21
0.0
 72
     1
 10
0.0
 20
0.0
 11
1.09999999999999
 21
0.0
 97
        0
 75
     0
 76
     1
 98
        1
 10
0.0
 20
0.0
  0
HATCH
  5
2E6
330
2E1
100
AcDbEntity
  8
0
  6
CENTERX2
 62
     0
370
    18
100
AcDbHatch
 10
0.0
 20
0.0
 30
0.0
210
0.0
220
0.0
230
1.0
  2
SOLID
 70
     1
 71
     0
 91
        1
 92
        0
 93
        3
 72
     2
 10
0.0
 20
0.0
 40
1.09999999999999
 50
180.0
 51
270.0000000000008
 73
     1
 72
     1
 10
0.0
 20
-1.09999999999999
 11
0.0
 21
0.0
 72
     1
 10
0.0
 20
0.0
 11
-1.09999999999999
 21
0.0
 97
        0
 75
     0
 76
     1
 98
        1
 10
0.0
 20
0.0
  0
ENDBLK
  5
2E3
330
2E1
100
AcDbEntity
  8
0
100
AcDbBlockEnd
  0
BLOCK
  5
2E9
330
2E8
100
AcDbEntity
  8
0
100
AcDbBlockBegin
  2
SW_DOWELSYMBOL_3
 70
     0
 10
0.0
 20
0.0
 30
0.0
  3
SW_DOWELSYMBOL_3
  1

  0
CIRCLE
  5
2EB
330
2E8
100
AcDbEntity
  8
中心线
  6
CENTERX2
 62
     0
370
    18
100
AcDbCircle
 10
0.0
 20
0.0
 30
0.0
 40
1.09999999999999
  0
HATCH
  5
2EC
330
2E8
100
AcDbEntity
  8
0
  6
CENTERX2
 62
     0
370
    18
100
AcDbHatch
 10
0.0
 20
0.0
 30
0.0
210
0.0
220
0.0
230
1.0
  2
SOLID
 70
     1
 71
     0
 91
        1
 92
        0
 93
        3
 72
     2
 10
0.0
 20
0.0
 40
1.09999999999999
 50
0.0
 51
90.0
 73
     1
 72
     1
 10
0.0
 20
1.09999999999999
 11
0.0
 21
0.0
 72
     1
 10
0.0
 20
0.0
 11
1.09999999999999
 21
0.0
 97
        0
 75
     0
 76
     1
 98
        1
 10
0.0
 20
0.0
  0
HATCH
  5
2ED
330
2E8
100
AcDbEntity
  8
0
  6
CENTERX2
 62
     0
370
    18
100
AcDbHatch
 10
0.0
 20
0.0
 30
0.0
210
0.0
220
0.0
230
1.0
  2
SOLID
 70
     1
 71
     0
 91
        1
 92
        0
 93
        3
 72
     2
 10
0.0
 20
0.0
 40
1.09999999999999
 50
180.0
 51
270.0000000000008
 73
     1
 72
     1
 10
0.0
 20
-1.09999999999999
 11
0.0
 21
0.0
 72
     1
 10
0.0
 20
0.0
 11
-1.09999999999999
 21
0.0
 97
        0
 75
     0
 76
     1
 98
        1
 10
0.0
 20
0.0
  0
ENDBLK
  5
2EA
330
2E8
100
AcDbEntity
  8
0
100
AcDbBlockEnd
  0
ENDSEC
  0
SECTION
  2
ENTITIES
  0
INSERT
  5
72
330
1F
100
AcDbEntity
  8
0
  6
Continuous
 62
     1
370
    18
100
AcDbBlockReference
  2
SW_HATCH_0
 10
11114.3662651536
 20
656.8580121686
 30
0.0
  0
INSERT
  5
77
330
1F
100
AcDbEntity
  8
0
  6
Continuous
 62
    40
420
 16760576
370
    18
100
AcDbBlockReference
  2
SW_HATCH_1
 10
11109.9577215821
 20
656.9395966576
 30
0.0
  0
INSERT
  5
7E
330
1F
100
AcDbEntity
  8
0
  6
Continuous
 62
     2
420
 16776960
370
    18
100
AcDbBlockReference
  2
SW_HATCH_2
 10
11104.5231084487
 20
660.4852396453
 30
0.0
  0
INSERT
  5
84
330
1F
100
AcDbEntity
  8
0
  6
Continuous
 62
   152
420
    29153
370
    18
100
AcDbBlockReference
  2
SW_HATCH_3
 10
11107.8289393961
 20
663.7910705927
 30
0.0
  0
INSERT
  5
8A
330
1F
100
AcDbEntity
  8
0
  6
Continuous
 62
     3
420
    65280
370
    18
100
AcDbBlockReference
  2
SW_HATCH_4
 10
11110.5792306279
 20
666.5413618245
 30
0.0
  0
INSERT
  5
90
330
1F
100
AcDbEntity
  8
0
  6
Continuous
 62
     3
420
    65280
370
    18
100
AcDbBlockReference
  2
SW_HATCH_5
 10
11113.2533184786
 20
669.2154496752
 30
0.0
  0
INSERT
  5
96
330
1F
100
AcDbEntity
  8
0
  6
Continuous
 62
     3
420
    65280
370
    18
100
AcDbBlockReference
  2
SW_HATCH_6
 10
11118.9192704284
 20
665.901145504
 30
0.0
  0
INSERT
  5
9C
330
1F
100
AcDbEntity
  8
0
  6
Continuous
 62
     1
370
    18
100
AcDbBlockReference
  2
SW_HATCH_7
 10
11101.7116336663
 20
675.6342771051
 30
0.0
  0
INSERT
  5
A1
330
1F
100
AcDbEntity
  8
0
  6
Continuous
 62
    40
420
 16760576
370
    18
100
AcDbBlockReference
  2
SW_HATCH_8
 10
11100.7678589594
 20
679.1806304587
 30
0.0
  0
INSERT
  5
A7
330
1F
100
AcDbEntity
  8
0
  6
Continuous
 62
     2
420
 16776960
370
    18
100
AcDbBlockReference
  2
SW_HATCH_9
 10
11093.2373710516
 20
680.6303986719
 30
0.0
  0
INSERT
  5
AE
330
1F
100
AcDbEntity
  8
0
  6
Continuous
 62
   152
420
    29153
370
    18
100
AcDbBlockReference
  2
SW_HATCH_10
 10
11093.5494499704
 20
685.4326056513
 30
0.0
  0
INSERT
  5
B5
330
1F
100
AcDbEntity
  8
0
  6
Continuous
 62
     3
420
    65280
370
    18
100
AcDbBlockReference
  2
SW_HATCH_11
 10
11096.0349814419
 20
687.9181371228
 30
0.0
  0
INSERT
  5
BB
330
1F
100
AcDbEntity
  8
0
  6
Continuous
 62
     3
420
    65280
370
    18
100
AcDbBlockReference
  2
SW_HATCH_12
 10
11101.9880382827
 20
689.381065903
 30
0.0
  0
INSERT
  5
C0
330
1F
100
AcDbEntity
  8
0
  6
Continuous
 62
     3
420
    65280
370
    18
100
AcDbBlockReference
  2
SW_HATCH_13
 10
11105.8080105485
 20
688.7109101083
 30
0.0
  0
INSERT
  5
C5
330
1F
100
AcDbEntity
  8
0
  6
Continuous
 62
     3
420
    65280
370
    18
100
AcDbBlockReference
  2
SW_HATCH_14
 10
11108.5326816031
 20
686.9454531024
 30
0.0
  0
LINE
  5
C6
330
1F
100
AcDbEntity
  8
0
  6
Continuous
 62
     7
420
 16777215
370
    18
100
AcDbLine
 10
415.9556978874
 20
4.0441726691
 30
0.0
 11
347.5286232165
 21
4.0441726691
 31
0.0
  0
LINE
  5
C7
330
1F
100
AcDbEntity
  8
0
  6
Continuous
 62
   179
420
  2171202
370
    18
100
AcDbLine
 10
16.2067456203
 20
104.4996270605
 30
0.0
 11
16.2067456203
 21
4.0441726691
 31
0.0
  0
LINE
  5
C8
330
1F
100
AcDbEntity
  8
0
  6
Continuous
 62
     7
420
 16777215
370
    18
100
AcDbLine
 10
415.1473707526
 20
43.8982362986
 30
0.0
 11
415.1535091308
 21
43.8982362986
 31
0.0
  0
LINE
  5
C9
330
1F
100
AcDbEntity
  8
0
  6
Continuous
 62
   179
420
  2171202
370
    18
100
AcDbLine
 10
342.5069069239
 20
20.194438393
 30
0.0
 11
310.143882943
 21
20.194438393
 31
0.0
  0
LINE
  5
CA
330
1F
100
AcDbEntity
  8
0
  6
Continuous
 62
   179
420
  2171202
370
    18
100
AcDbLine
 10
272.642867966
 20
27.2424329977
 30
0.0
 11
272.642867966
 21
40.544438393
 31
0.0
  0
LINE
  5
CB
330
1F
100
AcDbEntity
  8
0
  6
Continuous
 62
   179
420
  2171202
370
    18
100
AcDbLine
 10
342.5069069239
 20
30.394438393
 30
0.0
 11
415.9556978874
 21
30.394438393
 31
0.0
  0
LINE
  5
CC
330
1F
100
AcDbEntity
  8
0
  6
Continuous
 62
     7
420
 16777215
370
    18
100
AcDbLine
 10
415.9556978874
 20
25.294438393
 30
0.0
 11
342.5069069239
 21
25.294438393
 31
0.0
  0
LINE
  5
CD
330
1F
100
AcDbEntity
  8
0
  6
Continuous
 62
   179
420
  2171202
370
    18
100
AcDbLine
 10
267.1191308643
 20
13.3234768005
 30
0.0
 11
310.143882943
 21
13.3234768005
 31
0.0
  0
LINE
  5
CE
330
1F
100
AcDbEntity
  8
0
  6
Continuous
 62
   179
420
  2171202
370
    18
100
AcDbLine
 10
267.1191308643
 20
17.9631288662
 30
0.0
 11
310.143882943
 21
17.9631288662
 31
0.0
  0
LINE
  5
CF
330
1F
100
AcDbEntity
  8
0
  6
Continuous
 62
   179
420
  2171202
370
    18
100
AcDbLine
 10
415.9556978874
 20
35.444438393
 30
0.0
 11
342.5069069239
 21
35.444438393
 31
0.0
  0
LINE
  5
D0
330
1F
100
AcDbEntity
  8
0
  6
Continuous
 62
   179
420
  2171202
370
    18
100
AcDbLine
 10
342.5069069239
 20
14.811016485
 30
0.0
 11
310.143882943
 21
14.811016485
 31
0.0
  0
LINE
  5
D1
330
1F
100
AcDbEntity
  8
0
  6
Continuous
 62
   179
420
  2171202
370
    18
100
AcDbLine
 10
310.143882943
 20
40.544438393
 30
0.0
 11
310.143882943
 21
4.0441726691
 31
0.0
  0
LINE
  5
D2
330
1F
100
AcDbEntity
  8
0
  6
Continuous
 62
   179
420
  2171202
370
    18
100
AcDbLine
 10
267.1191308643
 20
8.6838247348
 30
0.0
 11
310.143882943
 21
8.6838247348
 31
0.0
  0
LINE
  5
D3
330
1F
100
AcDbEntity
  8
0
  6
Continuous
 62
   179
420
  2171202
370
    18
100
AcDbLine
 10
267.1191308643
 20
22.602780932
 30
0.0
 11
310.143882943
 21
22.602780932
 31
0.0
  0
LINE
  5
D4
330
1F
100
AcDbEntity
  8
0
  6
Continuous
 62
     7
370
    50
100
AcDbLine
 10
360.8394713978
 20
4.0441726691
 30
0.0
 11
360.8394713978
 21
0.0000088594
 31
0.0
  0
LINE
  5
D5
330
1F
100
AcDbEntity
  8
0
  6
Continuous
 62
     7
420
 16777215
370
    18
100
AcDbLine
 10
401.246925264
 20
4.0441726691
 30
0.0
 11
401.246925264
 21
0.0000088594
 31
0.0
  0
LINE
  5
D6
330
1F
100
AcDbEntity
  8
0
  6
Continuous
 62
   179
420
  2171202
370
    18
100
AcDbLine
 10
267.1191308643
 20
27.2424329977
 30
0.0
 11
310.143882943
 21
27.2424329977
 31
0.0
  0
LINE
  5
D7
330
1F
100
AcDbEntity
  8
0
  6
Continuous
 62
     7
420
 16777215
370
    18
100
AcDbLine
 10
342.5069069239
 20
20.194438393
 30
0.0
 11
415.9556978874
 21
20.194438393
 31
0.0
  0
LINE
  5
D8
330
1F
100
AcDbEntity
  8
0
  6
Continuous
 62
     7
420
 16777215
370
    18
100
AcDbLine
 10
4.2067456203
 20
291.951369337
 30
0.0
 11
415.9556978874
 21
291.951369337
 31
0.0
  0
LINE
  5
D9
330
1F
100
AcDbEntity
  8
0
  6
Continuous
 62
     7
420
 16777215
370
    18
100
AcDbLine
 10
355.2297038174
 20
40.544438393
 30
0.0
 11
355.2297038174
 21
20.194438393
 31
0.0
  0
LINE
  5
DA
330
1F
100
AcDbEntity
  8
0
  6
Continuous
 62
     7
370
    50
100
AcDbLine
 10
386.9190755658
 20
0.0000088594
 30
0.0
 11
386.9190755658
 21
4.0441726691
 31
0.0
  0
LINE
  5
DB
330
1F
100
AcDbEntity
  8
0
  6
Continuous
 62
   179
420
  2171202
370
    18
100
AcDbLine
 10
278.1666050677
 20
40.544438393
 30
0.0
 11
278.1666050677
 21
27.2424329977
 31
0.0
  0
LINE
  5
DC
330
1F
100
AcDbEntity
  8
0
  6
Continuous
 62
   179
420
  2171202
370
    18
100
AcDbLine
 10
267.1191308643
 20
40.544438393
 30
0.0
 11
357.6444386363
 21
40.544438393
 31
0.0
  0
LINE
  5
DD
330
1F
100
AcDbEntity
  8
0
  6
Continuous
 62
   179
420
  2171202
370
    18
100
AcDbLine
 10
350.2395419281
 20
40.544438393
 30
0.0
 11
415.9556978874
 21
40.544438393
 31
0.0
  0
LINE
  5
DE
330
1F
100
AcDbEntity
  8
0
  6
Continuous
 62
   179
420
  2171202
370
    18
100
AcDbLine
 10
270.811671815
 20
25.294438393
 30
0.0
 11
270.8123314945
 21
25.294438393
 31
0.0
  0
LINE
  5
DF
330
1F
100
AcDbEntity
  8
0
  6
Continuous
 62
   179
420
  2171202
370
    18
100
AcDbLine
 10
267.1191308643
 20
27.2424329977
 30
0.0
 11
267.1191308643
 21
22.602780932
 31
0.0
  0
LINE
  5
E0
330
1F
100
AcDbEntity
  8
0
  6
Continuous
 62
   179
420
  2171202
370
    18
100
AcDbLine
 10
342.5069069239
 20
14.811016485
 30
0.0
 11
376.9510940924
 21
14.811016485
 31
0.0
  0
LINE
  5
E1
330
1F
100
AcDbEntity
  8
0
  6
Continuous
 62
   179
420
  2171202
370
    18
100
AcDbLine
 10
276.6735858018
 20
27.2424329977
 30
0.0
 11
276.6735858018
 21
4.0441726691
 31
0.0
  0
LINE
  5
E2
330
1F
100
AcDbEntity
  8
0
  6
Continuous
 62
     7
420
 16777215
370
    18
100
AcDbLine
 10
415.9556978874
 20
291.951369337
 30
0.0
 11
415.9556978874
 21
4.0441726691
 31
0.0
  0
LINE
  5
E3
330
1F
100
AcDbEntity
  8
0
  6
Continuous
 62
   179
420
  2171202
370
    18
100
AcDbLine
 10
298.7341571486
 20
40.544438393
 30
0.0
 11
298.7341571486
 21
27.2424329977
 31
0.0
  0
LINE
  5
E4
330
1F
100
AcDbEntity
  8
0
  6
Continuous
 62
   179
420
  2171202
370
    18
100
AcDbLine
 10
342.5069069239
 20
40.544438393
 30
0.0
 11
342.5069069239
 21
20.194438393
 31
0.0
  0
LINE
  5
E5
330
1F
100
AcDbEntity
  8
0
  6
Continuous
 62
     7
370
    50
100
AcDbLine
 10
415.9556978874
 20
44.4996270605
 30
0.0
 11
419.9998616971
 21
44.4996270605
 31
0.0
  0
LINE
  5
E6
330
1F
100
AcDbEntity
  8
0
  6
Continuous
 62
     7
370
    50
100
AcDbLine
 10
419.9998616971
 20
296.9999707807
 30
0.0
 11
419.9998616971
 21
0.0000088594
 31
0.0
  0
LINE
  5
E7
330
1F
100
AcDbEntity
  8
0
  6
Continuous
 62
   179
420
  2171202
370
    18
100
AcDbLine
 10
267.1191308643
 20
30.5679343465
 30
0.0
 11
310.143882943
 21
30.5679343465
 31
0.0
  0
LINE
  5
E8
330
1F
100
AcDbEntity
  8
0
  6
Continuous
 62
     7
420
 16777215
370
    18
100
AcDbLine
 10
4.2067456203
 20
291.951369337
 30
0.0
 11
4.2067456203
 21
4.0441726691
 31
0.0
  0
LINE
  5
E9
330
1F
100
AcDbEntity
  8
0
  6
Continuous
 62
   179
420
  2171202
370
    18
100
AcDbLine
 10
267.1191308643
 20
33.8934356953
 30
0.0
 11
310.143882943
 21
33.8934356953
 31
0.0
  0
LINE
  5
EA
330
1F
100
AcDbEntity
  8
0
  6
Continuous
 62
   179
420
  2171202
370
    18
100
AcDbLine
 10
267.1191308643
 20
4.0441726691
 30
0.0
 11
267.1191308643
 21
8.6838247348
 31
0.0
  0
LINE
  5
EB
330
1F
100
AcDbEntity
  8
0
  6
Continuous
 62
   179
420
  2171202
370
    18
100
AcDbLine
 10
267.1191308643
 20
8.6838247348
 30
0.0
 11
267.1191308643
 21
13.3234768005
 31
0.0
  0
LINE
  5
EC
330
1F
100
AcDbEntity
  8
0
  6
Continuous
 62
     7
370
    50
100
AcDbLine
 10
0.0000075641
 20
296.9999707807
 30
0.0
 11
0.0000075641
 21
0.0000088594
 31
0.0
  0
LINE
  5
ED
330
1F
100
AcDbEntity
  8
0
  6
Continuous
 62
   179
420
  2171202
370
    18
100
AcDbLine
 10
283.6903421694
 20
27.2424329977
 30
0.0
 11
283.6903421694
 21
40.544438393
 31
0.0
  0
LINE
  5
EE
330
1F
100
AcDbEntity
  8
0
  6
Continuous
 62
   179
420
  2171202
370
    18
100
AcDbLine
 10
359.2605878817
 20
18.5921782894
 30
0.0
 11
359.2605878817
 21
16.4132765886
 31
0.0
  0
LINE
  5
EF
330
1F
100
AcDbEntity
  8
0
  6
Continuous
 62
   179
420
  2171202
370
    18
100
AcDbLine
 10
366.269410375
 20
19.4868403894
 30
0.0
 11
366.269410375
 21
15.5186144887
 31
0.0
  0
LINE
  5
F0
330
1F
100
AcDbEntity
  8
0
  6
Continuous
 62
   179
420
  2171202
370
    18
100
AcDbLine
 10
369.4295642554
 20
19.4868403894
 30
0.0
 11
369.4295642554
 21
15.5186144887
 31
0.0
  0
LINE
  5
F1
330
1F
100
AcDbEntity
  8
0
  6
Continuous
 62
   179
420
  2171202
370
    18
100
AcDbLine
 10
267.1191308643
 20
40.544438393
 30
0.0
 11
272.642867966
 21
40.544438393
 31
0.0
  0
LINE
  5
F2
330
1F
100
AcDbEntity
  8
0
  6
Continuous
 62
     7
370
    50
100
AcDbLine
 10
0.0000075641
 20
0.0000088594
 30
0.0
 11
419.9998616971
 21
0.0000088594
 31
0.0
  0
LINE
  5
F3
330
1F
100
AcDbEntity
  8
0
  6
Continuous
 62
     7
370
    50
100
AcDbLine
 10
419.9998616971
 20
296.9999707807
 30
0.0
 11
0.0000075641
 21
296.9999707807
 31
0.0
  0
LINE
  5
F4
330
1F
100
AcDbEntity
  8
0
  6
Continuous
 62
   179
420
  2171202
370
    18
100
AcDbLine
 10
272.642867966
 20
40.544438393
 30
0.0
 11
278.1666050677
 21
40.544438393
 31
0.0
  0
LINE
  5
F5
330
1F
100
AcDbEntity
  8
0
  6
Continuous
 62
     7
370
    50
100
AcDbLine
 10
163.0188089512
 20
0.0238611542
 30
0.0
 11
163.0188089512
 21
4.0680249639
 31
0.0
  0
LINE
  5
F6
330
1F
100
AcDbEntity
  8
0
  6
Continuous
 62
     7
370
    50
100
AcDbLine
 10
50.3842526788
 20
4.0197319451
 30
0.0
 11
50.3842526788
 21
-0.0244318646
 31
0.0
  0
LINE
  5
F7
330
1F
100
AcDbEntity
  8
0
  6
Continuous
 62
   179
420
  2171202
370
    18
100
AcDbLine
 10
283.6903421694
 20
40.544438393
 30
0.0
 11
278.1666050677
 21
40.544438393
 31
0.0
  0
LINE
  5
F8
330
1F
100
AcDbEntity
  8
0
  6
Continuous
 62
   179
420
  2171202
370
    18
100
AcDbLine
 10
369.4295642554
 20
18.5921782894
 30
0.0
 11
369.4295642554
 21
16.4132765886
 31
0.0
  0
LINE
  5
F9
330
1F
100
AcDbEntity
  8
0
  6
Continuous
 62
     7
370
    50
100
AcDbLine
 10
50.3842526788
 20
296.9999707807
 30
0.0
 11
50.3842526788
 21
291.951369337
 31
0.0
  0
LINE
  5
FA
330
1F
100
AcDbEntity
  8
0
  6
Continuous
 62
     7
370
    50
100
AcDbLine
 10
101.8530865898
 20
291.951369337
 30
0.0
 11
101.8530865898
 21
296.9999707807
 31
0.0
  0
LINE
  5
FB
330
1F
100
AcDbEntity
  8
0
  6
Continuous
 62
     7
370
    50
100
AcDbLine
 10
224.7028551079
 20
291.951369337
 30
0.0
 11
224.7028551079
 21
296.9999707807
 31
0.0
  0
LINE
  5
FC
330
1F
100
AcDbEntity
  8
0
  6
Continuous
 62
   179
420
  2171202
370
    18
100
AcDbLine
 10
267.1191308643
 20
37.2189370442
 30
0.0
 11
310.143882943
 21
37.2189370442
 31
0.0
  0
LINE
  5
FD
330
1F
100
AcDbEntity
  8
0
  6
Continuous
 62
   179
420
  2171202
370
    18
100
AcDbLine
 10
359.2605878817
 20
18.5921782894
 30
0.0
 11
366.269410375
 21
19.4868403894
 31
0.0
  0
LINE
  5
FE
330
1F
100
AcDbEntity
  8
0
  6
Continuous
 62
     7
370
    50
100
AcDbLine
 10
415.9556978874
 20
192.6533579213
 30
0.0
 11
419.9998616971
 21
192.6533579213
 31
0.0
  0
LINE
  5
FF
330
1F
100
AcDbEntity
  8
0
  6
Continuous
 62
     7
370
    50
100
AcDbLine
 10
415.9556978874
 20
92.6533579213
 30
0.0
 11
419.9998616971
 21
92.6533579213
 31
0.0
  0
LINE
  5
100
330
1F
100
AcDbEntity
  8
0
  6
Continuous
 62
     7
370
    50
100
AcDbLine
 10
419.9998616971
 20
144.023582534
 30
0.0
 11
415.9556978874
 21
144.023582534
 31
0.0
  0
LINE
  5
101
330
1F
100
AcDbEntity
  8
0
  6
Continuous
 62
     7
370
    50
100
AcDbLine
 10
294.9486865981
 20
296.9999707807
 30
0.0
 11
294.9486865981
 21
291.951369337
 31
0.0
  0
LINE
  5
102
330
1F
100
AcDbEntity
  8
0
  6
Continuous
 62
     7
370
    50
100
AcDbLine
 10
360.8394713978
 20
291.951369337
 30
0.0
 11
360.8394713978
 21
296.9999707807
 31
0.0
  0
LINE
  5
103
330
1F
100
AcDbEntity
  8
0
  6
Continuous
 62
     7
370
    50
100
AcDbLine
 10
163.0188089512
 20
291.951369337
 30
0.0
 11
163.0188089512
 21
296.9999707807
 31
0.0
  0
LINE
  5
104
330
1F
100
AcDbEntity
  8
0
  6
Continuous
 62
     7
370
    50
100
AcDbLine
 10
419.9998616971
 20
242.6533579213
 30
0.0
 11
415.9556978874
 21
242.6533579213
 31
0.0
  0
LINE
  5
105
330
1F
100
AcDbEntity
  8
0
  6
Continuous
 62
     7
370
    18
100
AcDbLine
 10
4.2067456203
 20
122.2008333678
 30
0.0
 11
16.2067456203
 21
122.2008333678
 31
0.0
  0
LINE
  5
106
330
1F
100
AcDbEntity
  8
0
  6
Continuous
 62
   179
420
  2171202
370
    18
100
AcDbLine
 10
369.4295642554
 20
17.502727439
 30
0.0
 11
370.5190151058
 21
17.502727439
 31
0.0
  0
LINE
  5
107
330
1F
100
AcDbEntity
  8
0
  6
Continuous
 62
   179
420
  2171202
370
    18
100
AcDbLine
 10
310.143882943
 20
37.2189370442
 30
0.0
 11
310.143882943
 21
40.544438393
 31
0.0
  0
LINE
  5
108
330
1F
100
AcDbEntity
  8
0
  6
Continuous
 62
   179
420
  2171202
370
    18
100
AcDbLine
 10
376.9510940924
 20
20.194438393
 30
0.0
 11
376.9510940924
 21
4.0441726691
 31
0.0
  0
LINE
  5
109
330
1F
100
AcDbEntity
  8
0
  6
Continuous
 62
   179
420
  2171202
370
    18
100
AcDbLine
 10
376.9510940924
 20
9.4275945771
 30
0.0
 11
342.5069069239
 21
9.4275945771
 31
0.0
  0
LINE
  5
10A
330
1F
100
AcDbEntity
  8
0
  6
CENTERX2
 62
   179
420
  2171202
370
    18
100
AcDbLine
 10
376.9510940924
 20
20.194438393
 30
0.0
 11
376.9510940924
 21
14.811016485
 31
0.0
  0
LINE
  5
10B
330
1F
100
AcDbEntity
  8
0
  6
CENTERX2
 62
   179
420
  2171202
370
    18
100
AcDbLine
 10
376.9510940924
 20
14.811016485
 30
0.0
 11
376.9510940924
 21
9.4275945771
 31
0.0
  0
LINE
  5
10C
330
1F
100
AcDbEntity
  8
0
  6
CENTERX2
 62
   179
420
  2171202
370
    18
100
AcDbLine
 10
376.9510940924
 20
9.4275945771
 30
0.0
 11
376.9510940924
 21
4.0441726691
 31
0.0
  0
LINE
  5
10D
330
1F
100
AcDbEntity
  8
0
  6
Continuous
 62
   179
420
  2171202
370
    18
100
AcDbLine
 10
342.5069069239
 20
9.4275945771
 30
0.0
 11
310.143882943
 21
9.4275945771
 31
0.0
  0
LINE
  5
10E
330
1F
100
AcDbEntity
  8
0
  6
Continuous
 62
   179
420
  2171202
370
    18
100
AcDbLine
 10
369.4295642554
 20
20.194438393
 30
0.0
 11
369.4295642554
 21
14.811016485
 31
0.0
  0
LINE
  5
10F
330
1F
100
AcDbEntity
  8
0
  6
Continuous
 62
   179
420
  2171202
370
    18
100
AcDbLine
 10
363.7432770756
 20
14.811016485
 30
0.0
 11
363.7432770756
 21
4.0441726691
 31
0.0
  0
LINE
  5
110
330
1F
100
AcDbEntity
  8
0
  6
Continuous
 62
   179
420
  2171202
370
    18
100
AcDbLine
 10
11114.3441232929
 20
659.0957861746
 30
0.0
 11
11110.1912980991
 21
649.7529311159
 31
0.0
  0
LINE
  5
111
330
1F
100
AcDbEntity
  8
0
  6
Continuous
 62
   179
420
  2171202
370
    18
100
AcDbLine
 10
11114.4460109667
 20
648.79847688
 30
0.0
 11
11114.3441232929
 21
659.0957861746
 31
0.0
  0
LINE
  5
112
330
1F
100
AcDbEntity
  8
0
  6
Continuous
 62
   179
420
  2171202
370
    18
100
AcDbLine
 10
11113.6196886325
 20
658.9318269638
 30
0.0
 11
11105.2308774773
 21
654.3680382715
 31
0.0
  0
LINE
  5
113
330
1F
100
AcDbEntity
  8
0
  6
Continuous
 62
   179
420
  2171202
370
    18
100
AcDbLine
 10
11107.7165807749
 20
651.313488278
 30
0.0
 11
11113.6196886325
 21
658.9318269638
 31
0.0
  0
LINE
  5
114
330
1F
100
AcDbEntity
  8
0
  6
Continuous
 62
   179
420
  2171202
370
    18
100
AcDbLine
 10
11104.3349291597
 20
656.9359468178
 30
0.0
 11
11113.0823173815
 21
659.2334956122
 31
0.0
  0
LINE
  5
115
330
1F
100
AcDbEntity
  8
0
  6
Continuous
 62
   179
420
  2171202
370
    18
100
AcDbLine
 10
11113.0823173815
 20
659.2334956122
 30
0.0
 11
11104.2095911179
 21
660.5310900797
 31
0.0
  0
LINE
  5
116
330
1F
100
AcDbEntity
  8
0
  6
Continuous
 62
   179
420
  2171202
370
    18
100
AcDbLine
 10
11104.6725093145
 20
662.4559831974
 30
0.0
 11
11112.5932703524
 21
659.9604813239
 31
0.0
  0
LINE
  5
117
330
1F
100
AcDbEntity
  8
0
  6
Continuous
 62
   179
420
  2171202
370
    18
100
AcDbLine
 10
11112.5932703524
 20
659.9604813239
 30
0.0
 11
11106.1293896915
 21
665.1575325197
 31
0.0
  0
LINE
  5
118
330
1F
100
AcDbEntity
  8
0
  6
Continuous
 62
   179
420
  2171202
370
    18
100
AcDbLine
 10
11120.9385406644
 20
666.8231462498
 30
0.0
 11
11115.8904649485
 21
664.5181899878
 31
0.0
  0
LINE
  5
119
330
1F
100
AcDbEntity
  8
0
  6
Continuous
 62
   179
420
  2171202
370
    18
100
AcDbLine
 10
11115.8904649485
 20
664.5181899878
 30
0.0
 11
11122.9426455402
 21
664.5559761646
 31
0.0
  0
LINE
  5
11A
330
1F
100
AcDbEntity
  8
0
  6
Continuous
 62
     7
420
 16777215
370
    18
100
AcDbLine
 10
4.2067456203
 20
4.0441726691
 30
0.0
 11
347.5286232165
 21
4.0441726691
 31
0.0
  0
LINE
  5
11B
330
1F
100
AcDbEntity
  8
0
  6
Continuous
 62
   179
420
  2171202
370
    18
100
AcDbLine
 10
11113.5996165167
 20
663.2145671932
 30
0.0
 11
11119.3661448944
 21
667.8622658941
 31
0.0
  0
LINE
  5
11C
330
1F
100
AcDbEntity
  8
0
  6
Continuous
 62
   179
420
  2171202
370
    18
100
AcDbLine
 10
11116.700307184
 20
668.9580647598
 30
0.0
 11
11113.5996165167
 21
663.2145671932
 31
0.0
  0
LINE
  5
11D
330
1F
100
AcDbEntity
  8
0
  6
Continuous
 62
   179
420
  2171202
370
    18
100
AcDbLine
 10
4.2067456203
 20
8.0441726691
 30
0.0
 11
16.2067456203
 21
8.0441726691
 31
0.0
  0
LINE
  5
11E
330
1F
100
AcDbEntity
  8
0
  6
Continuous
 62
     7
370
    50
100
AcDbLine
 10
224.7028551079
 20
0.0238611542
 30
0.0
 11
224.7028551079
 21
4.0680249639
 31
0.0
  0
LINE
  5
11F
330
1F
100
AcDbEntity
  8
0
  6
Continuous
 62
     7
370
    50
100
AcDbLine
 10
101.8530865898
 20
-0.0002853552
 30
0.0
 11
101.8530865898
 21
4.0438784545
 31
0.0
  0
LINE
  5
120
330
1F
100
AcDbEntity
  8
0
  6
Continuous
 62
     7
370
    50
100
AcDbLine
 10
294.9486865981
 20
4.0441726691
 30
0.0
 11
294.9486865981
 21
0.0000088594
 31
0.0
  0
LINE
  5
121
330
1F
100
AcDbEntity
  8
0
  6
Continuous
 62
   179
420
  2171202
370
    18
100
AcDbLine
 10
11112.7081854392
 20
661.6433393411
 30
0.0
 11
11114.712290315
 21
669.2383592227
 31
0.0
  0
LINE
  5
122
330
1F
100
AcDbEntity
  8
0
  6
Continuous
 62
   179
420
  2171202
370
    18
100
AcDbLine
 10
11111.7250395867
 20
668.9171767633
 30
0.0
 11
11112.7081854392
 21
661.6433393411
 31
0.0
  0
LINE
  5
123
330
1F
100
AcDbEntity
  8
0
  6
Continuous
 62
   179
420
  2171202
370
    18
100
AcDbLine
 10
11107.6013181424
 20
666.7160135788
 30
0.0
 11
11112.5234760044
 21
660.6967509741
 31
0.0
  0
LINE
  5
124
330
1F
100
AcDbEntity
  8
0
  6
Continuous
 62
   179
420
  2171202
370
    18
100
AcDbLine
 10
11112.5234760044
 20
660.6967509741
 30
0.0
 11
11110.0207742782
 21
668.2201417155
 31
0.0
  0
LINE
  5
125
330
1F
100
AcDbEntity
  8
0
  6
Continuous
 62
   179
420
  2171202
370
    18
100
AcDbLine
 10
11101.6739438175
 20
679.443413341
 30
0.0
 11
11097.5211186237
 21
670.1005582823
 31
0.0
  0
LINE
  5
126
330
1F
100
AcDbEntity
  8
0
  6
Continuous
 62
   179
420
  2171202
370
    18
100
AcDbLine
 10
11101.7758314913
 20
669.1461040464
 30
0.0
 11
11101.6739438175
 21
679.443413341
 31
0.0
  0
LINE
  5
127
330
1F
100
AcDbEntity
  8
0
  6
Continuous
 62
   179
420
  2171202
370
    18
100
AcDbLine
 10
11100.9495091572
 20
679.2794541303
 30
0.0
 11
11092.560698002
 21
674.7156654379
 31
0.0
  0
LINE
  5
128
330
1F
100
AcDbEntity
  8
0
  6
Continuous
 62
   179
420
  2171202
370
    18
100
AcDbLine
 10
11095.0464012996
 20
671.6611154444
 30
0.0
 11
11100.9495091572
 21
679.2794541303
 31
0.0
  0
LINE
  5
129
330
1F
100
AcDbEntity
  8
0
  6
Continuous
 62
   179
420
  2171202
370
    18
100
AcDbLine
 10
11091.6647496844
 20
677.2835739842
 30
0.0
 11
11100.4121379062
 21
679.5811227786
 31
0.0
  0
LINE
  5
12A
330
1F
100
AcDbEntity
  8
0
  6
Continuous
 62
   179
420
  2171202
370
    18
100
AcDbLine
 10
11100.4121379062
 20
679.5811227786
 30
0.0
 11
11091.5394116425
 21
680.8787172461
 31
0.0
  0
LINE
  5
12B
330
1F
100
AcDbEntity
  8
0
  6
Continuous
 62
   179
420
  2171202
370
    18
100
AcDbLine
 10
11092.0023298391
 20
682.8036103638
 30
0.0
 11
11099.9230908771
 21
680.3081084903
 31
0.0
  0
LINE
  5
12C
330
1F
100
AcDbEntity
  8
0
  6
Continuous
 62
   179
420
  2171202
370
    18
100
AcDbLine
 10
11099.9230908771
 20
680.3081084903
 30
0.0
 11
11093.4592102162
 21
685.5051596862
 31
0.0
  0
LINE
  5
12D
330
1F
100
AcDbEntity
  8
0
  6
Continuous
 62
   179
420
  2171202
370
    18
100
AcDbLine
 10
11108.2683611891
 20
687.1707734162
 30
0.0
 11
11103.2202854732
 21
684.8658171542
 31
0.0
  0
LINE
  5
12E
330
1F
100
AcDbEntity
  8
0
  6
Continuous
 62
   179
420
  2171202
370
    18
100
AcDbLine
 10
11103.2202854732
 20
684.8658171542
 30
0.0
 11
11110.2724660649
 21
684.903603331
 31
0.0
  0
LINE
  5
12F
330
1F
100
AcDbEntity
  8
0
  6
Continuous
 62
   179
420
  2171202
370
    18
100
AcDbLine
 10
11100.9294370414
 20
683.5621943596
 30
0.0
 11
11106.695965419
 21
688.2098930605
 31
0.0
  0
LINE
  5
130
330
1F
100
AcDbEntity
  8
0
  6
Continuous
 62
   179
420
  2171202
370
    18
100
AcDbLine
 10
11104.0301277086
 20
689.3056919262
 30
0.0
 11
11100.9294370414
 21
683.5621943596
 31
0.0
  0
LINE
  5
131
330
1F
100
AcDbEntity
  8
0
  6
Continuous
 62
   179
420
  2171202
370
    18
100
AcDbLine
 10
11100.0380059639
 20
681.9909665075
 30
0.0
 11
11102.0421108397
 21
689.5859863891
 31
0.0
  0
LINE
  5
132
330
1F
100
AcDbEntity
  8
0
  6
Continuous
 62
   179
420
  2171202
370
    18
100
AcDbLine
 10
11099.0548601113
 20
689.2648039297
 30
0.0
 11
11100.0380059639
 21
681.9909665075
 31
0.0
  0
LINE
  5
133
330
1F
100
AcDbEntity
  8
0
  6
Continuous
 62
   179
420
  2171202
370
    18
100
AcDbLine
 10
11094.9311386671
 20
687.0636407452
 30
0.0
 11
11099.853296529
 21
681.0443781405
 31
0.0
  0
LINE
  5
134
330
1F
100
AcDbEntity
  8
0
  6
Continuous
 62
   179
420
  2171202
370
    18
100
AcDbLine
 10
11099.853296529
 20
681.0443781405
 30
0.0
 11
11097.3505948029
 21
688.5677688819
 31
0.0
  0
LINE
  5
135
330
1F
100
AcDbEntity
  8
0
  6
Continuous
 62
   179
420
  2171202
370
    18
100
AcDbLine
 10
318.652002807
 20
20.194438393
 30
0.0
 11
318.652002807
 21
4.0441726691
 31
0.0
  0
LINE
  5
136
330
1F
100
AcDbEntity
  8
0
  6
Continuous
 62
   179
420
  2171202
370
    18
100
AcDbLine
 10
267.1191308643
 20
4.0441726691
 30
0.0
 11
267.1191308643
 21
40.544438393
 31
0.0
  0
LINE
  5
137
330
1F
100
AcDbEntity
  8
0
  6
Continuous
 62
     7
420
 16777215
370
    18
100
AcDbLine
 10
4.2067456203
 20
291.951369337
 30
0.0
 11
4.2067456203
 21
4.0441726691
 31
0.0
  0
LINE
  5
138
330
1F
100
AcDbEntity
  8
0
  6
Continuous
 62
   179
420
  2171202
370
    18
100
AcDbLine
 10
4.2067456203
 20
83.9578314431
 30
0.0
 11
16.2067456203
 21
83.9578314431
 31
0.0
  0
LINE
  5
139
330
1F
100
AcDbEntity
  8
0
  6
Continuous
 62
   179
420
  2171202
370
    18
100
AcDbLine
 10
4.2067456203
 20
11.0924656879
 30
0.0
 11
16.2067456203
 21
11.0924656879
 31
0.0
  0
LINE
  5
13A
330
1F
100
AcDbEntity
  8
0
  6
Continuous
 62
   179
420
  2171202
370
    18
100
AcDbLine
 10
4.2067456203
 20
15.0441726691
 30
0.0
 11
16.2067456203
 21
15.0441726691
 31
0.0
  0
LINE
  5
13B
330
1F
100
AcDbEntity
  8
0
  6
Continuous
 62
   179
420
  2171202
370
    18
100
AcDbLine
 10
16.2067456203
 20
291.951369337
 30
0.0
 11
16.2067456203
 21
226.9996623558
 31
0.0
  0
LINE
  5
13C
330
1F
100
AcDbEntity
  8
0
  6
Continuous
 62
   179
420
  2171202
370
    18
100
AcDbLine
 10
4.2067456203
 20
18.0924656879
 30
0.0
 11
16.2067456203
 21
18.0924656879
 31
0.0
  0
LINE
  5
13D
330
1F
100
AcDbEntity
  8
0
  6
Continuous
 62
   179
420
  2171202
370
    18
100
AcDbLine
 10
4.2067456203
 20
22.0441726691
 30
0.0
 11
16.2067456203
 21
22.0441726691
 31
0.0
  0
LINE
  5
13E
330
1F
100
AcDbEntity
  8
0
  6
CENTERX2
 62
   179
420
  2171202
370
    18
100
AcDbLine
 10
16.2067456203
 20
291.951369337
 30
0.0
 11
16.2067456203
 21
226.9996623558
 31
0.0
  0
LINE
  5
13F
330
1F
100
AcDbEntity
  8
0
  6
Continuous
 62
   179
420
  2171202
370
    18
100
AcDbLine
 10
4.2067456203
 20
25.0924656879
 30
0.0
 11
16.2067456203
 21
25.0924656879
 31
0.0
  0
LINE
  5
140
330
1F
100
AcDbEntity
  8
0
  6
Continuous
 62
   179
420
  2171202
370
    18
100
AcDbLine
 10
4.2067456203
 20
29.0441726691
 30
0.0
 11
16.2067456203
 21
29.0441726691
 31
0.0
  0
LINE
  5
141
330
1F
100
AcDbEntity
  8
0
  6
Continuous
 62
   179
420
  2171202
370
    18
100
AcDbLine
 10
4.2067456203
 20
32.0924656879
 30
0.0
 11
16.2067456203
 21
32.0924656879
 31
0.0
  0
LINE
  5
142
330
1F
100
AcDbEntity
  8
0
  6
Continuous
 62
   179
420
  2171202
370
    18
100
AcDbLine
 10
4.2067456203
 20
36.0441726691
 30
0.0
 11
16.2067456203
 21
36.0441726691
 31
0.0
  0
LINE
  5
143
330
1F
100
AcDbEntity
  8
0
  6
Continuous
 62
   179
420
  2171202
370
    18
100
AcDbLine
 10
4.2067456203
 20
39.0924656879
 30
0.0
 11
16.2067456203
 21
39.0924656879
 31
0.0
  0
LINE
  5
144
330
1F
100
AcDbEntity
  8
0
  6
Continuous
 62
   179
420
  2171202
370
    18
100
AcDbLine
 10
4.2067456203
 20
43.0441726691
 30
0.0
 11
16.2067456203
 21
43.0441726691
 31
0.0
  0
LINE
  5
145
330
1F
100
AcDbEntity
  8
0
  6
Continuous
 62
   179
420
  2171202
370
    18
100
AcDbLine
 10
358.0146927404
 20
17.502727439
 30
0.0
 11
372.2968495276
 21
17.502727439
 31
0.0
  0
LINE
  5
146
330
1F
100
AcDbEntity
  8
0
  6
Continuous
 62
   179
420
  2171202
370
    18
100
AcDbLine
 10
4.2067456203
 20
46.0924656879
 30
0.0
 11
16.2067456203
 21
46.0924656879
 31
0.0
  0
LINE
  5
147
330
1F
100
AcDbEntity
  8
0
  6
Continuous
 62
   179
420
  2171202
370
    18
100
AcDbLine
 10
16.2067456203
 20
291.951369337
 30
0.0
 11
16.2067456203
 21
104.4996270605
 31
0.0
  0
LINE
  5
148
330
1F
100
AcDbEntity
  8
0
  6
Continuous
 62
   179
420
  2171202
370
    18
100
AcDbLine
 10
8.2067456203
 20
284.3924965653
 30
0.0
 11
8.2067456203
 21
122.2008333678
 31
0.0
  0
LINE
  5
149
330
1F
100
AcDbEntity
  8
0
  6
Continuous
 62
   179
420
  2171202
370
    18
100
AcDbLine
 10
12.2067456203
 20
284.3924965653
 30
0.0
 11
12.2067456203
 21
122.2008333678
 31
0.0
  0
LINE
  5
14A
330
1F
100
AcDbEntity
  8
0
  6
Continuous
 62
   179
420
  2171202
370
    18
100
AcDbLine
 10
4.2067456203
 20
284.3924965653
 30
0.0
 11
16.2067456203
 21
284.3924965653
 31
0.0
  0
LINE
  5
14B
330
1F
100
AcDbEntity
  8
0
  6
Continuous
 62
   179
420
  2171202
370
    18
100
AcDbLine
 10
4.2067456203
 20
270.0099860056
 30
0.0
 11
16.2067456203
 21
270.0099860056
 31
0.0
  0
LINE
  5
14C
330
1F
100
AcDbEntity
  8
0
  6
Continuous
 62
   179
420
  2171202
370
    18
100
AcDbLine
 10
4.2067456203
 20
49.0924656879
 30
0.0
 11
16.2067456203
 21
49.0924656879
 31
0.0
  0
LINE
  5
14D
330
1F
100
AcDbEntity
  8
0
  6
Continuous
 62
   179
420
  2171202
370
    18
100
AcDbLine
 10
4.2067456203
 20
251.7275465155
 30
0.0
 11
16.2067456203
 21
251.7275465155
 31
0.0
  0
LINE
  5
14E
330
1F
100
AcDbEntity
  8
0
  6
Continuous
 62
   179
420
  2171202
370
    18
100
AcDbLine
 10
4.2067456203
 20
233.4451070255
 30
0.0
 11
16.2067456203
 21
233.4451070255
 31
0.0
  0
LINE
  5
14F
330
1F
100
AcDbEntity
  8
0
  6
Continuous
 62
   179
420
  2171202
370
    18
100
AcDbLine
 10
4.2067456203
 20
215.1626675354
 30
0.0
 11
16.2067456203
 21
215.1626675354
 31
0.0
  0
LINE
  5
150
330
1F
100
AcDbEntity
  8
0
  6
Continuous
 62
   179
420
  2171202
370
    18
100
AcDbLine
 10
4.2067456203
 20
196.8802280454
 30
0.0
 11
16.2067456203
 21
196.8802280454
 31
0.0
  0
LINE
  5
151
330
1F
100
AcDbEntity
  8
0
  6
Continuous
 62
   179
420
  2171202
370
    18
100
AcDbLine
 10
206.9510156458
 20
4.0441726691
 30
0.0
 11
267.1191308643
 21
4.0441726691
 31
0.0
  0
LINE
  5
152
330
1F
100
AcDbEntity
  8
0
  6
Continuous
 62
   179
420
  2171202
370
    18
100
AcDbLine
 10
4.2067456203
 20
178.5977885554
 30
0.0
 11
16.2067456203
 21
178.5977885554
 31
0.0
  0
LINE
  5
153
330
1F
100
AcDbEntity
  8
0
  6
Continuous
 62
   179
420
  2171202
370
    18
100
AcDbLine
 10
4.2067456203
 20
160.3153490653
 30
0.0
 11
16.2067456203
 21
160.3153490653
 31
0.0
  0
LINE
  5
154
330
1F
100
AcDbEntity
  8
0
  6
Continuous
 62
     7
370
    18
100
AcDbLine
 10
359.2605878817
 20
16.4132765886
 30
0.0
 11
366.269410375
 21
15.5186144887
 31
0.0
  0
LINE
  5
155
330
1F
100
AcDbEntity
  8
0
  6
Continuous
 62
   179
420
  2171202
370
    18
100
AcDbLine
 10
4.2067456203
 20
142.0329095753
 30
0.0
 11
16.2067456203
 21
142.0329095753
 31
0.0
  0
LINE
  5
156
330
1F
100
AcDbEntity
  8
0
  6
Continuous
 62
   179
420
  2171202
370
    18
100
AcDbLine
 10
355.2297038174
 20
20.194438393
 30
0.0
 11
355.2297038174
 21
4.0441726691
 31
0.0
  0
LINE
  5
157
330
1F
100
AcDbEntity
  8
0
  6
Continuous
 62
     7
370
    50
100
AcDbLine
 10
0.1625818106
 20
242.6533579213
 30
0.0
 11
4.2067456203
 21
242.6533579213
 31
0.0
  0
LINE
  5
158
330
1F
100
AcDbEntity
  8
0
  6
Continuous
 62
     7
370
    50
100
AcDbLine
 10
0.1625818106
 20
144.023582534
 30
0.0
 11
4.2067456203
 21
144.023582534
 31
0.0
  0
LINE
  5
159
330
1F
100
AcDbEntity
  8
0
  6
Continuous
 62
     7
370
    50
100
AcDbLine
 10
4.2067456203
 20
92.6533579213
 30
0.0
 11
0.1625818106
 21
92.6533579213
 31
0.0
  0
LINE
  5
15A
330
1F
100
AcDbEntity
  8
0
  6
Continuous
 62
     7
370
    50
100
AcDbLine
 10
4.2067456203
 20
192.6533579213
 30
0.0
 11
0.1625818106
 21
192.6533579213
 31
0.0
  0
LINE
  5
15B
330
1F
100
AcDbEntity
  8
0
  6
Continuous
 62
     7
370
    50
100
AcDbLine
 10
4.2067456203
 20
44.4996270605
 30
0.0
 11
0.1625818106
 21
44.4996270605
 31
0.0
  0
LINE
  5
15C
330
1F
100
AcDbEntity
  8
0
 62
     1
100
AcDbLine
 10
11110.1912980991
 20
649.7529311159
 30
0.0
 11
11114.3441232929
 21
659.0957861746
 31
0.0
  0
LINE
  5
15D
330
1F
100
AcDbEntity
  8
0
  6
Continuous
 62
   152
420
    29153
370
    18
100
AcDbLine
 10
11106.1293896915
 20
665.1575325197
 30
0.0
 11
11112.5932703524
 21
659.9604813239
 31
0.0
  0
LINE
  5
15E
330
1F
100
AcDbEntity
  8
0
  6
Continuous
 62
    40
420
 16760576
370
    18
100
AcDbLine
 10
11113.6196886325
 20
658.9318269638
 30
0.0
 11
11107.7165807749
 21
651.313488278
 31
0.0
  0
LINE
  5
15F
330
1F
100
AcDbEntity
  8
0
  6
Continuous
 62
    40
420
 16760576
370
    18
100
AcDbLine
 10
11105.2308774773
 20
654.3680382715
 30
0.0
 11
11113.6196886325
 21
658.9318269638
 31
0.0
  0
LINE
  5
160
330
1F
100
AcDbEntity
  8
0
 62
     2
420
 16776960
100
AcDbLine
 10
11113.0823173815
 20
659.2334956122
 30
0.0
 11
11104.3349291597
 21
656.9359468178
 31
0.0
  0
LINE
  5
161
330
1F
100
AcDbEntity
  8
0
 62
     2
420
 16776960
100
AcDbLine
 10
11104.2095911179
 20
660.5310900797
 30
0.0
 11
11113.0823173815
 21
659.2334956122
 31
0.0
  0
LINE
  5
162
330
1F
100
AcDbEntity
  8
0
  6
Continuous
 62
   152
420
    29153
370
    18
100
AcDbLine
 10
11112.5932703524
 20
659.9604813239
 30
0.0
 11
11104.6725093145
 21
662.4559831974
 31
0.0
  0
LINE
  5
163
330
1F
100
AcDbEntity
  8
0
 62
     3
420
    65280
100
AcDbLine
 10
11112.5234760044
 20
660.6967509741
 30
0.0
 11
11107.6013181424
 21
666.7160135788
 31
0.0
  0
LINE
  5
164
330
1F
100
AcDbEntity
  8
0
 62
     1
100
AcDbLine
 10
11097.5211186237
 20
670.1005582823
 30
0.0
 11
11101.6739438175
 21
679.443413341
 31
0.0
  0
LINE
  5
165
330
1F
100
AcDbEntity
  8
0
  6
Continuous
 62
   152
420
    29153
370
    18
100
AcDbLine
 10
11093.4592102162
 20
685.5051596862
 30
0.0
 11
11099.9230908771
 21
680.3081084903
 31
0.0
  0
LINE
  5
166
330
1F
100
AcDbEntity
  8
0
  6
Continuous
 62
    40
420
 16760576
370
    18
100
AcDbLine
 10
11100.9495091572
 20
679.2794541303
 30
0.0
 11
11095.0464012996
 21
671.6611154444
 31
0.0
  0
LINE
  5
167
330
1F
100
AcDbEntity
  8
0
  6
Continuous
 62
    40
420
 16760576
370
    18
100
AcDbLine
 10
11092.560698002
 20
674.7156654379
 30
0.0
 11
11100.9495091572
 21
679.2794541303
 31
0.0
  0
LINE
  5
168
330
1F
100
AcDbEntity
  8
0
 62
     2
420
 16776960
100
AcDbLine
 10
11100.4121379062
 20
679.5811227786
 30
0.0
 11
11091.6647496844
 21
677.2835739842
 31
0.0
  0
LINE
  5
169
330
1F
100
AcDbEntity
  8
0
 62
     2
420
 16776960
100
AcDbLine
 10
11091.5394116425
 20
680.8787172461
 30
0.0
 11
11100.4121379062
 21
679.5811227786
 31
0.0
  0
LINE
  5
16A
330
1F
100
AcDbEntity
  8
0
  6
Continuous
 62
   152
420
    29153
370
    18
100
AcDbLine
 10
11099.9230908771
 20
680.3081084903
 30
0.0
 11
11092.0023298391
 21
682.8036103638
 31
0.0
  0
LINE
  5
16B
330
1F
100
AcDbEntity
  8
0
 62
     3
420
    65280
100
AcDbLine
 10
11099.853296529
 20
681.0443781405
 30
0.0
 11
11094.9311386671
 21
687.0636407452
 31
0.0
  0
ARC
  5
16C
330
1F
100
AcDbEntity
  8
0
  6
Continuous
 62
   179
420
  2171202
370
    18
100
AcDbCircle
 10
11114.0449955814
 20
656.9712908545
 30
0.0
 40
8.182646369073082
100
AcDbArc
 50
241.903382839
 51
272.8090785615
  0
ARC
  5
16D
330
1F
100
AcDbEntity
  8
0
  6
Continuous
 62
   179
420
  2171202
370
    18
100
AcDbCircle
 10
11113.92312873
 20
658.9028664323
 30
0.0
 40
9.804075595850525
100
AcDbArc
 50
207.5514672998
 51
230.7239057079
  0
ARC
  5
16E
330
1F
100
AcDbEntity
  8
0
  6
Continuous
 62
   179
420
  2171202
370
    18
100
AcDbCircle
 10
11112.5437908846
 20
659.021890119
 30
0.0
 40
8.469744404219789
100
AcDbArc
 50
169.7358134404
 51
194.2575926155
  0
ARC
  5
16F
330
1F
100
AcDbEntity
  8
0
  6
Continuous
 62
   179
420
  2171202
370
    18
100
AcDbCircle
 10
11112.2525247946
 20
660.111868592
 30
0.0
 40
7.934198633930817
100
AcDbArc
 50
140.5103594353
 51
162.8158121712
  0
ARC
  5
170
330
1F
100
AcDbEntity
  8
0
  6
Continuous
 62
   179
420
  2171202
370
    18
100
AcDbCircle
 10
11114.8799053739
 20
659.4481420938
 30
0.0
 40
9.544514020341701
100
AcDbArc
 50
32.3547056469
 51
50.5965739294
  0
ARC
  5
171
330
1F
100
AcDbEntity
  8
0
  6
Continuous
 62
   179
420
  2171202
370
    18
100
AcDbCircle
 10
11115.1975929709
 20
661.5116935339
 30
0.0
 40
7.596485663811552
100
AcDbArc
 50
56.7188767511
 51
78.5906663121
  0
ARC
  5
172
330
1F
100
AcDbEntity
  8
0
  6
Continuous
 62
   179
420
  2171202
370
    18
100
AcDbCircle
 10
11114.1162322702
 20
660.7296825028
 30
0.0
 40
8.529528985603195
100
AcDbArc
 50
85.9928071143
 51
106.2806696564
  0
ARC
  5
173
330
1F
100
AcDbEntity
  8
0
  6
Continuous
 62
   179
420
  2171202
370
    18
100
AcDbCircle
 10
11112.5193822083
 20
661.5030564068
 30
0.0
 40
7.166747981713402
100
AcDbArc
 50
110.4040935387
 51
133.332708959
  0
ARC
  5
174
330
1F
100
AcDbEntity
  8
0
  6
Continuous
 62
   179
420
  2171202
370
    18
100
AcDbCircle
 10
11101.374816106
 20
677.3189180209
 30
0.0
 40
8.182646369072817
100
AcDbArc
 50
241.903382839
 51
272.8090785615
  0
ARC
  5
175
330
1F
100
AcDbEntity
  8
0
  6
Continuous
 62
   179
420
  2171202
370
    18
100
AcDbCircle
 10
11101.2529492547
 20
679.2504935987
 30
0.0
 40
9.804075595851595
100
AcDbArc
 50
207.5514672998
 51
230.7239057079
  0
ARC
  5
176
330
1F
100
AcDbEntity
  8
0
  6
Continuous
 62
   179
420
  2171202
370
    18
100
AcDbCircle
 10
11099.8736114092
 20
679.3695172854
 30
0.0
 40
8.469744404220732
100
AcDbArc
 50
169.7358134404
 51
194.2575926155
  0
ARC
  5
177
330
1F
100
AcDbEntity
  8
0
  6
Continuous
 62
   179
420
  2171202
370
    18
100
AcDbCircle
 10
11099.5823453193
 20
680.4594957584
 30
0.0
 40
7.934198633931738
100
AcDbArc
 50
140.5103594353
 51
162.8158121712
  0
ARC
  5
178
330
1F
100
AcDbEntity
  8
0
  6
Continuous
 62
   179
420
  2171202
370
    18
100
AcDbCircle
 10
11102.2097258985
 20
679.7957692602
 30
0.0
 40
9.544514020344682
100
AcDbArc
 50
32.3547056469
 51
50.5965739294
  0
ARC
  5
179
330
1F
100
AcDbEntity
  8
0
  6
Continuous
 62
   179
420
  2171202
370
    18
100
AcDbCircle
 10
11102.5274134956
 20
681.8593207003
 30
0.0
 40
7.596485663811552
100
AcDbArc
 50
56.7188767511
 51
78.5906663121
  0
ARC
  5
17A
330
1F
100
AcDbEntity
  8
0
  6
Continuous
 62
   179
420
  2171202
370
    18
100
AcDbCircle
 10
11101.4460527949
 20
681.0773096692
 30
0.0
 40
8.52952898559791
100
AcDbArc
 50
85.9928071143
 51
106.2806696564
  0
ARC
  5
17B
330
1F
100
AcDbEntity
  8
0
  6
Continuous
 62
   179
420
  2171202
370
    18
100
AcDbCircle
 10
11099.8492027329
 20
681.8506835732
 30
0.0
 40
7.16674798171332
100
AcDbArc
 50
110.4040935387
 51
133.332708959
  0
CIRCLE
  5
17C
330
1F
100
AcDbEntity
  8
0
  6
Continuous
 62
   179
420
  2171202
370
    18
100
AcDbCircle
 10
369.4295642554
 20
17.502727439
 30
0.0
 40
1.089450850404465
  0
CIRCLE
  5
17D
330
1F
100
AcDbEntity
  8
0
  6
Continuous
 62
   179
420
  2171202
370
    18
100
AcDbCircle
 10
369.4295642554
 20
17.502727439
 30
0.0
 40
1.984112950318174
  0
INSERT
  5
187
330
1F
100
AcDbEntity
  8
0
  6
Continuous
 62
   190
420
  8388863
370
    18
100
AcDbBlockReference
  2
SW_NOTE_0
 10
-112.8560263402
 20
266.5746124016
 30
0.0
  0
INSERT
  5
190
330
1F
100
AcDbEntity
  8
0
  6
Continuous
 62
   190
420
  8388863
370
    18
100
AcDbBlockReference
  2
SW_NOTE_0_1
 10
22.0197962636
 20
36.5492283917
 30
0.0
  0
INSERT
  5
1A0
330
1F
100
AcDbEntity
  8
0
  6
Continuous
 62
   190
420
  8388863
370
    18
100
AcDbBlockReference
  2
SW_NOTE_0_2
 10
-164.6095965625
 20
197.2786915003
 30
0.0
  0
INSERT
  5
1AC
330
1F
100
AcDbEntity
  8
0
  6
Continuous
 62
   190
420
  8388863
370
    18
100
AcDbBlockReference
  2
SW_NOTE_0_3
 10
-165.2062687895
 20
112.4773771412
 30
0.0
  0
INSERT
  5
1B6
330
1F
100
AcDbEntity
  8
0
  6
Continuous
 62
   190
420
  8388863
370
    18
100
AcDbBlockReference
  2
SW_NOTE_0_4
 10
-165.7822439236
 20
56.3764442445
 30
0.0
  0
INSERT
  5
1C0
330
1F
100
AcDbEntity
  8
0
  6
Continuous
 62
   190
420
  8388863
370
    18
100
AcDbBlockReference
  2
SW_NOTE_0_5
 10
-113.8594555137
 20
231.9297232515
 30
0.0
  0
INSERT
  5
1C8
330
1F
100
AcDbEntity
  8
0
  6
Continuous
 62
   190
420
  8388863
370
    18
100
AcDbBlockReference
  2
SW_NOTE_0_6
 10
-144.8381956539
 20
302.4468120231
 30
0.0
  0
MTEXT
  5
1CA
330
1F
100
AcDbEntity
  8
0
  6
Continuous
 62
     7
370
     0
100
AcDbMText
 10
72.67324845
 20
295.8051320331
 30
0.0
 40
1.8520833333
 41
0.0
 46
0.0
 71
     1
 72
     1
  1
2
  7
SLDTEXTSTYLE1
 73
     1
 44
1.0
  0
MTEXT
  5
1CB
330
1F
100
AcDbEntity
  8
0
  6
Continuous
 62
     7
370
     0
100
AcDbMText
 10
22.319773
 20
295.8051320331
 30
0.0
 40
1.8520833333
 41
0.0
 46
0.0
 71
     1
 72
     1
  1
1
  7
SLDTEXTSTYLE1
 73
     1
 44
1.0
  0
MTEXT
  5
1CC
330
1F
100
AcDbEntity
  8
0
  6
Continuous
 62
     7
370
     0
100
AcDbMText
 10
195.0356875777
 20
295.8051320331
 30
0.0
 40
1.8520833333
 41
0.0
 46
0.0
 71
     1
 72
     1
  1
4
  7
SLDTEXTSTYLE1
 73
     1
 44
1.0
  0
MTEXT
  5
1CD
330
1F
100
AcDbEntity
  8
0
  6
Continuous
 62
     7
370
     0
100
AcDbMText
 10
132.797087203
 20
295.8051320331
 30
0.0
 40
1.8520833333
 41
0.0
 46
0.0
 71
     1
 72
     1
  1
3
  7
SLDTEXTSTYLE1
 73
     1
 44
1.0
  0
MTEXT
  5
1CE
330
1F
100
AcDbEntity
  8
0
  6
Continuous
 62
     7
370
     0
100
AcDbMText
 10
258.8733638658
 20
295.8051320331
 30
0.0
 40
1.8520833333
 41
0.0
 46
0.0
 71
     1
 72
     1
  1
5
  7
SLDTEXTSTYLE1
 73
     1
 44
1.0
  0
MTEXT
  5
1CF
330
1F
100
AcDbEntity
  8
0
  6
Continuous
 62
     7
370
     0
100
AcDbMText
 10
326.8392879616
 20
295.8051320331
 30
0.0
 40
1.8520833333
 41
0.0
 46
0.0
 71
     1
 72
     1
  1
6
  7
SLDTEXTSTYLE1
 73
     1
 44
1.0
  0
MTEXT
  5
1D0
330
1F
100
AcDbEntity
  8
0
  6
Continuous
 62
     7
370
     0
100
AcDbMText
 10
390.6471098637
 20
295.8051320331
 30
0.0
 40
1.8520833333
 41
0.0
 46
0.0
 71
     1
 72
     1
  1
7
  7
SLDTEXTSTYLE1
 73
     1
 44
1.0
  0
MTEXT
  5
1D1
330
1F
100
AcDbEntity
  8
0
  6
Continuous
 62
     7
370
     0
100
AcDbMText
 10
416.8123787727
 20
278.7008702879
 30
0.0
 40
1.8520833333
 41
0.0
 46
0.0
 71
     1
 72
     1
  1
A
  7
SLDTEXTSTYLE1
 73
     1
 44
1.0
  0
MTEXT
  5
1D2
330
1F
100
AcDbEntity
  8
0
  6
Continuous
 62
     7
370
     0
100
AcDbMText
 10
416.8123787727
 20
218.7756055936
 30
0.0
 40
1.8520833333
 41
0.0
 46
0.0
 71
     1
 72
     1
  1
B
  7
SLDTEXTSTYLE1
 73
     1
 44
1.0
  0
MTEXT
  5
1D4
330
1F
100
AcDbEntity
  8
0
  6
Continuous
 62
     7
370
     0
100
AcDbMText
 10
368.8018805161
 20
3.2667143301
 30
0.0
 40
2.1166666667
 41
0.0
 46
0.0
 71
     1
 72
     1
  1
比例:1:1
  7
SLDTEXTSTYLE2
 73
     1
 44
1.0
  0
MTEXT
  5
1D5
330
1F
100
AcDbEntity
  8
0
  6
Continuous
 62
     7
370
     0
100
AcDbMText
 10
417.1119872331
 20
118.10962195
 30
0.0
 40
1.8520833333
 41
0.0
 46
0.0
 71
     1
 72
     1
  1
D
  7
SLDTEXTSTYLE1
 73
     1
 44
1.0
  0
MTEXT
  5
1D6
330
1F
100
AcDbEntity
  8
0
  6
Continuous
 62
     7
370
     0
100
AcDbMText
 10
416.8123787727
 20
169.0899797328
 30
0.0
 40
1.8520833333
 41
0.0
 46
0.0
 71
     1
 72
     1
  1
C
  7
SLDTEXTSTYLE1
 73
     1
 44
1.0
  0
MTEXT
  5
1D7
330
1F
100
AcDbEntity
  8
0
  6
Continuous
 62
     7
420
 16777215
370
    18
100
AcDbMText
 10
364.3411701954
 20
13.6365803568
 30
0.0
 40
3.0
 41
0.0
 46
0.0
 71
     1
 72
     1
  1
重量(g)
  7
SLDTEXTSTYLE2
 73
     1
 44
1.0
  0
MTEXT
  5
1D8
330
1F
100
AcDbEntity
  8
0
  6
Continuous
 62
     7
420
 16777215
370
    18
100
AcDbMText
 10
416.813567214
 20
70.6701677517
 30
0.0
 40
1.8520833333
 41
0.0
 46
0.0
 71
     1
 72
     1
  1
E
  7
SLDTEXTSTYLE1
 73
     1
 44
1.0
  0
MTEXT
  5
1D9
330
1F
100
AcDbEntity
  8
0
  6
Continuous
 62
     7
420
 16777215
370
    18
100
AcDbMText
 10
416.8125927566
 20
25.437045295
 30
0.0
 40
1.8520833333
 41
0.0
 46
0.0
 71
     1
 72
     1
  1
F
  7
SLDTEXTSTYLE1
 73
     1
 44
1.0
  0
MTEXT
  5
1DA
330
1F
100
AcDbEntity
  8
0
  6
Continuous
 62
     7
420
 16777215
370
    18
100
AcDbMText
 10
75.8982025974
 20
2.8291824776
 30
0.0
 40
1.8520833333
 41
0.0
 46
0.0
 71
     1
 72
     1
  1
2
  7
SLDTEXTSTYLE1
 73
     1
 44
1.0
  0
MTEXT
  5
1DB
330
1F
100
AcDbEntity
  8
0
  6
Continuous
 62
     7
420
 16777215
370
    18
100
AcDbMText
 10
25.7823898142
 20
2.9742342514
 30
0.0
 40
1.8520833333
 41
0.0
 46
0.0
 71
     1
 72
     1
  1
1
  7
SLDTEXTSTYLE1
 73
     1
 44
1.0
  0
MTEXT
  5
1DC
330
1F
100
AcDbEntity
  8
0
  6
Continuous
 62
     7
420
 16777215
370
    18
100
AcDbMText
 10
260.510913421
 20
2.5694746621
 30
0.0
 40
1.8520833333
 41
0.0
 46
0.0
 71
     1
 72
     1
  1
5
  7
SLDTEXTSTYLE1
 73
     1
 44
1.0
  0
MTEXT
  5
1DD
330
1F
100
AcDbEntity
  8
0
  6
Continuous
 62
     7
420
 16777215
370
    18
100
AcDbMText
 10
192.7510587565
 20
2.5694746621
 30
0.0
 40
1.8520833333
 41
0.0
 46
0.0
 71
     1
 72
     1
  1
4
  7
SLDTEXTSTYLE1
 73
     1
 44
1.0
  0
MTEXT
  5
1DE
330
1F
100
AcDbEntity
  8
0
  6
Continuous
 62
     7
420
 16777215
370
    18
100
AcDbMText
 10
131.3967821739
 20
2.5694746621
 30
0.0
 40
1.8520833333
 41
0.0
 46
0.0
 71
     1
 72
     1
  1
3
  7
SLDTEXTSTYLE1
 73
     1
 44
1.0
  0
MTEXT
  5
1DF
330
1F
100
AcDbEntity
  8
0
  6
Continuous
 62
     7
370
    18
100
AcDbMText
 10
389.9342683991
 20
3.7153826415
 30
0.0
 40
2.9104166667
 41
0.0
 46
0.0
 71
     1
 72
     1
  1
第1张  共1张
  7
SLDTEXTSTYLE2
 73
     1
 44
1.0
  0
MTEXT
  5
1E0
330
1F
100
AcDbEntity
  8
0
  6
Continuous
 62
   179
420
  2171202
370
    18
100
AcDbMText
 10
1.8290843851
 20
218.7756055936
 30
0.0
 40
1.8520833333
 41
0.0
 46
0.0
 71
     1
 72
     1
  1
B
  7
SLDTEXTSTYLE1
 73
     1
 44
1.0
  0
MTEXT
  5
1E1
330
1F
100
AcDbEntity
  8
0
  6
Continuous
 62
   179
420
  2171202
370
    18
100
AcDbMText
 10
1.8290843851
 20
169.0899797328
 30
0.0
 40
1.8520833333
 41
0.0
 46
0.0
 71
     1
 72
     1
  1
C
  7
SLDTEXTSTYLE1
 73
     1
 44
1.0
  0
MTEXT
  5
1E2
330
1F
100
AcDbEntity
  8
0
  6
Continuous
 62
   179
420
  2171202
370
    18
100
AcDbMText
 10
1.8302728264
 20
70.6701677517
 30
0.0
 40
1.8520833333
 41
0.0
 46
0.0
 71
     1
 72
     1
  1
E
  7
SLDTEXTSTYLE1
 73
     1
 44
1.0
  0
MTEXT
  5
1E3
330
1F
100
AcDbEntity
  8
0
  6
Continuous
 62
   179
420
  2171202
370
    18
100
AcDbMText
 10
1.829298369
 20
25.437045295
 30
0.0
 40
1.8520833333
 41
0.0
 46
0.0
 71
     1
 72
     1
  1
F
  7
SLDTEXTSTYLE1
 73
     1
 44
1.0
  0
MTEXT
  5
1E4
330
1F
100
AcDbEntity
  8
0
  6
Continuous
 62
   179
420
  2171202
370
    18
100
AcDbMText
 10
1.8290843851
 20
278.7008702879
 30
0.0
 40
1.8520833333
 41
0.0
 46
0.0
 71
     1
 72
     1
  1
A
  7
SLDTEXTSTYLE1
 73
     1
 44
1.0
  0
MTEXT
  5
1E6
330
1F
100
AcDbEntity
  8
0
  6
Continuous
 62
     7
420
 16777215
370
    18
100
AcDbMText
 10
278.8047483456
 20
26.5492658759
 30
0.0
 40
2.9104166667
 41
0.0
 46
0.0
 71
     1
 72
     1
  1
邓乔
  7
SLDTEXTSTYLE3
 73
     1
 44
1.0
  0
MTEXT
  5
1E7
330
1F
100
AcDbEntity
  8
0
  6
Continuous
 62
     7
420
 16777215
370
    18
100
AcDbMText
 10
325.494155387
 20
31.6030815777
 30
0.0
 40
3.96875
 41
0.0
 46
0.0
 71
     2
 72
     1
  1
电调板
  7
SLDTEXTSTYLE2
 73
     1
 44
1.0
  0
MTEXT
  5
1E9
330
1F
100
AcDbEntity
  8
0
  6
Continuous
 62
     7
370
     0
100
AcDbMText
 10
290.7239648682
 20
25.382950009
 30
0.0
 40
1.8520833333
 41
0.0
 46
0.0
 71
     1
 72
     1
  1
2026-04-21
  7
SLDTEXTSTYLE4
 73
     1
 44
1.0
  0
MTEXT
  5
1EA
330
1F
100
AcDbEntity
  8
0
  6
Continuous
 62
     7
420
 16777215
370
    18
100
AcDbMText
 10
321.6220096378
 20
19.9694369271
 30
0.0
 40
3.5
 41
0.0
 46
0.0
 71
     1
 72
     1
  1
AL6061
  7
SLDTEXTSTYLE4
 73
     1
 44
1.0
  0
MTEXT
  5
1EB
330
1F
100
AcDbEntity
  8
0
  6
Continuous
 62
     7
420
 16777215
370
    18
100
AcDbMText
 10
310.1780512259
 20
19.13201359
 30
0.0
 40
3.175
 41
0.0
 46
0.0
 71
     1
 72
     1
  1
材料
  7
SLDTEXTSTYLE2
 73
     1
 44
1.0
  0
MTEXT
  5
1EC
330
1F
100
AcDbEntity
  8
0
  6
Continuous
 62
     7
420
 16777215
370
    18
100
AcDbMText
 10
309.9945039743
 20
13.6068833372
 30
0.0
 40
3.175
 41
0.0
 46
0.0
 71
     1
 72
     1
  1
厚度
  7
SLDTEXTSTYLE2
 73
     1
 44
1.0
  0
MTEXT
  5
1EE
330
1F
100
AcDbEntity
  8
0
  6
Continuous
 62
   179
420
  2171202
370
    18
100
AcDbMText
 10
272.5375962581
 20
29.809068658
 30
0.0
 40
2.1166666667
 41
0.0
 46
0.0
 71
     1
 72
     1
  1
处数
  7
SLDTEXTSTYLE5
 73
     1
 44
1.0
  0
MTEXT
  5
1EF
330
1F
100
AcDbEntity
  8
0
  6
Continuous
 62
   179
420
  2171202
370
    18
100
AcDbMText
 10
288.441878457
 20
29.809068658
 30
0.0
 40
2.1166666667
 41
0.0
 46
0.0
 71
     1
 72
     1
  1
签名
  7
SLDTEXTSTYLE5
 73
     1
 44
1.0
  0
MTEXT
  5
1F0
330
1F
100
AcDbEntity
  8
0
  6
Continuous
 62
   179
420
  2171202
370
    18
100
AcDbMText
 10
267.0982855515
 20
29.809068658
 30
0.0
 40
2.1166666667
 41
0.0
 46
0.0
 71
     1
 72
     1
  1
标记
  7
SLDTEXTSTYLE5
 73
     1
 44
1.0
  0
MTEXT
  5
1F1
330
1F
100
AcDbEntity
  8
0
  6
Continuous
 62
   179
420
  2171202
370
    18
100
AcDbMText
 10
298.7962223884
 20
29.809068658
 30
0.0
 40
2.1166666667
 41
0.0
 46
0.0
 71
     1
 72
     1
  1
更改日期
  7
SLDTEXTSTYLE5
 73
     1
 44
1.0
  0
MTEXT
  5
1F3
330
1F
100
AcDbEntity
  8
0
  6
Continuous
 62
     7
420
 16777215
370
    18
100
AcDbMText
 10
342.7031327951
 20
39.4049774712
 30
0.0
 40
3.175
 41
0.0
 46
0.0
 71
     1
 72
     1
  1
表面处理
  7
SLDTEXTSTYLE6
 73
     1
 44
1.0
  0
MTEXT
  5
1F5
330
1F
100
AcDbEntity
  8
0
  6
Continuous
 62
     7
420
 16777215
370
    18
100
AcDbMText
 10
266.9294418135
 20
26.4426002234
 30
0.0
 40
3.175
 41
0.0
 46
0.0
 71
     1
 72
     1
  1
设 计
  7
SLDTEXTSTYLE7
 73
     1
 44
1.0
  0
MTEXT
  5
1F6
330
1F
100
AcDbEntity
  8
0
  6
Continuous
 62
   179
420
  2171202
370
    18
100
AcDbMText
 10
2.1286928456
 20
118.10962195
 30
0.0
 40
1.8520833333
 41
0.0
 46
0.0
 71
     1
 72
     1
  1
D
  7
SLDTEXTSTYLE1
 73
     1
 44
1.0
  0
MTEXT
  5
1F7
330
1F
100
AcDbEntity
  8
0
  6
Continuous
 62
     7
420
 16777215
370
    18
100
AcDbMText
 10
310.1780512259
 20
8.2895440398
 30
0.0
 40
3.175
 41
0.0
 46
0.0
 71
     1
 72
     1
  1
单位
  7
SLDTEXTSTYLE2
 73
     1
 44
1.0
  0
MTEXT
  5
1F9
330
1F
100
AcDbEntity
  8
0
  6
Continuous
 62
     7
420
 16777215
370
    18
100
AcDbMText
 10
319.1567277367
 20
9.1673159564
 30
0.0
 40
3.7041666667
 41
0.0
 46
0.0
 71
     1
 72
     1
  1
mm
  7
SLDTEXTSTYLE8
 73
     1
 44
1.0
  0
MTEXT
  5
1FA
330
1F
100
AcDbEntity
  8
0
  6
Continuous
 62
   179
420
  2171202
370
    18
100
AcDbMText
 10
326.7580842706
 20
3.0199905241
 30
0.0
 40
1.8520833333
 41
0.0
 46
0.0
 71
     1
 72
     1
  1
6
  7
SLDTEXTSTYLE1
 73
     1
 44
1.0
  0
MTEXT
  5
1FB
330
1F
100
AcDbEntity
  8
0
  6
Continuous
 62
     7
420
 16777215
370
    18
100
AcDbMText
 10
342.467947768
 20
24.4463009662
 30
0.0
 40
3.175
 41
0.0
 46
0.0
 71
     1
 72
     1
  1
型  号
  7
SLDTEXTSTYLE2
 73
     1
 44
1.0
  0
MTEXT
  5
1FC
330
1F
100
AcDbEntity
  8
0
  6
Continuous
 62
   179
420
  2171202
370
    18
100
AcDbMText
 10
278.1208859055
 20
29.809068658
 30
0.0
 40
2.1166666667
 41
0.0
 46
0.0
 71
     1
 72
     1
  1
分区
  7
SLDTEXTSTYLE5
 73
     1
 44
1.0
  0
MTEXT
  5
1FE
330
1F
100
AcDbEntity
  8
0
  6
Continuous
 62
     7
420
 16777215
370
    18
100
AcDbMText
 10
356.4439248964
 20
13.6365803568
 30
0.0
 40
3.0
 41
0.0
 46
0.0
 71
     1
 72
     1
  1
数量
  7
SLDTEXTSTYLE9
 73
     1
 44
1.0
  0
INSERT
  5
208
330
1F
100
AcDbEntity
  8
0
  6
Continuous
 62
   179
420
  2171202
370
    18
100
AcDbBlockReference
  2
SW_NOTE_0_7
 10
6.7463994313
 20
75.2979468755
 30
0.0
  0
INSERT
  5
216
330
1F
100
AcDbEntity
  8
0
  6
Continuous
 62
   179
420
  2171202
370
    18
100
AcDbBlockReference
  2
SW_NOTE_0_8
 10
4.4547955904
 20
114.4525890292
 30
0.0
  0
INSERT
  5
21D
330
1F
100
AcDbEntity
  8
0
  6
Continuous
 62
   179
420
  2171202
370
    18
100
AcDbBlockReference
  2
SW_NOTE_0_9
 10
11.6477197813
 20
164.5244234278
 30
0.0
  0
MTEXT
  5
21E
330
1F
100
AcDbEntity
  8
0
  6
Continuous
 62
   179
420
  2171202
370
    18
100
AcDbMText
 10
4.7809373272
 20
168.6868550147
 30
0.0
 40
2.6458333333
 41
0.0
 46
0.0
 71
     2
 72
     1
  1
400-1000
  7
SLDTEXTSTYLE12
 11
-3.491481338843133E-15
 21
1.0
 31
0.0
 73
     1
 44
1.0
  0
INSERT
  5
224
330
1F
100
AcDbEntity
  8
0
  6
Continuous
 62
   179
420
  2171202
370
    18
100
AcDbBlockReference
  2
SW_NOTE_0_10
 10
15.8830228216
 20
164.4390973328
 30
0.0
  0
INSERT
  5
22A
330
1F
100
AcDbEntity
  8
0
  6
Continuous
 62
   179
420
  2171202
370
    18
100
AcDbBlockReference
  2
SW_NOTE_0_11
 10
11.8063686897
 20
183.3444273954
 30
0.0
  0
MTEXT
  5
22B
330
1F
100
AcDbEntity
  8
0
  6
Continuous
 62
   179
420
  2171202
370
    18
100
AcDbMText
 10
4.7130549426
 20
187.2218576208
 30
0.0
 40
2.6458333333
 41
0.0
 46
0.0
 71
     2
 72
     1
  1
120-400
  7
SLDTEXTSTYLE12
 11
-3.491481338843133E-15
 21
1.0
 31
0.0
 73
     1
 44
1.0
  0
INSERT
  5
231
330
1F
100
AcDbEntity
  8
0
  6
Continuous
 62
   179
420
  2171202
370
    18
100
AcDbBlockReference
  2
SW_NOTE_0_12
 10
15.6894688366
 20
183.1728359119
 30
0.0
  0
INSERT
  5
237
330
1F
100
AcDbEntity
  8
0
  6
Continuous
 62
   179
420
  2171202
370
    18
100
AcDbBlockReference
  2
SW_NOTE_0_13
 10
11.8934321483
 20
201.3040445874
 30
0.0
  0
MTEXT
  5
238
330
1F
100
AcDbEntity
  8
0
  6
Continuous
 62
   179
420
  2171202
370
    18
100
AcDbMText
 10
4.9482718751
 20
205.6674559381
 30
0.0
 40
2.6458333333
 41
0.0
 46
0.0
 71
     2
 72
     1
  1
30-120
  7
SLDTEXTSTYLE12
 11
-3.491481338843133E-15
 21
1.0
 31
0.0
 73
     1
 44
1.0
  0
INSERT
  5
23E
330
1F
100
AcDbEntity
  8
0
  6
Continuous
 62
   179
420
  2171202
370
    18
100
AcDbBlockReference
  2
SW_NOTE_0_14
 10
15.6812054474
 20
201.0951246887
 30
0.0
  0
INSERT
  5
244
330
1F
100
AcDbEntity
  8
0
  6
Continuous
 62
   179
420
  2171202
370
    18
100
AcDbBlockReference
  2
SW_NOTE_0_15
 10
11.7478669287
 20
219.9589993973
 30
0.0
  0
MTEXT
  5
245
330
1F
100
AcDbEntity
  8
0
  6
Continuous
 62
   179
420
  2171202
370
    18
100
AcDbMText
 10
4.8968208428
 20
223.9091805825
 30
0.0
 40
2.6458333333
 41
0.0
 46
0.0
 71
     2
 72
     1
  1
6-30
  7
SLDTEXTSTYLE12
 11
-3.491481338843133E-15
 21
1.0
 31
0.0
 73
     1
 44
1.0
  0
INSERT
  5
24B
330
1F
100
AcDbEntity
  8
0
  6
Continuous
 62
   179
420
  2171202
370
    18
100
AcDbBlockReference
  2
SW_NOTE_0_16
 10
15.7532153882
 20
219.8596353986
 30
0.0
  0
MTEXT
  5
24C
330
1F
100
AcDbEntity
  8
0
  6
Continuous
 62
   179
420
  2171202
370
    18
100
AcDbMText
 10
5.1072803419
 20
241.5896336479
 30
0.0
 40
2.6458333333
 41
0.0
 46
0.0
 71
     2
 72
     1
  1
3-6
  7
SLDTEXTSTYLE12
 11
-3.491481338843133E-15
 21
1.0
 31
0.0
 73
     1
 44
1.0
  0
INSERT
  5
252
330
1F
100
AcDbEntity
  8
0
  6
Continuous
 62
   179
420
  2171202
370
    18
100
AcDbBlockReference
  2
SW_NOTE_0_17
 10
12.0738655876
 20
236.7210909752
 30
0.0
  0
INSERT
  5
258
330
1F
100
AcDbEntity
  8
0
  6
Continuous
 62
   179
420
  2171202
370
    18
100
AcDbBlockReference
  2
SW_NOTE_0_18
 10
15.702806497
 20
236.8685445544
 30
0.0
  0
INSERT
  5
25E
330
1F
100
AcDbEntity
  8
0
  6
Continuous
 62
   179
420
  2171202
370
    18
100
AcDbBlockReference
  2
SW_NOTE_0_19
 10
11.9822295247
 20
146.5401184965
 30
0.0
  0
MTEXT
  5
25F
330
1F
100
AcDbEntity
  8
0
  6
Continuous
 62
   179
420
  2171202
370
    18
100
AcDbMText
 10
4.7910968814
 20
150.4926305022
 30
0.0
 40
2.6458333333
 41
0.0
 46
0.0
 71
     2
 72
     1
  1
1000-2000
  7
SLDTEXTSTYLE12
 11
-3.491481338843133E-15
 21
1.0
 31
0.0
 73
     1
 44
1.0
  0
INSERT
  5
265
330
1F
100
AcDbEntity
  8
0
  6
Continuous
 62
   179
420
  2171202
370
    18
100
AcDbBlockReference
  2
SW_NOTE_0_20
 10
15.6623557458
 20
146.4860875785
 30
0.0
  0
MTEXT
  5
267
330
1F
100
AcDbEntity
  8
0
  6
Continuous
 62
   179
420
  2171202
370
    18
100
AcDbMText
 10
15.3160187155
 20
275.9237666696
 30
0.0
 40
2.6458333333
 41
0.0
 46
0.0
 71
     2
 72
     1
  1
级精度
  7
SLDTEXTSTYLE13
 11
1.047444401652940E-14
 21
-1.0
 31
0.0
 73
     1
 44
1.0
  0
MTEXT
  5
268
330
1F
100
AcDbEntity
  8
0
  6
Continuous
 62
   179
420
  2171202
370
    18
100
AcDbMText
 10
13.8677250517
 20
284.3410085307
 30
0.0
 40
2.9104166667
 41
0.0
 46
0.0
 71
     2
 72
     1
  1
m
  7
SLDTEXTSTYLE12
 73
     1
 44
1.0
  0
MTEXT
  5
269
330
1F
100
AcDbEntity
  8
0
  6
Continuous
 62
   179
420
  2171202
370
    18
100
AcDbMText
 10
10.0048884293
 20
283.8806506159
 30
0.0
 40
2.9104166667
 41
0.0
 46
0.0
 71
     2
 72
     1
  1
f
  7
SLDTEXTSTYLE12
 73
     1
 44
1.0
  0
MTEXT
  5
26A
330
1F
100
AcDbEntity
  8
0
  6
Continuous
 62
   179
420
  2171202
370
    18
100
AcDbMText
 10
11.3272261973
 20
275.7978074974
 30
0.0
 40
2.6458333333
 41
0.0
 46
0.0
 71
     2
 72
     1
  1
级精度
  7
SLDTEXTSTYLE13
 11
1.047444401652940E-14
 21
-1.0
 31
0.0
 73
     1
 44
1.0
  0
MTEXT
  5
26B
330
1F
100
AcDbEntity
  8
0
  6
Continuous
 62
   179
420
  2171202
370
    18
100
AcDbMText
 10
7.4039356737
 20
278.0104019166
 30
0.0
 40
2.6458333333
 41
0.0
 46
0.0
 71
     2
 72
     1
  1
尺寸范围
  7
SLDTEXTSTYLE13
 11
1.047444401652940E-14
 21
-1.0
 31
0.0
 73
     1
 44
1.0
  0
MTEXT
  5
26D
330
1F
100
AcDbEntity
  8
0
  6
Continuous
 62
   179
420
  2171202
370
    18
100
AcDbMText
 10
12.9947875111
 20
49.0848322858
 30
0.0
 40
2.38125
 41
0.0
 46
0.0
 71
     2
 72
     1
  1
借（通）件登记
  7
SLDTEXTSTYLE14
 73
     1
 44
1.0
  0
INSERT
  5
275
330
1F
100
AcDbEntity
  8
0
  6
Continuous
 62
   179
420
  2171202
370
    18
100
AcDbBlockReference
  2
SW_NOTE_0_21
 10
4.1556668549
 20
288.2924962297
 30
0.0
  0
MTEXT
  5
276
330
1F
100
AcDbEntity
  8
0
  6
Continuous
 62
   179
420
  2171202
370
    18
100
AcDbMText
 10
9.5179563997
 20
45.7493178255
 30
0.0
 40
2.38125
 41
0.0
 46
0.0
 71
     2
 72
     1
  1
描  图
  7
SLDTEXTSTYLE5
 73
     1
 44
1.0
  0
MTEXT
  5
277
330
1F
100
AcDbEntity
  8
0
  6
Continuous
 62
   179
420
  2171202
370
    18
100
AcDbMText
 10
9.5179563997
 20
38.7638796701
 30
0.0
 40
2.38125
 41
0.0
 46
0.0
 71
     2
 72
     1
  1
描  校
  7
SLDTEXTSTYLE5
 73
     1
 44
1.0
  0
MTEXT
  5
279
330
1F
100
AcDbEntity
  8
0
  6
Continuous
 62
   179
420
  2171202
370
    18
100
AcDbMText
 10
9.5495943676
 20
31.7763407574
 30
0.0
 40
2.38125
 41
0.0
 46
0.0
 71
     2
 72
     1
  1
旧底图总号
  7
SLDTEXTSTYLE17
 73
     1
 44
1.0
  0
MTEXT
  5
27B
330
1F
100
AcDbEntity
  8
0
  6
Continuous
 62
   179
420
  2171202
370
    18
100
AcDbMText
 10
9.6566210644
 20
24.6845806482
 30
0.0
 40
2.38125
 41
0.0
 46
0.0
 71
     2
 72
     1
  1
底图总号
  7
SLDTEXTSTYLE18
 73
     1
 44
1.0
  0
MTEXT
  5
27C
330
1F
100
AcDbEntity
  8
0
  6
Continuous
 62
   179
420
  2171202
370
    18
100
AcDbMText
 10
9.6596323857
 20
17.7307298955
 30
0.0
 40
2.38125
 41
0.0
 46
0.0
 71
     2
 72
     1
  1
签  字
  7
SLDTEXTSTYLE5
 73
     1
 44
1.0
  0
MTEXT
  5
27D
330
1F
100
AcDbEntity
  8
0
  6
Continuous
 62
   179
420
  2171202
370
    18
100
AcDbMText
 10
9.6596323857
 20
10.7932756567
 30
0.0
 40
2.38125
 41
0.0
 46
0.0
 71
     2
 72
     1
  1
日  期
  7
SLDTEXTSTYLE5
 73
     1
 44
1.0
  0
MTEXT
  5
27F
330
1F
100
AcDbEntity
  8
0
  6
Continuous
 62
     7
420
 16777215
370
    18
100
AcDbMText
 10
267.0817242303
 20
21.8143846298
 30
0.0
 40
3.175
 41
0.0
 46
0.0
 71
     1
 72
     1
  1
审 核
  7
SLDTEXTSTYLE19
 73
     1
 44
1.0
  0
MTEXT
  5
281
330
1F
100
AcDbEntity
  8
0
  6
Continuous
 62
     7
420
 16777215
370
    18
100
AcDbMText
 10
267.0676128307
 20
17.2223740687
 30
0.0
 40
3.175
 41
0.0
 46
0.0
 71
     1
 72
     1
  1
批 准
  7
SLDTEXTSTYLE20
 73
     1
 44
1.0
  0
MTEXT
  5
283
330
1F
100
AcDbEntity
  8
0
  6
Continuous
 62
     7
420
 16777215
370
    18
100
AcDbMText
 10
342.5096042131
 20
29.3586972737
 30
0.0
 40
3.175
 41
0.0
 46
0.0
 71
     1
 72
     1
  1
产品名称
  7
SLDTEXTSTYLE21
 73
     1
 44
1.0
  0
MTEXT
  5
284
330
1F
100
AcDbEntity
  8
0
  6
Continuous
 62
   179
420
  2171202
370
    18
100
AcDbMText
 10
5.0450831696
 20
131.4375708616
 30
0.0
 40
2.6458333333
 41
0.0
 46
0.0
 71
     2
 72
     1
  1
2000-4000
  7
SLDTEXTSTYLE12
 11
-3.491481338843133E-15
 21
1.0
 31
0.0
 73
     1
 44
1.0
  0
MTEXT
  5
285
330
1F
100
AcDbEntity
  8
0
  6
Continuous
 62
   179
420
  2171202
370
    18
100
AcDbMText
 10
8.9992172473
 20
131.782825707
 30
0.0
 40
2.6458333333
 41
0.0
 46
0.0
 71
     2
 72
     1
  1
—
  7
SLDTEXTSTYLE13
 11
-3.491481338843133E-15
 21
1.0
 31
0.0
 73
     1
 44
1.0
  0
INSERT
  5
28B
330
1F
100
AcDbEntity
  8
0
  6
Continuous
 62
   179
420
  2171202
370
    18
100
AcDbBlockReference
  2
SW_NOTE_0_22
 10
15.8602203308
 20
129.9565571714
 30
0.0
  0
MTEXT
  5
28C
330
1F
100
AcDbEntity
  8
0
  6
Continuous
 62
   179
420
  2171202
370
    18
100
AcDbMText
 10
4.8556939082
 20
259.3388020651
 30
0.0
 40
2.6458333333
 41
0.0
 46
0.0
 71
     2
 72
     1
  1
0.5-3
  7
SLDTEXTSTYLE12
 11
-3.491481338843133E-15
 21
1.0
 31
0.0
 73
     1
 44
1.0
  0
INSERT
  5
292
330
1F
100
AcDbEntity
  8
0
  6
Continuous
 62
   179
420
  2171202
370
    18
100
AcDbBlockReference
  2
SW_NOTE_0_23
 10
11.6738159892
 20
254.827299159
 30
0.0
  0
INSERT
  5
298
330
1F
100
AcDbEntity
  8
0
  6
Continuous
 62
   179
420
  2171202
370
    18
100
AcDbBlockReference
  2
SW_NOTE_0_24
 10
15.7112719416
 20
254.6763484656
 30
0.0
  0
MTEXT
  5
299
330
1F
100
AcDbEntity
  8
0
  6
Continuous
 62
     7
420
 16777215
370
    18
100
AcDbMText
 10
432.2099899937
 20
26.7173367325
 30
0.0
 40
3.175
 41
0.0
 46
0.0
 71
     1
 72
     1
  1
喷砂导电氧化（亮光）
  7
SLDTEXTSTYLE2
 73
     1
 44
1.0
  0
MTEXT
  5
29A
330
1F
100
AcDbEntity
  8
0
  6
Continuous
 62
     7
420
 16777215
370
    18
100
AcDbMText
 10
358.1380166173
 20
9.1673159564
 30
0.0
 40
3.7041666667
 41
0.0
 46
0.0
 71
     1
 72
     1
  1
1
  7
SLDTEXTSTYLE8
 73
     1
 44
1.0
  0
MTEXT
  5
29B
330
1F
100
AcDbEntity
  8
0
  6
Continuous
 62
     7
420
 16777215
370
    18
100
AcDbMText
 10
435.4062212366
 20
21.1326993729
 30
0.0
 40
3.175
 41
0.0
 46
0.0
 71
     1
 72
     1
  1
导电氧化（本色）
  7
SLDTEXTSTYLE2
 73
     1
 44
1.0
  0
MTEXT
  5
29C
330
1F
100
AcDbEntity
  8
0
  6
Continuous
 62
     7
420
 16777215
370
    18
100
AcDbMText
 10
372.5059157154
 20
39.4049774712
 30
0.0
 40
3.175
 41
0.0
 46
0.0
 71
     1
 72
     1
  1
阳极氧化灰色
  7
SLDTEXTSTYLE2
 73
     1
 44
1.0
  0
MTEXT
  5
29E
330
1F
100
AcDbEntity
  8
0
  6
Continuous
 62
     7
420
 16777215
370
    18
100
AcDbMText
 10
342.5096042131
 20
34.2276689978
 30
0.0
 40
3.175
 41
0.0
 46
0.0
 71
     1
 72
     1
  1
零件编号
  7
SLDTEXTSTYLE22
 73
     1
 44
1.0
  0
MTEXT
  5
29F
330
1F
100
AcDbEntity
  8
0
  6
Continuous
 62
     7
420
 16777215
370
    18
100
AcDbMText
 10
364.1822001925
 20
8.8063277537
 30
0.0
 40
3.7041666667
 41
0.0
 46
0.0
 71
     1
 72
     1
  1
6.3
  7
SLDTEXTSTYLE8
 73
     1
 44
1.0
  0
MTEXT
  5
2A0
330
1F
100
AcDbEntity
  8
0
  6
Continuous
 62
     7
420
 16777215
370
    18
100
AcDbMText
 10
387.5150439411
 20
14.2548246272
 30
0.0
 40
3.7041666667
 41
0.0
 46
0.0
 71
     1
 72
     1
  1
航维智芯
  7
SLDTEXTSTYLE2
 73
     1
 44
1.0
  0
MTEXT
  5
2A1
330
1F
100
AcDbEntity
  8
0
  6
Continuous
 62
     7
420
 16777215
370
    18
100
AcDbMText
 10
383.5442578616
 20
29.3586972737
 30
0.0
 40
3.175
 41
0.0
 46
0.0
 71
     2
 72
     1
  1
NS-800RT(睿博相机)
  7
SLDTEXTSTYLE2
 73
     1
 44
1.0
  0
MTEXT
  5
2A2
330
1F
100
AcDbEntity
  8
0
  6
Continuous
 62
     7
420
 16777215
370
    18
100
AcDbMText
 10
267.6147122235
 20
12.6122285426
 30
0.0
 40
3.175
 41
0.0
 46
0.0
 71
     1
 72
     1
  1
版本
  7
SLDTEXTSTYLE2
 73
     1
 44
1.0
  0
MTEXT
  5
2A3
330
1F
100
AcDbEntity
  8
0
  6
Continuous
 62
     7
420
 16777215
370
    18
100
AcDbMText
 10
279.9644882138
 20
13.0121501862
 30
0.0
 40
3.175
 41
0.0
 46
0.0
 71
     1
 72
     1
  1
S1
  7
SLDTEXTSTYLE4
 73
     1
 44
1.0
  0
INSERT
  5
2AA
330
1F
100
AcDbEntity
  8
0
  6
Continuous
 62
   190
420
  8388863
370
    18
100
AcDbBlockReference
  2
SW_SFSYMBOL_0
 10
436.2262638171
 20
236.7423780125
 30
0.0
  0
INSERT
  5
2B3
330
1F
100
AcDbEntity
  8
0
  6
Continuous
 62
   190
420
  8388863
370
    18
100
AcDbBlockReference
  2
SW_SFSYMBOL_1
 10
438.181440785
 20
275.2135569057
 30
0.0
  0
INSERT
  5
2BC
330
1F
100
AcDbEntity
  8
0
  6
Continuous
 62
   190
420
  8388863
370
    18
100
AcDbBlockReference
  2
SW_SFSYMBOL_2
 10
396.7952975171
 20
276.941416267
 30
0.0
  0
CIRCLE
  5
2BD
330
1F
100
AcDbEntity
  8
可见边线
  6
Continuous
 62
     7
420
 16777215
370
    18
100
AcDbCircle
 10
164.3554226472
 20
203.3311241922
 30
0.0
 40
1.100000000000023
  0
CIRCLE
  5
2BE
330
1F
100
AcDbEntity
  8
可见边线
  6
Continuous
 62
     7
420
 16777215
370
    18
100
AcDbCircle
 10
223.1760400808
 20
187.5984270625
 30
0.0
 40
1.100000000000023
  0
CIRCLE
  5
2BF
330
1F
100
AcDbEntity
  8
可见边线
  6
Continuous
 62
     7
420
 16777215
370
    18
100
AcDbCircle
 10
196.7201381829
 20
140.4175559861
 30
0.0
 40
1.099999999999994
  0
CIRCLE
  5
2C0
330
1F
100
AcDbEntity
  8
可见边线
  6
Continuous
 62
     7
420
 16777215
370
    18
100
AcDbCircle
 10
152.6172521892
 20
182.3975302747
 30
0.0
 40
1.099999999999994
  0
ARC
  5
2C1
330
1F
100
AcDbEntity
  8
可见边线
  6
Continuous
 62
     7
420
 16777215
370
    18
100
AcDbCircle
 10
159.8442431775
 20
199.3752096591
 30
0.0
 40
3.999999999999994
100
AcDbArc
 50
330.7191839267
 51
41.2479632922
  0
LINE
  5
2C2
330
1F
100
AcDbEntity
  8
可见边线
  6
Continuous
 62
     7
420
 16777215
370
    18
100
AcDbLine
 10
157.1284316588
 20
186.3534448078
 30
0.0
 11
163.3331754971
 21
197.4188479161
 31
0.0
  0
ARC
  5
2C3
330
1F
100
AcDbEntity
  8
可见边线
  6
Continuous
 62
     7
420
 16777215
370
    18
100
AcDbCircle
 10
153.6394993393
 20
188.3098065508
 30
0.0
 40
4.000000000000024
100
AcDbArc
 50
260.1904045612
 51
330.7191839267
  0
ARC
  5
2C4
330
1F
100
AcDbEntity
  8
可见边线
  6
Continuous
 62
     7
420
 16777215
370
    18
100
AcDbCircle
 10
152.6172521892
 20
182.3975302747
 30
0.0
 40
1.999999999999995
100
AcDbArc
 50
80.1904045612
 51
240.7191839267
  0
LINE
  5
2C5
330
1F
100
AcDbEntity
  8
可见边线
  6
Continuous
 62
     7
420
 16777215
370
    18
100
AcDbLine
 10
186.4357522034
 20
161.1413943454
 30
0.0
 11
151.6390713177
 21
180.6530641149
 31
0.0
  0
ARC
  5
2C6
330
1F
100
AcDbEntity
  8
可见边线
  6
Continuous
 62
     7
420
 16777215
370
    18
100
AcDbCircle
 10
181.5448478459
 20
152.4190635465
 30
0.0
 40
10.00000000000004
100
AcDbArc
 50
13.3276717583
 51
60.7191839267
  0
LINE
  5
2C7
330
1F
100
AcDbEntity
  8
可见边线
  6
Continuous
 62
     7
420
 16777215
370
    18
100
AcDbLine
 10
194.7740028755
 20
139.9565165461
 30
0.0
 11
191.2755243829
 21
154.7242607466
 31
0.0
  0
ARC
  5
2C8
330
1F
100
AcDbEntity
  8
可见边线
  6
Continuous
 62
     7
420
 16777215
370
    18
100
AcDbCircle
 10
196.7201381829
 20
140.4175559861
 30
0.0
 40
2.000000000000008
100
AcDbArc
 50
193.3276717583
 51
13.3276717584
  0
LINE
  5
2C9
330
1F
100
AcDbEntity
  8
可见边线
  6
Continuous
 62
     7
420
 16777215
370
    18
100
AcDbLine
 10
194.9778893423
 20
156.4479675766
 30
0.0
 11
198.6662734903
 21
140.8785954261
 31
0.0
  0
ARC
  5
2CA
330
1F
100
AcDbEntity
  8
可见边线
  6
Continuous
 62
     7
420
 16777215
370
    18
100
AcDbCircle
 10
204.7085658793
 20
158.7531647767
 30
0.0
 40
10.00000000000002
100
AcDbArc
 50
150.7191839267
 51
193.3276717584
  0
LINE
  5
2CB
330
1F
100
AcDbEntity
  8
可见边线
  6
Continuous
 62
     7
420
 16777215
370
    18
100
AcDbLine
 10
202.9763492659
 20
176.1100843723
 30
0.0
 11
195.9862350804
 21
163.6440691342
 31
0.0
  0
ARC
  5
2CC
330
1F
100
AcDbEntity
  8
可见边线
  6
Continuous
 62
     7
420
 16777215
370
    18
100
AcDbCircle
 10
211.6986800649
 20
171.2191800149
 30
0.0
 40
10.00000000000001
100
AcDbArc
 50
108.110696095
 51
150.7191839267
  0
LINE
  5
2CD
330
1F
100
AcDbEntity
  8
可见边线
  6
Continuous
 62
     7
420
 16777215
370
    18
100
AcDbLine
 10
223.7977478178
 20
185.6975116278
 30
0.0
 11
208.5901413802
 21
180.7237571883
 31
0.0
  0
ARC
  5
2CE
330
1F
100
AcDbEntity
  8
可见边线
  6
Continuous
 62
     7
420
 16777215
370
    18
100
AcDbCircle
 10
223.1760400808
 20
187.5984270625
 30
0.0
 40
2.000000000000014
100
AcDbArc
 50
288.1106960951
 51
108.1106960951
  0
LINE
  5
2CF
330
1F
100
AcDbEntity
  8
可见边线
  6
Continuous
 62
     7
420
 16777215
370
    18
100
AcDbLine
 10
208.1297274464
 20
184.7816742079
 30
0.0
 11
222.5543323439
 21
189.4993424972
 31
0.0
  0
ARC
  5
2D0
330
1F
100
AcDbEntity
  8
可见边线
  6
Continuous
 62
     7
420
 16777215
370
    18
100
AcDbCircle
 10
205.0211887618
 20
194.2862513813
 30
0.0
 40
10.00000000000003
100
AcDbArc
 50
240.7191839267
 51
288.1106960951
  0
LINE
  5
2D1
330
1F
100
AcDbEntity
  8
可见边线
  6
Continuous
 62
     7
420
 16777215
370
    18
100
AcDbLine
 10
165.3336035187
 20
205.0755903519
 30
0.0
 11
200.1302844043
 21
185.5639205824
 31
0.0
  0
ARC
  5
2D2
330
1F
100
AcDbEntity
  8
可见边线
  6
Continuous
 62
     7
420
 16777215
370
    18
100
AcDbCircle
 10
164.3554226472
 20
203.3311241922
 30
0.0
 40
2.000000000000039
100
AcDbArc
 50
60.7191839267
 51
221.2479632922
  0
INSERT
  5
2D9
330
1F
100
AcDbEntity
  8
中心线
  6
CENTERX2
 62
   230
420
 16711808
370
    18
100
AcDbBlockReference
  2
SW_DOWELSYMBOL_0
 10
164.3554226472
 20
203.3311241922
 30
0.0
  0
INSERT
  5
2E0
330
1F
100
AcDbEntity
  8
中心线
  6
CENTERX2
 62
   230
420
 16711808
370
    18
100
AcDbBlockReference
  2
SW_DOWELSYMBOL_1
 10
152.6172521892
 20
182.3975302747
 30
0.0
  0
INSERT
  5
2E7
330
1F
100
AcDbEntity
  8
中心线
  6
CENTERX2
 62
   230
420
 16711808
370
    18
100
AcDbBlockReference
  2
SW_DOWELSYMBOL_2
 10
223.1760400808
 20
187.5984270625
 30
0.0
  0
INSERT
  5
2EE
330
1F
100
AcDbEntity
  8
中心线
  6
CENTERX2
 62
   230
420
 16711808
370
    18
100
AcDbBlockReference
  2
SW_DOWELSYMBOL_3
 10
196.7201381829
 20
140.4175559861
 30
0.0
  0
ENDSEC
  0
SECTION
  2
OBJECTS
  0
DICTIONARY
  5
C
330
0
100
AcDbDictionary
281
     1
  3
ACAD_DETAILVIEWSTYLE
350
2F7
  3
ACAD_GROUP
350
D
  3
ACAD_LAYOUT
350
1A
  3
ACAD_MATERIAL
350
43
  3
ACAD_MLEADERSTYLE
350
5B
  3
ACAD_MLINESTYLE
350
17
  3
ACAD_PLOTSETTINGS
350
19
  3
ACAD_PLOTSTYLENAME
350
E
  3
ACAD_SCALELIST
350
47
  3
ACAD_SECTIONVIEWSTYLE
350
2F8
  3
ACAD_TABLESTYLE
350
59
  3
ACAD_VISUALSTYLE
350
2A
  3
ACDB_RECOMPOSE_DATA
350
2F4
  3
AcDbVariableDictionary
350
2EF
  0
SUN
  5
5D
330
29
100
AcDbSun
 90
        1
290
     0
 63
     7
421
 16777215
 40
1.0
291
     1
 91
  2455826
 92
 54000000
292
     0
 70
     2
 71
   256
280
     1
  0
DICTIONARY
  5
2F7
102
{ACAD_REACTORS
330
C
102
}
330
C
100
AcDbDictionary
281
     1
  0
DICTIONARY
  5
D
102
{ACAD_REACTORS
330
C
102
}
330
C
100
AcDbDictionary
281
     1
  0
DICTIONARY
  5
1A
102
{ACAD_REACTORS
330
C
102
}
330
C
100
AcDbDictionary
281
     1
  3
Layout1
350
1E
  3
Layout2
350
26
  3
Model
350
22
  0
DICTIONARY
  5
43
102
{ACAD_REACTORS
330
C
102
}
330
C
100
AcDbDictionary
281
     1
  3
ByBlock
350
45
  3
ByLayer
350
44
  3
Global
350
46
  0
DICTIONARY
  5
5B
102
{ACAD_REACTORS
330
C
102
}
330
C
100
AcDbDictionary
281
     1
  3
Standard
350
5C
  0
DICTIONARY
  5
17
102
{ACAD_REACTORS
330
C
102
}
330
C
100
AcDbDictionary
281
     1
  3
Standard
350
18
  0
DICTIONARY
  5
19
102
{ACAD_REACTORS
330
C
102
}
330
C
100
AcDbDictionary
281
     1
  0
ACDBDICTIONARYWDFLT
  5
E
102
{ACAD_REACTORS
330
C
102
}
330
C
100
AcDbDictionary
281
     1
  3
Normal
350
F
100
AcDbDictionaryWithDefault
340
F
  0
DICTIONARY
  5
47
102
{ACAD_REACTORS
330
C
102
}
330
C
100
AcDbDictionary
281
     1
  3
A0
350
48
  3
A1
350
49
  3
A2
350
4A
  3
A3
350
4B
  3
A4
350
4C
  3
A5
350
4D
  3
A6
350
4E
  3
A7
350
4F
  3
A8
350
50
  3
A9
350
51
  3
B0
350
52
  3
B1
350
53
  3
B2
350
54
  3
B3
350
55
  3
B4
350
56
  3
B5
350
57
  3
B6
350
58
  0
DICTIONARY
  5
2F8
102
{ACAD_REACTORS
330
C
102
}
330
C
100
AcDbDictionary
281
     1
  0
DICTIONARY
  5
59
102
{ACAD_REACTORS
330
C
102
}
330
C
100
AcDbDictionary
281
     1
  3
Standard
350
5A
  0
DICTIONARY
  5
2A
102
{ACAD_REACTORS
330
C
102
}
330
C
100
AcDbDictionary
281
     1
  3
2dWireframe
350
2F
  3
Basic
350
32
  3
Brighten
350
36
  3
ColorChange
350
3A
  3
Conceptual
350
34
  3
Dim
350
35
  3
EdgeColorOff
350
3D
  3
Facepattern
350
39
  3
Flat
350
2B
  3
FlatWithEdges
350
2C
  3
Gouraud
350
2D
  3
GouraudWithEdges
350
2E
  3
Hidden
350
31
  3
JitterOff
350
3B
  3
Linepattern
350
38
  3
OverhangOff
350
3C
  3
Realistic
350
33
  3
Shaded
350
42
  3
Shaded with edges
350
41
  3
Shades of Gray
350
3E
  3
Sketchy
350
3F
  3
Thicken
350
37
  3
Wireframe
350
30
  3
X-Ray
350
40
  0
XRECORD
  5
2F4
102
{ACAD_REACTORS
330
C
102
}
330
C
100
AcDbXrecord
280
     1
 90
        1
330
5A
  0
DICTIONARY
  5
2EF
102
{ACAD_REACTORS
330
C
102
}
330
C
100
AcDbDictionary
281
     1
  3
CANNOSCALE
350
2F0
  3
CENTEREXE
350
2F9
  3
CENTERLTYPEFILE
350
2FA
  3
CMLEADERSTYLE
350
2F6
  3
CTABLESTYLE
350
2F5
  0
LAYOUT
  5
1E
102
{ACAD_REACTORS
330
1A
102
}
330
1A
100
AcDbPlotSettings
  1

  2
none_device
  4

  6

 40
0.0
 41
0.0
 42
0.0
 43
0.0
 44
0.0
 45
0.0
 46
0.0
 47
0.0
 48
0.0
 49
0.0
140
0.0
141
0.0
142
1.0
143
1.0
 70
   688
 72
     1
 73
     0
 74
     5
  7

 75
    16
 76
     0
 77
     2
 78
   300
147
1.0
148
0.0
149
0.0
100
AcDbLayout
  1
Layout1
 70
     1
 71
     1
 10
0.0
 20
0.0
 11
420.0
 21
297.0
 12
0.0
 22
0.0
 32
0.0
 14
1.0000000000E+20
 24
1.0000000000E+20
 34
1.0000000000E+20
 15
-1.0000000000E+20
 25
-1.0000000000E+20
 35
-1.0000000000E+20
146
0.0
 13
0.0
 23
0.0
 33
0.0
 16
1.0
 26
0.0
 36
0.0
 17
0.0
 27
1.0
 37
0.0
 76
     0
330
1B
  0
LAYOUT
  5
26
102
{ACAD_REACTORS
330
1A
102
}
330
1A
100
AcDbPlotSettings
  1

  2
none_device
  4

  6

 40
0.0
 41
0.0
 42
0.0
 43
0.0
 44
0.0
 45
0.0
 46
0.0
 47
0.0
 48
0.0
 49
0.0
140
0.0
141
0.0
142
1.0
143
1.0
 70
   688
 72
     1
 73
     0
 74
     5
  7

 75
    16
 76
     0
 77
     2
 78
   300
147
1.0
148
0.0
149
0.0
100
AcDbLayout
  1
Layout2
 70
     1
 71
     2
 10
0.0
 20
0.0
 11
0.0
 21
0.0
 12
0.0
 22
0.0
 32
0.0
 14
0.0
 24
0.0
 34
0.0
 15
0.0
 25
0.0
 35
0.0
146
0.0
 13
0.0
 23
0.0
 33
0.0
 16
1.0
 26
0.0
 36
0.0
 17
0.0
 27
1.0
 37
0.0
 76
     0
330
23
  0
LAYOUT
  5
22
102
{ACAD_REACTORS
330
1A
102
}
330
1A
100
AcDbPlotSettings
  1

  2
none_device
  4
Letter_(8.50_x_11.00_Inches)
  6

 40
6.35
 41
6.35
 42
6.35000508
 43
6.35000508
 44
215.9
 45
279.4
 46
0.0
 47
0.0
 48
0.0
 49
0.0
140
0.0
141
0.0
142
1.0
143
1.0
 70
  1712
 72
     1
 73
     0
 74
     0
  7

 75
     0
 76
     0
 77
     2
 78
   300
147
1.0
148
0.0
149
0.0
100
AcDbLayout
  1
Model
 70
     1
 71
     0
 10
0.0
 20
0.0
 11
420.0
 21
297.0
 12
0.0
 22
0.0
 32
0.0
 14
0.0
 24
0.0
 34
0.0
 15
420.0
 25
297.0
 35
0.0
146
0.0
 13
0.0
 23
0.0
 33
0.0
 16
1.0
 26
0.0
 36
0.0
 17
0.0
 27
1.0
 37
0.0
 76
     0
330
1F
331
29
  0
MATERIAL
  5
45
102
{ACAD_REACTORS
330
43
102
}
330
43
100
AcDbMaterial
  1
ByBlock
 72
     1
 94
      127
  0
MATERIAL
  5
44
102
{ACAD_REACTORS
330
43
102
}
330
43
100
AcDbMaterial
  1
ByLayer
 72
     1
 94
      127
  0
MATERIAL
  5
46
102
{ACAD_REACTORS
330
43
102
}
330
43
100
AcDbMaterial
  1
Global
 72
     1
 94
      127
  0
MLEADERSTYLE
  5
5C
102
{ACAD_REACTORS
330
5B
102
}
330
5B
100
AcDbMLeaderStyle
170
     2
171
     1
172
     0
 90
        2
 40
0.0
 41
0.0
173
     1
 91
-1056964608
340
14
 92
       -2
290
     1
 42
2.0
291
     1
 43
8.0
  3
Standard
341
0
 44
4.0
300

342
11
174
     1
178
     6
175
     1
176
     0
 93
-1056964608
 45
4.0
292
     0
297
     0
 46
4.0
343
0
 94
-1056964608
 47
1.0
 49
1.0
140
1.0
293
     1
141
0.0
294
     1
177
     0
142
1.0
295
     0
296
     0
143
3.75
1001
ACAD_MLEADERVER
1070
     2
  0
MLINESTYLE
  5
18
102
{ACAD_REACTORS
330
17
102
}
330
17
100
AcDbMlineStyle
  2
Standard
 70
     0
  3

 62
   256
 51
90.0
 52
90.0
 71
     2
 49
0.5
 62
   256
  6
BYLAYER
 49
-0.5
 62
   256
  6
BYLAYER
  0
ACDBPLACEHOLDER
  5
F
102
{ACAD_REACTORS
330
E
102
}
330
E
  0
SCALE
  5
48
102
{ACAD_REACTORS
330
47
102
}
330
47
100
AcDbScale
 70
     0
300
1:1
140
1.0
141
1.0
290
     1
  0
SCALE
  5
49
102
{ACAD_REACTORS
330
47
102
}
330
47
100
AcDbScale
 70
     0
300
1:2
140
1.0
141
2.0
290
     0
  0
SCALE
  5
4A
102
{ACAD_REACTORS
330
47
102
}
330
47
100
AcDbScale
 70
     0
300
1:4
140
1.0
141
4.0
290
     0
  0
SCALE
  5
4B
102
{ACAD_REACTORS
330
47
102
}
330
47
100
AcDbScale
 70
     0
300
1:5
140
1.0
141
5.0
290
     0
  0
SCALE
  5
4C
102
{ACAD_REACTORS
330
47
102
}
330
47
100
AcDbScale
 70
     0
300
1:8
140
1.0
141
8.0
290
     0
  0
SCALE
  5
4D
102
{ACAD_REACTORS
330
47
102
}
330
47
100
AcDbScale
 70
     0
300
1:10
140
1.0
141
10.0
290
     0
  0
SCALE
  5
4E
102
{ACAD_REACTORS
330
47
102
}
330
47
100
AcDbScale
 70
     0
300
1:16
140
1.0
141
16.0
290
     0
  0
SCALE
  5
4F
102
{ACAD_REACTORS
330
47
102
}
330
47
100
AcDbScale
 70
     0
300
1:20
140
1.0
141
20.0
290
     0
  0
SCALE
  5
50
102
{ACAD_REACTORS
330
47
102
}
330
47
100
AcDbScale
 70
     0
300
1:30
140
1.0
141
30.0
290
     0
  0
SCALE
  5
51
102
{ACAD_REACTORS
330
47
102
}
330
47
100
AcDbScale
 70
     0
300
1:40
140
1.0
141
40.0
290
     0
  0
SCALE
  5
52
102
{ACAD_REACTORS
330
47
102
}
330
47
100
AcDbScale
 70
     0
300
1:50
140
1.0
141
50.0
290
     0
  0
SCALE
  5
53
102
{ACAD_REACTORS
330
47
102
}
330
47
100
AcDbScale
 70
     0
300
1:100
140
1.0
141
100.0
290
     0
  0
SCALE
  5
54
102
{ACAD_REACTORS
330
47
102
}
330
47
100
AcDbScale
 70
     0
300
2:1
140
2.0
141
1.0
290
     0
  0
SCALE
  5
55
102
{ACAD_REACTORS
330
47
102
}
330
47
100
AcDbScale
 70
     0
300
4:1
140
4.0
141
1.0
290
     0
  0
SCALE
  5
56
102
{ACAD_REACTORS
330
47
102
}
330
47
100
AcDbScale
 70
     0
300
8:1
140
8.0
141
1.0
290
     0
  0
SCALE
  5
57
102
{ACAD_REACTORS
330
47
102
}
330
47
100
AcDbScale
 70
     0
300
10:1
140
10.0
141
1.0
290
     0
  0
SCALE
  5
58
102
{ACAD_REACTORS
330
47
102
}
330
47
100
AcDbScale
 70
     0
300
100:1
140
100.0
141
1.0
290
     0
  0
TABLESTYLE
  5
5A
102
{ACAD_REACTORS
330
59
102
}
102
{ACAD_XDICTIONARY
360
2F1
102
}
330
59
100
AcDbTableStyle
  3
Standard
 70
     0
 71
     0
 40
0.06
 41
0.06
280
     0
281
     0
  7
STANDARD
140
4.5
170
     2
 62
     0
 63
   257
283
     0
 90
        4
 91
        0
  1

274
    -2
284
     1
 64
     0
275
    -2
285
     1
 65
     0
276
    -2
286
     1
 66
     0
277
    -2
287
     1
 67
     0
278
    -2
288
     1
 68
     0
279
    -2
289
     1
 69
     0
  7
STANDARD
140
6.0
170
     5
 62
     0
 63
   257
283
     0
 90
        4
 91
        0
  1

274
    -2
284
     1
 64
     0
275
    -2
285
     1
 65
     0
276
    -2
286
     1
 66
     0
277
    -2
287
     1
 67
     0
278
    -2
288
     1
 68
     0
279
    -2
289
     1
 69
     0
  7
STANDARD
140
4.5
170
     5
 62
     0
 63
   257
283
     0
 90
        4
 91
        0
  1

274
    -2
284
     1
 64
     0
275
    -2
285
     1
 65
     0
276
    -2
286
     1
 66
     0
277
    -2
287
     1
 67
     0
278
    -2
288
     1
 68
     0
279
    -2
289
     1
 69
     0
  0
VISUALSTYLE
  5
2F
102
{ACAD_REACTORS
330
2A
102
}
330
2A
100
AcDbVisualStyle
  2
2dWireframe
 70
     4
 71
     0
 72
     2
 73
     0
 90
        0
 40
0.6
 41
30.0
 62
     5
 63
     7
421
 16777215
 74
     1
 91
        4
 64
     7
 65
   257
 75
     1
175
     1
 42
1.0
 92
        0
 66
   257
 43
1.0
 76
     1
 77
     6
 78
     2
 67
     7
 79
     5
170
     0
171
     0
290
     0
174
     0
 93
        1
 44
0.0
173
     0
291
     0
 45
0.0
  0
VISUALSTYLE
  5
32
102
{ACAD_REACTORS
330
2A
102
}
330
2A
100
AcDbVisualStyle
  2
Basic
 70
     7
 71
     1
 72
     0
 73
     1
 90
        0
 40
0.6
 41
30.0
 62
     5
 63
     7
421
 16777215
 74
     0
 91
        4
 64
     7
 65
   257
 75
     1
175
     1
 42
1.0
 92
        8
 66
     7
 43
1.0
 76
     1
 77
     6
 78
     2
 67
     7
 79
     5
170
     0
171
     0
290
     0
174
     0
 93
        1
 44
0.0
173
     0
291
     1
 45
0.0
  0
VISUALSTYLE
  5
36
102
{ACAD_REACTORS
330
2A
102
}
330
2A
100
AcDbVisualStyle
  2
Brighten
 70
    12
 71
     2
 72
     2
 73
     0
 90
        0
 40
0.6
 41
30.0
 62
     5
 63
     7
421
 16777215
 74
     1
 91
        4
 64
     7
 65
   257
 75
     1
175
     1
 42
1.0
 92
        8
 66
     7
 43
1.0
 76
     1
 77
     6
 78
     2
 67
     7
 79
     5
170
     0
171
     0
290
     0
174
     0
 93
        1
 44
50.0
173
     0
291
     1
 45
0.0
  0
VISUALSTYLE
  5
3A
102
{ACAD_REACTORS
330
2A
102
}
330
2A
100
AcDbVisualStyle
  2
ColorChange
 70
    16
 71
     2
 72
     2
 73
     3
 90
        0
 40
0.6
 41
30.0
 62
     5
 63
     8
421
  8421504
 74
     1
 91
        4
 64
     7
 65
   257
 75
     1
175
     1
 42
1.0
 92
        8
 66
     8
424
  8421504
 43
1.0
 76
     1
 77
     6
 78
     2
 67
     7
 79
     5
170
     0
171
     0
290
     0
174
     0
 93
        1
 44
0.0
173
     0
291
     1
 45
0.0
  0
VISUALSTYLE
  5
34
102
{ACAD_REACTORS
330
2A
102
}
330
2A
100
AcDbVisualStyle
  2
Conceptual
 70
     9
 71
     3
 72
     2
 73
     0
 90
        0
 40
0.6
 41
30.0
 62
     5
 63
     7
421
 16777215
 74
     2
 91
        2
 64
     7
 65
   257
 75
     1
175
     1
 42
179.0
 92
        8
 66
     7
 43
1.0
 76
     1
 77
     6
 78
     2
 67
     7
 79
     3
170
     0
171
     0
290
     0
174
     0
 93
        1
 44
0.0
173
     0
291
     0
 45
0.0
  0
VISUALSTYLE
  5
35
102
{ACAD_REACTORS
330
2A
102
}
330
2A
100
AcDbVisualStyle
  2
Dim
 70
    11
 71
     2
 72
     2
 73
     0
 90
        0
 40
0.6
 41
30.0
 62
     5
 63
     7
421
 16777215
 74
     1
 91
        4
 64
     7
 65
   257
 75
     1
175
     1
 42
1.0
 92
        8
 66
     7
 43
1.0
 76
     1
 77
     6
 78
     2
 67
     7
 79
     5
170
     0
171
     0
290
     0
174
     0
 93
        1
 44
-50.0
173
     0
291
     1
 45
0.0
  0
VISUALSTYLE
  5
3D
102
{ACAD_REACTORS
330
2A
102
}
330
2A
100
AcDbVisualStyle
  2
EdgeColorOff
 70
    22
 71
     2
 72
     2
 73
     0
 90
        0
 40
0.6
 41
30.0
 62
     5
 63
     7
421
 16777215
 74
     1
 91
        4
 64
     7
 65
   257
 75
     1
175
     1
 42
1.0
 92
        8
 66
     7
 43
1.0
 76
     1
 77
     6
 78
     2
 67
     7
 79
     5
170
     0
171
     0
290
     0
174
     0
 93
        1
 44
0.0
173
     0
291
     1
 45
0.0
  0
VISUALSTYLE
  5
39
102
{ACAD_REACTORS
330
2A
102
}
330
2A
100
AcDbVisualStyle
  2
Facepattern
 70
    15
 71
     2
 72
     2
 73
     0
 90
        0
 40
0.6
 41
30.0
 62
     5
 63
     7
421
 16777215
 74
     1
 91
        4
 64
     7
 65
   257
 75
     1
175
     1
 42
1.0
 92
        8
 66
     7
 43
1.0
 76
     1
 77
     6
 78
     2
 67
     7
 79
     5
170
     0
171
     0
290
     0
174
     0
 93
        1
 44
0.0
173
     0
291
     1
 45
0.0
  0
VISUALSTYLE
  5
2B
102
{ACAD_REACTORS
330
2A
102
}
330
2A
100
AcDbVisualStyle
  2
Flat
 70
     0
 71
     2
 72
     1
 73
     1
 90
        2
 40
0.6
 41
30.0
 62
     5
 63
     7
421
 16777215
 74
     0
 91
        0
 64
     7
 65
   257
 75
     1
175
     1
 42
1.0
 92
        8
 66
     7
 43
1.0
 76
     1
 77
     6
 78
     2
 67
     7
 79
     5
170
     0
171
     0
290
     0
174
     0
 93
       13
 44
0.0
173
     0
291
     1
 45
0.0
  0
VISUALSTYLE
  5
2C
102
{ACAD_REACTORS
330
2A
102
}
330
2A
100
AcDbVisualStyle
  2
FlatWithEdges
 70
     1
 71
     2
 72
     1
 73
     1
 90
        2
 40
0.6
 41
30.0
 62
     5
 63
     7
421
 16777215
 74
     1
 91
        0
 64
     7
 65
   257
 75
     1
175
     1
 42
1.0
 92
        0
 66
   257
 43
1.0
 76
     1
 77
     6
 78
     2
 67
     7
 79
     5
170
     0
171
     0
290
     0
174
     0
 93
       13
 44
0.0
173
     0
291
     1
 45
0.0
  0
VISUALSTYLE
  5
2D
102
{ACAD_REACTORS
330
2A
102
}
330
2A
100
AcDbVisualStyle
  2
Gouraud
 70
     2
 71
     2
 72
     2
 73
     1
 90
        2
 40
0.6
 41
30.0
 62
     5
 63
     7
421
 16777215
 74
     0
 91
        0
 64
     7
 65
   257
 75
     1
175
     1
 42
1.0
 92
        0
 66
     7
 43
1.0
 76
     1
 77
     6
 78
     2
 67
     7
 79
     5
170
     0
171
     0
290
     0
174
     0
 93
       13
 44
0.0
173
     0
291
     1
 45
0.0
  0
VISUALSTYLE
  5
2E
102
{ACAD_REACTORS
330
2A
102
}
330
2A
100
AcDbVisualStyle
  2
GouraudWithEdges
 70
     3
 71
     2
 72
     2
 73
     1
 90
        2
 40
0.6
 41
30.0
 62
     5
 63
     7
421
 16777215
 74
     1
 91
        0
 64
     7
 65
   257
 75
     1
175
     1
 42
1.0
 92
        0
 66
   257
 43
1.0
 76
     1
 77
     6
 78
     2
 67
     7
 79
     5
170
     0
171
     0
290
     0
174
     0
 93
       13
 44
0.0
173
     0
291
     1
 45
0.0
  0
VISUALSTYLE
  5
31
102
{ACAD_REACTORS
330
2A
102
}
330
2A
100
AcDbVisualStyle
  2
Hidden
 70
     6
 71
     1
 72
     2
 73
     2
 90
        0
 40
0.6
 41
30.0
 62
     5
 63
     7
421
 16777215
 74
     2
 91
        2
 64
     7
 65
   257
 75
     2
175
     1
 42
40.0
 92
        0
 66
   257
 43
1.0
 76
     1
 77
     6
 78
     2
 67
     7
 79
     3
170
     0
171
     0
290
     0
174
     0
 93
        1
 44
0.0
173
     0
291
     0
 45
0.0
  0
VISUALSTYLE
  5
3B
102
{ACAD_REACTORS
330
2A
102
}
330
2A
100
AcDbVisualStyle
  2
JitterOff
 70
    20
 71
     2
 72
     2
 73
     0
 90
        0
 40
0.6
 41
30.0
 62
     5
 63
     7
421
 16777215
 74
     1
 91
        4
 64
     7
 65
   257
 75
     1
175
     1
 42
1.0
 92
       10
 66
     7
 43
1.0
 76
     1
 77
     6
 78
     2
 67
     7
 79
     5
170
     0
171
     0
290
     0
174
     0
 93
        1
 44
0.0
173
     0
291
     1
 45
0.0
  0
VISUALSTYLE
  5
38
102
{ACAD_REACTORS
330
2A
102
}
330
2A
100
AcDbVisualStyle
  2
Linepattern
 70
    14
 71
     2
 72
     2
 73
     0
 90
        0
 40
0.6
 41
30.0
 62
     5
 63
     7
421
 16777215
 74
     1
 91
        4
 64
     7
 65
   257
 75
     7
175
     7
 42
1.0
 92
        8
 66
     7
 43
1.0
 76
     1
 77
     6
 78
     2
 67
     7
 79
     5
170
     0
171
     0
290
     0
174
     0
 93
        1
 44
0.0
173
     0
291
     1
 45
0.0
  0
VISUALSTYLE
  5
3C
102
{ACAD_REACTORS
330
2A
102
}
330
2A
100
AcDbVisualStyle
  2
OverhangOff
 70
    21
 71
     2
 72
     2
 73
     0
 90
        0
 40
0.6
 41
30.0
 62
     5
 63
     7
421
 16777215
 74
     1
 91
        4
 64
     7
 65
   257
 75
     1
175
     1
 42
1.0
 92
        9
 66
     7
 43
1.0
 76
     1
 77
     6
 78
     2
 67
     7
 79
     5
170
     0
171
     0
290
     0
174
     0
 93
        1
 44
0.0
173
     0
291
     1
 45
0.0
  0
VISUALSTYLE
  5
33
102
{ACAD_REACTORS
330
2A
102
}
330
2A
100
AcDbVisualStyle
  2
Realistic
 70
     8
 71
     2
 72
     3
 73
     0
 90
        2
 40
0.6
 41
30.0
 62
     5
 63
     7
421
 16777215
 74
     0
 91
        0
 64
     7
 65
   257
 75
     1
175
     1
 42
1.0
 92
        8
 66
   257
 43
1.0
 76
     1
 77
     6
 78
     2
 67
     7
 79
     3
170
     0
171
     0
290
     0
174
     0
 93
       13
 44
0.0
173
     0
291
     0
 45
0.0
  0
VISUALSTYLE
  5
42
102
{ACAD_REACTORS
330
2A
102
}
330
2A
100
AcDbVisualStyle
  2
Shaded
 70
    27
 71
     2
 72
     2
 73
     1
 90
        2
 40
0.6
 41
30.0
 62
     5
 63
     7
421
 16777215
 74
     0
 91
        4
 64
     7
 65
   257
 75
     1
175
     1
 42
1.0
 92
        8
 66
   257
 43
1.0
 76
     1
 77
     6
 78
     2
 67
     8
425
  7895160
 79
     3
170
     0
171
     0
290
     0
174
     0
 93
        5
 44
0.0
173
     0
291
     0
 45
0.0
  0
VISUALSTYLE
  5
41
102
{ACAD_REACTORS
330
2A
102
}
330
2A
100
AcDbVisualStyle
  2
Shaded with edges
 70
    26
 71
     2
 72
     2
 73
     1
 90
        2
 40
0.6
 41
30.0
 62
     5
 63
     7
421
 16777215
 74
     1
 91
       10
 64
     7
 65
   257
 75
     2
175
     1
 42
1.0
 92
        8
 66
   257
 43
1.0
 76
     1
 77
     6
 78
     2
 67
     7
 79
     3
170
     0
171
     0
290
     0
174
     0
 93
        5
 44
0.0
173
     0
291
     0
 45
0.0
  0
VISUALSTYLE
  5
3E
102
{ACAD_REACTORS
330
2A
102
}
330
2A
100
AcDbVisualStyle
  2
Shades of Gray
 70
    23
 71
     2
 72
     2
 73
     3
 90
        0
 40
0.6
 41
30.0
 62
     5
 63
     7
421
 16777215
 74
     2
 91
        2
 64
     7
 65
     7
 75
     1
175
     1
 42
40.0
 92
        8
 66
     7
 43
1.0
 76
     1
 77
     6
 78
     2
 67
     7
 79
     3
170
     0
171
     0
290
     0
174
     0
 93
        1
 44
0.0
173
     0
291
     0
 45
0.0
  0
VISUALSTYLE
  5
3F
102
{ACAD_REACTORS
330
2A
102
}
330
2A
100
AcDbVisualStyle
  2
Sketchy
 70
    24
 71
     1
 72
     2
 73
     2
 90
        0
 40
0.6
 41
30.0
 62
     5
 63
     7
421
 16777215
 74
     2
 91
        2
 64
     7
 65
     7
 75
     1
175
     1
 42
40.0
 92
       11
 66
     7
 43
1.0
 76
     1
 77
     6
 78
     2
 67
     7
 79
     6
170
     0
171
     0
290
     0
174
     0
 93
        1
 44
0.0
173
     0
291
     0
 45
0.0
  0
VISUALSTYLE
  5
37
102
{ACAD_REACTORS
330
2A
102
}
330
2A
100
AcDbVisualStyle
  2
Thicken
 70
    13
 71
     2
 72
     2
 73
     0
 90
        0
 40
0.6
 41
30.0
 62
     5
 63
     7
421
 16777215
 74
     1
 91
        4
 64
     7
 65
   257
 75
     1
175
     1
 42
1.0
 92
       12
 66
     7
 43
1.0
 76
     1
 77
     6
 78
     2
 67
     7
 79
     5
170
     0
171
     0
290
     0
174
     0
 93
        1
 44
0.0
173
     0
291
     1
 45
0.0
  0
VISUALSTYLE
  5
30
102
{ACAD_REACTORS
330
2A
102
}
330
2A
100
AcDbVisualStyle
  2
Wireframe
 70
     5
 71
     0
 72
     2
 73
     0
 90
        0
 40
0.6
 41
30.0
 62
     5
 63
     7
421
 16777215
 74
     1
 91
        4
 64
     7
 65
   257
 75
     1
175
     1
 42
1.0
 92
        0
 66
   257
 43
1.0
 76
     1
 77
     6
 78
     2
 67
     7
 79
     3
170
     0
171
     0
290
     0
174
     0
 93
        1
 44
0.0
173
     0
291
     0
 45
0.0
  0
VISUALSTYLE
  5
40
102
{ACAD_REACTORS
330
2A
102
}
330
2A
100
AcDbVisualStyle
  2
X-Ray
 70
    25
 71
     2
 72
     2
 73
     1
 90
        1
 40
0.5
 41
30.0
 62
     5
 63
     7
421
 16777215
 74
     1
 91
        0
 64
     7
 65
   257
 75
     1
175
     1
 42
1.0
 92
        8
 66
     7
 43
1.0
 76
     1
 77
     6
 78
     2
 67
     7
 79
     3
170
     0
171
     0
290
     0
174
     0
 93
       13
 44
0.0
173
     0
291
     0
 45
0.0
  0
DICTIONARYVAR
  5
2F0
102
{ACAD_REACTORS
330
2EF
102
}
330
2EF
100
DictionaryVariables
280
     0
  1
1:1
  0
DICTIONARYVAR
  5
2F9
102
{ACAD_REACTORS
330
2EF
102
}
330
2EF
100
DictionaryVariables
280
     0
  1
3.500000
  0
DICTIONARYVAR
  5
2FA
102
{ACAD_REACTORS
330
2EF
102
}
330
2EF
100
DictionaryVariables
280
     0
  1
acadiso.lin
  0
DICTIONARYVAR
  5
2F6
102
{ACAD_REACTORS
330
2EF
102
}
330
2EF
100
DictionaryVariables
280
     0
  1
Standard
  0
DICTIONARYVAR
  5
2F5
102
{ACAD_REACTORS
330
2EF
102
}
330
2EF
100
DictionaryVariables
280
     0
  1
Standard
  0
DICTIONARY
  5
2F1
330
5A
100
AcDbDictionary
280
     1
281
     1
  3
ACAD_ROUNDTRIP_2008_TABLESTYLE_CELLSTYLEMAP
360
2F2
  0
CELLSTYLEMAP
  5
2F2
102
{ACAD_REACTORS
330
2F1
102
}
330
2F1
100
AcDbCellStyleMap
 90
        3
300
CELLSTYLE
  1
TABLEFORMAT_BEGIN
 90
        5
170
     1
 91
        0
 92
    32768
 62
   257
 93
        1
300
CONTENTFORMAT
  1
CONTENTFORMAT_BEGIN
 90
        0
 91
        0
 92
        4
 93
        0
300

 40
0.0
140
1.0
 94
        5
 62
     0
340
11
144
6.0
309
CONTENTFORMAT_END
171
     1
301
MARGIN
  1
CELLMARGIN_BEGIN
 40
1.5
 40
1.5
 40
1.5
 40
1.5
 40
1.5
 40
1.5
309
CELLMARGIN_END
 94
        6
 95
        1
302
GRIDFORMAT
  1
GRIDFORMAT_BEGIN
 90
        0
 91
        1
 62
     0
 92
       -2
340
14
 93
        0
 40
0.045
309
GRIDFORMAT_END
 95
        2
302
GRIDFORMAT
  1
GRIDFORMAT_BEGIN
 90
        0
 91
        1
 62
     0
 92
       -2
340
14
 93
        0
 40
0.045
309
GRIDFORMAT_END
 95
        4
302
GRIDFORMAT
  1
GRIDFORMAT_BEGIN
 90
        0
 91
        1
 62
     0
 92
       -2
340
14
 93
        0
 40
0.045
309
GRIDFORMAT_END
 95
        8
302
GRIDFORMAT
  1
GRIDFORMAT_BEGIN
 90
        0
 91
        1
 62
     0
 92
       -2
340
14
 93
        0
 40
0.045
309
GRIDFORMAT_END
 95
       16
302
GRIDFORMAT
  1
GRIDFORMAT_BEGIN
 90
        0
 91
        1
 62
     0
 92
       -2
340
14
 93
        0
 40
0.045
309
GRIDFORMAT_END
 95
       32
302
GRIDFORMAT
  1
GRIDFORMAT_BEGIN
 90
        0
 91
        1
 62
     0
 92
       -2
340
14
 93
        0
 40
0.045
309
GRIDFORMAT_END
309
TABLEFORMAT_END
  1
CELLSTYLE_BEGIN
 90
        1
 91
        1
300
_TITLE
309
CELLSTYLE_END
300
CELLSTYLE
  1
TABLEFORMAT_BEGIN
 90
        5
170
     1
 91
        0
 92
        0
 62
   257
 93
        1
300
CONTENTFORMAT
  1
CONTENTFORMAT_BEGIN
 90
        0
 91
        0
 92
        4
 93
        0
300

 40
0.0
140
1.0
 94
        5
 62
     0
340
11
144
4.5
309
CONTENTFORMAT_END
171
     1
301
MARGIN
  1
CELLMARGIN_BEGIN
 40
1.5
 40
1.5
 40
1.5
 40
1.5
 40
1.5
 40
1.5
309
CELLMARGIN_END
 94
        6
 95
        1
302
GRIDFORMAT
  1
GRIDFORMAT_BEGIN
 90
        0
 91
        1
 62
     0
 92
       -2
340
14
 93
        0
 40
0.045
309
GRIDFORMAT_END
 95
        2
302
GRIDFORMAT
  1
GRIDFORMAT_BEGIN
 90
        0
 91
        1
 62
     0
 92
       -2
340
14
 93
        0
 40
0.045
309
GRIDFORMAT_END
 95
        4
302
GRIDFORMAT
  1
GRIDFORMAT_BEGIN
 90
        0
 91
        1
 62
     0
 92
       -2
340
14
 93
        0
 40
0.045
309
GRIDFORMAT_END
 95
        8
302
GRIDFORMAT
  1
GRIDFORMAT_BEGIN
 90
        0
 91
        1
 62
     0
 92
       -2
340
14
 93
        0
 40
0.045
309
GRIDFORMAT_END
 95
       16
302
GRIDFORMAT
  1
GRIDFORMAT_BEGIN
 90
        0
 91
        1
 62
     0
 92
       -2
340
14
 93
        0
 40
0.045
309
GRIDFORMAT_END
 95
       32
302
GRIDFORMAT
  1
GRIDFORMAT_BEGIN
 90
        0
 91
        1
 62
     0
 92
       -2
340
14
 93
        0
 40
0.045
309
GRIDFORMAT_END
309
TABLEFORMAT_END
  1
CELLSTYLE_BEGIN
 90
        2
 91
        1
300
_HEADER
309
CELLSTYLE_END
300
CELLSTYLE
  1
TABLEFORMAT_BEGIN
 90
        5
170
     1
 91
        0
 92
        0
 62
   257
 93
        1
300
CONTENTFORMAT
  1
CONTENTFORMAT_BEGIN
 90
        0
 91
        0
 92
        4
 93
        0
300

 40
0.0
140
1.0
 94
        2
 62
     0
340
11
144
4.5
309
CONTENTFORMAT_END
171
     1
301
MARGIN
  1
CELLMARGIN_BEGIN
 40
1.5
 40
1.5
 40
1.5
 40
1.5
 40
1.5
 40
1.5
309
CELLMARGIN_END
 94
        6
 95
        1
302
GRIDFORMAT
  1
GRIDFORMAT_BEGIN
 90
        0
 91
        1
 62
     0
 92
       -2
340
14
 93
        0
 40
0.045
309
GRIDFORMAT_END
 95
        2
302
GRIDFORMAT
  1
GRIDFORMAT_BEGIN
 90
        0
 91
        1
 62
     0
 92
       -2
340
14
 93
        0
 40
0.045
309
GRIDFORMAT_END
 95
        4
302
GRIDFORMAT
  1
GRIDFORMAT_BEGIN
 90
        0
 91
        1
 62
     0
 92
       -2
340
14
 93
        0
 40
0.045
309
GRIDFORMAT_END
 95
        8
302
GRIDFORMAT
  1
GRIDFORMAT_BEGIN
 90
        0
 91
        1
 62
     0
 92
       -2
340
14
 93
        0
 40
0.045
309
GRIDFORMAT_END
 95
       16
302
GRIDFORMAT
  1
GRIDFORMAT_BEGIN
 90
        0
 91
        1
 62
     0
 92
       -2
340
14
 93
        0
 40
0.045
309
GRIDFORMAT_END
 95
       32
302
GRIDFORMAT
  1
GRIDFORMAT_BEGIN
 90
        0
 91
        1
 62
     0
 92
       -2
340
14
 93
        0
 40
0.045
309
GRIDFORMAT_END
309
TABLEFORMAT_END
  1
CELLSTYLE_BEGIN
 90
        3
 91
        2
300
_DATA
309
CELLSTYLE_END
  0
ENDSEC
  0
EOF
